<?xml version="1.0" encoding="UTF-8"?>
<svg xmlns="http://www.w3.org/2000/svg" viewBox="0 0 219.39 211.99">
  <defs>
    <style>
      .cls-1 {
        isolation: isolate;
      }

      .cls-2 {
        mix-blend-mode: multiply;
      }

      .cls-2, .cls-3 {
        fill: #f88808;
      }

      .cls-2, .cls-3, .cls-4 {
        stroke-width: 0px;
      }

      .cls-4 {
        fill: #faf5f2;
      }
    </style>
  </defs>
  <g class="cls-1">
    <g id="Layer_2" data-name="Layer 2">
      <g id="_Content" data-name="     Content">
        <g>
          <path class="cls-3" d="m117.81,211.99h14.2c12.71-40.77,45.85-72.61,87.38-83.5v-14.04c-49.07,11.51-88.14,49.24-101.58,97.54Z"/>
          <path class="cls-3" d="m132.58,211.99h14.37c11.76-32.94,38.74-58.7,72.44-68.78v-14.16c-41.23,10.86-74.13,42.47-86.81,82.94Z"/>
          <path class="cls-3" d="m88.59,211.99h13.96c6.6-26.69,20.35-51.16,40.3-71.1,21.29-21.29,47.75-35.51,76.55-41.53v-13.87c-64.73,12.47-116.24,62.54-130.81,126.5Z"/>
          <path class="cls-3" d="m62.11,2.9c-.11.03-.21.05-.32.08h0c1.53,1.27,3.01,2.63,4.45,4.07,26.78,26.78,26.78,70.19,0,96.96-17.41,17.41-41.85,23.5-64.16,18.26C-3.39,81.72,1.15,44.5,25.55,21.59c7.63-7.16,16.56-12.32,26.46-15.79-9.9,3.47-18.83,8.62-26.46,15.79C1.15,44.5-3.39,81.72,2.07,122.27c.01.09.02.2.04.29,4,29.48,13.28,60.69,24.04,89.43h47.35c7.08-34.29,23.98-65.81,49.31-91.14,26.67-26.67,60.19-44,96.59-50.35v-36.76C168.55,11.5,107.35-7.43,62.11,2.9Z"/>
          <path class="cls-3" d="m74.08,211.99h13.9c6.86-30.49,22.2-58.48,44.84-81.12,23.98-23.98,53.96-39.76,86.57-45.96v-13.84c-72.56,12.84-130.31,69.12-145.31,140.92Z"/>
          <path class="cls-3" d="m103.16,211.99h14.1c13.46-48.6,52.77-86.56,102.14-98.1v-13.95c-56.9,12.03-102.17,55.92-116.23,112.04Z"/>
          <path class="cls-3" d="m147.53,211.99h14.61c10.51-25.13,31.38-44.88,57.25-53.89v-14.32c-33.4,10.04-60.15,35.57-71.87,68.21Z"/>
          <path class="cls-3" d="m194.73,211.99h14.66c1.12,0,2.19-.19,3.2-.53,1.81-1.85,3.75-3.57,5.81-5.14.63-1.31.99-2.77.99-4.33v-12.46c-9.98,5.32-18.46,13.07-24.66,22.46Z"/>
          <path class="cls-3" d="m162.73,211.99h15.03c8.81-17.35,23.59-31.17,41.63-38.72v-14.59c-25.57,8.96-46.21,28.48-56.67,53.31Z"/>
          <path class="cls-3" d="m178.37,211.99h15.73c6.32-9.68,15.03-17.65,25.3-23.07v-15.08c-17.75,7.48-32.3,21.09-41.03,38.15Z"/>
          <path class="cls-3" d="m213.87,210.92c1.56-.79,2.89-1.96,3.85-3.41-1.34,1.07-2.62,2.21-3.85,3.41Z"/>
          <path class="cls-2" d="m61.79,2.98c-3.35.77-6.62,1.72-9.78,2.82,3.16-1.11,6.43-2.05,9.78-2.82h0Z"/>
          <path class="cls-3" d="m2.07,122.27c22.31,5.24,46.76-.85,64.16-18.26,26.78-26.78,26.78-70.19,0-96.96-1.44-1.44-2.92-2.79-4.45-4.07-3.35.77-6.62,1.72-9.78,2.82-9.9,3.47-18.82,8.62-26.46,15.79C1.15,44.5-3.39,81.72,2.07,122.27Z"/>
          <path class="cls-2" d="m2.07,122.27c22.31,5.24,46.76-.85,64.16-18.26,26.78-26.78,26.78-70.19,0-96.96-1.44-1.44-2.92-2.79-4.45-4.07-3.35.77-6.62,1.72-9.78,2.82-9.9,3.47-18.82,8.62-26.46,15.79C1.15,44.5-3.39,81.72,2.07,122.27Z"/>
          <path class="cls-4" d="m212.59,211.46c.44-.15.87-.33,1.28-.54,1.23-1.2,2.51-2.33,3.85-3.41.25-.38.47-.78.67-1.2-2.06,1.57-4,3.29-5.81,5.14Z"/>
          <path class="cls-4" d="m194.09,211.99h.64c6.2-9.39,14.68-17.15,24.66-22.46v-.61c-10.27,5.42-18.98,13.39-25.3,23.07Z"/>
          <path class="cls-4" d="m177.76,211.99h.61c8.73-17.06,23.28-30.66,41.03-38.15v-.57c-18.05,7.55-32.83,21.37-41.63,38.72Z"/>
          <path class="cls-4" d="m162.14,211.99h.58c10.45-24.83,31.1-44.35,56.67-53.31v-.57c-25.87,9.01-46.74,28.76-57.25,53.89Z"/>
          <path class="cls-4" d="m146.95,211.99h.57c11.71-32.64,38.47-58.18,71.87-68.21v-.56c-33.7,10.07-60.68,35.84-72.44,68.78Z"/>
          <path class="cls-4" d="m132.02,211.99h.57c12.68-40.47,45.58-72.08,86.81-82.94v-.56c-41.53,10.89-74.67,42.73-87.38,83.5Z"/>
          <path class="cls-4" d="m117.26,211.99h.56c13.44-48.3,52.51-86.03,101.58-97.54v-.56c-49.36,11.53-88.67,49.5-102.14,98.1Z"/>
          <path class="cls-4" d="m102.55,211.99h.61c14.06-56.13,59.33-100.01,116.23-112.04v-.58c-28.8,6.01-55.26,20.24-76.55,41.53-19.94,19.94-33.69,44.41-40.3,71.1Z"/>
          <path class="cls-4" d="m87.99,211.99h.6c14.57-63.96,66.08-114.03,130.81-126.5v-.58c-32.6,6.2-62.59,21.98-86.57,45.96-22.64,22.64-37.98,50.63-44.84,81.12Z"/>
          <path class="cls-4" d="m73.5,211.99h.59c15-71.8,72.75-128.08,145.31-140.92v-.58c-36.4,6.36-69.92,23.69-96.59,50.35-25.33,25.33-42.23,56.85-49.31,91.14Z"/>
        </g>
      </g>
    </g>
  </g>
</svg>