<?xml version="1.0" encoding="UTF-8"?>
<svg xmlns="http://www.w3.org/2000/svg" viewBox="0 0 249.67 251.59">
  <defs>
    <style>
      .cls-1 {
        mix-blend-mode: multiply;
      }

      .cls-1, .cls-2, .cls-3 {
        stroke-width: 0px;
      }

      .cls-1, .cls-3 {
        fill: #11664F;
      }

      .cls-4 {
        isolation: isolate;
      }

      .cls-2 {
        fill: #faf5f2;
      }
    </style>
  </defs>
  <g class="cls-4">
    <g id="Layer_2" data-name="Layer 2">
      <g id="_Content" data-name="     Content">
        <g>
<svg width="234" height="235" viewBox="0 0 234 235" fill="none" xmlns="http://www.w3.org/2000/svg">
<path d="M164.764 231.268C164.885 231.24 164.997 231.212 165.118 231.184C163.431 229.777 161.791 228.286 160.207 226.692C130.644 197.13 130.644 149.207 160.207 119.645C179.424 100.428 206.405 93.6989 231.037 99.4865C231.028 99.384 231.018 99.2721 231 99.1696C226.563 66.4759 216.256 31.8436 204.289 -0.00201416H106.506C106.898 0.594451 107.14 1.31207 107.159 2.08561C107.177 4.23848 105.462 6.02787 103.3 6.04651C101.129 6.08379 99.3579 4.35032 99.3392 2.18813C99.3113 1.37731 99.5443 0.62241 99.9637 -0.00201416H90.56C89.9169 0.687649 89.0409 1.15364 88.025 1.23751C86.7948 1.33071 85.6765 0.836765 84.8936 -0.00201416H44.8559C44.2874 0.874044 43.374 1.51711 42.265 1.71282C40.6806 1.99242 39.1522 1.26547 38.3227 -0.00201416H29.441C30.1679 0.678329 30.6432 1.63826 30.6805 2.71004C30.7644 4.87222 29.0775 6.68958 26.9153 6.76414C24.7531 6.84801 22.9451 5.16114 22.8612 2.99895C22.8146 1.87126 23.262 0.827445 23.9982 0.0911835C24.0355 0.0539044 24.0728 0.0352649 24.1101 -0.00201416H9.95335C4.80884 -0.00201416 0.633587 4.17324 0.633587 9.31775V13.1948C1.59352 14.5555 1.59352 16.3635 0.633587 17.7055V47.6872C1.41645 47.1653 2.37638 46.9137 3.35496 47.0628C5.49851 47.361 6.98967 49.3275 6.6728 51.4897C6.37456 53.6239 4.38945 55.1058 2.24591 54.8075C1.64012 54.7143 1.09958 54.4813 0.624268 54.1551V108.499C2.32978 109.049 3.47612 110.717 3.31768 112.553C3.16856 114.165 2.06883 115.461 0.624268 115.927V124.724C1.33257 124.184 2.20863 123.858 3.16856 123.914C5.34007 124.025 6.98967 125.852 6.89647 128.005C6.76599 130.167 4.93932 131.845 2.78645 131.714C1.97563 131.677 1.23937 131.397 0.633587 130.941V201.286C54.7535 223.999 117.615 242.032 164.764 231.259V231.268ZM131.064 2.71004C131.781 1.99242 132.797 1.52643 133.906 1.56371C136.059 1.58235 137.783 3.37174 137.765 5.52461C137.709 7.67747 135.938 9.41095 133.785 9.36435C131.632 9.34571 129.899 7.57496 129.927 5.40345C129.945 4.35032 130.393 3.39038 131.073 2.71004H131.064ZM115.63 6.67094C116.385 5.91604 117.457 5.46869 118.603 5.54325C120.775 5.65508 122.424 7.48176 122.312 9.65326C122.182 11.8061 120.337 13.4744 118.184 13.3439C116.04 13.2321 114.381 11.3867 114.493 9.25251C114.549 8.23666 114.978 7.33264 115.64 6.67094H115.63ZM112.219 25.9815C112.387 25.2266 112.769 24.5835 113.291 24.0616C114.195 23.1576 115.537 22.7009 116.888 23.0085C118.995 23.4558 120.337 25.5341 119.88 27.6591C119.423 29.784 117.336 31.0887 115.229 30.6507C113.105 30.194 111.762 28.1064 112.219 25.9815ZM98.1277 18.3486C98.2581 17.5191 98.6402 16.8015 99.2181 16.2237C100.066 15.3756 101.343 14.9096 102.629 15.1333C104.754 15.4874 106.189 17.5098 105.835 19.6347C105.481 21.7596 103.477 23.2135 101.334 22.8407C99.2088 22.4866 97.7549 20.4828 98.1277 18.3393V18.3486ZM94.0363 34.0245C94.2413 33.4559 94.5489 32.99 94.9589 32.5892C95.9934 31.5547 97.5778 31.154 99.0317 31.6852C101.082 32.4028 102.126 34.6396 101.39 36.6619C100.672 38.7123 98.4166 39.7747 96.3942 39.0385C94.3718 38.3022 93.3 36.0468 94.0363 34.0245ZM93.9617 52.6453C92.8713 54.5093 90.4761 55.1337 88.6122 54.0433C86.7482 52.9529 86.1052 50.5764 87.2142 48.6938C87.3633 48.3955 87.587 48.1439 87.82 47.9016C89.0409 46.6807 90.9701 46.3731 92.5451 47.2772C94.4091 48.3676 95.0335 50.7628 93.9617 52.6453ZM83.4304 13.0923C83.5422 12.2069 83.9616 11.4147 84.5581 10.8276C85.3875 9.99809 86.5712 9.55075 87.82 9.69986C89.9636 9.99809 91.4734 11.9459 91.1938 14.1081C90.9142 16.233 88.9663 17.7428 86.8228 17.4819C84.6606 17.2023 83.1694 15.2358 83.4304 13.0923ZM79.8889 28.1437C80.0939 27.5752 80.4015 27.0719 80.8115 26.6712C81.846 25.6367 83.3931 25.2359 84.8656 25.7485C86.8973 26.4475 87.9784 28.6842 87.2608 30.7253C86.5618 32.757 84.3251 33.8381 82.2841 33.1204C80.2523 32.4215 79.1713 30.1847 79.8889 28.1437ZM77.8013 61.9092C77.8758 61.8346 77.9504 61.7601 78.0249 61.6855C79.4602 60.2503 81.7715 60.1571 83.3186 61.4805C84.9775 62.8784 85.1639 65.3575 83.7845 66.9978C82.3679 68.6381 79.8889 68.8245 78.2486 67.4358C76.6083 66.0192 76.4219 63.5495 77.8199 61.9185L77.8013 61.8999V61.9092ZM68.3603 10.2404C68.4722 9.31775 68.8916 8.52557 69.5067 7.91979C70.3175 7.10897 71.4638 6.66162 72.694 6.7921C74.8469 7.03441 76.3847 8.9636 76.1423 11.1258C75.8814 13.2693 73.9615 14.8164 71.8086 14.5741C69.6651 14.3131 68.118 12.4026 68.3603 10.2404ZM65.9465 73.5123C66.0397 73.4191 66.1329 73.3259 66.2447 73.2513C67.9037 71.8907 70.3548 72.1237 71.7434 73.8012C73.1041 75.4601 72.8525 77.9299 71.1935 79.2999C69.516 80.6792 67.0462 80.4276 65.6949 78.75C64.3994 77.2029 64.5299 74.9289 65.9558 73.5123H65.9465ZM64.1571 59.9986C62.5914 58.5075 62.4982 56.0564 63.9707 54.4627C64.008 54.4254 64.0453 54.3881 64.0639 54.3695C65.5551 52.8783 67.9503 52.8411 69.5067 54.2763C71.091 55.7488 71.1656 58.2186 69.6931 59.8122C68.2392 61.378 65.7508 61.4712 64.1571 59.9986ZM64.9493 24.4997C65.1543 23.9684 65.4432 23.4838 65.816 23.1203C66.8878 22.0486 68.4908 21.6664 69.9633 22.2163C71.995 22.9898 73.0295 25.2452 72.2467 27.2676C71.4918 29.2807 69.2364 30.3059 67.214 29.5323C65.2009 28.7774 64.1758 26.522 64.9493 24.4997ZM53.0386 9.6719C53.1505 8.78653 53.5326 8.03162 54.129 7.44448C54.9585 6.61502 56.1794 6.17699 57.4469 6.33543C59.5718 6.6523 61.063 8.61877 60.7647 10.7623C60.4665 12.9059 58.5 14.397 56.3565 14.0988C54.2129 13.8006 52.7218 11.8341 53.0386 9.6719ZM56.8225 71.0239C55.0703 72.2635 52.6192 71.8347 51.3611 70.064C50.2707 68.4983 50.4757 66.3734 51.7991 65.05C51.9482 64.9008 52.1346 64.7517 52.3117 64.6119C54.0824 63.391 56.5149 63.8011 57.7731 65.5719C58.994 67.3426 58.5839 69.7751 56.8131 71.0332L56.8225 71.0239ZM56.5988 89.1695C54.6975 90.2226 52.321 89.5423 51.2679 87.6411C50.4198 86.094 50.7367 84.1928 51.9296 82.9905C52.1905 82.7296 52.4794 82.5152 52.815 82.3288C54.7162 81.2757 57.0927 81.956 58.1459 83.8572C59.1617 85.7585 58.4814 88.135 56.5988 89.1695ZM49.0218 22.8407C49.2082 22.4307 49.4692 22.1045 49.7767 21.7876C50.923 20.6413 52.7124 20.2964 54.2409 21.0513C56.1794 21.9926 56.9902 24.3133 56.0303 26.2704C55.089 28.2089 52.7684 29.0197 50.8112 28.0598C48.8727 27.1185 48.0619 24.7979 49.0218 22.8407ZM37.1391 11.1351C37.3255 10.4548 37.6797 9.86762 38.1456 9.40163C39.1056 8.44169 40.5408 8.01299 41.9481 8.3951C44.0264 8.9636 45.2566 11.1165 44.6881 13.1948C44.1196 15.2824 41.9761 16.5033 39.8884 15.9348C37.8008 15.3663 36.5799 13.2134 37.1484 11.1351H37.1391ZM31.2397 22.2443C31.3049 22.1697 31.3702 22.0951 31.4447 22.0206C32.88 20.5854 35.1913 20.4828 36.757 21.8249C38.3973 23.2322 38.5837 25.7019 37.1764 27.3422C35.7691 28.9825 33.2994 29.1689 31.6591 27.7616C30.0188 26.3543 29.8324 23.8845 31.2397 22.2443ZM41.3516 58.2838C42.3489 60.2037 41.5753 62.5616 39.6368 63.5402C37.6983 64.5187 35.359 63.7266 34.3805 61.788C33.6069 60.241 33.9424 58.4329 35.0981 57.2679C35.3963 56.9697 35.7411 56.7367 36.1139 56.5503C38.0524 55.5718 40.4103 56.3453 41.3516 58.2838ZM26.9526 64.4255C27.4093 66.5504 26.0859 68.6101 23.9796 69.0947C21.8547 69.5514 19.7764 68.2094 19.2918 66.1031C19.0122 64.7517 19.4409 63.4097 20.3635 62.487C20.8761 61.9744 21.5471 61.6016 22.302 61.4339C24.4083 60.9959 26.4866 62.3006 26.9526 64.4255ZM24.3338 36.9229C22.358 37.799 20.0467 36.9043 19.1706 34.9285C18.4996 33.4093 18.8724 31.6852 19.9814 30.5761C20.3076 30.25 20.7084 29.9704 21.165 29.7653C23.1408 28.8893 25.4521 29.784 26.3282 31.7598C27.2042 33.7355 26.3095 36.0468 24.3338 36.9229ZM19.2079 12.7661C19.2079 12.7661 19.2638 12.7101 19.2918 12.6822C20.7829 11.191 23.1967 11.1537 24.7345 12.6076C26.3095 14.0895 26.3841 16.5592 24.9023 18.1343C23.4204 19.7093 20.9507 19.7745 19.3756 18.2927C17.8006 16.8108 17.7354 14.3318 19.2079 12.7661ZM15.0419 47.9389C15.5918 47.389 16.3188 46.9976 17.1482 46.8671C19.2731 46.4757 21.2955 47.9202 21.6683 50.0544C22.0411 52.1607 20.6152 54.2017 18.4809 54.5745C16.3374 54.9473 14.3336 53.5214 13.9609 51.3872C13.7185 50.0824 14.1845 48.8056 15.0513 47.9389H15.0419ZM13.6626 20.7811C13.6626 22.9432 11.9198 24.6954 9.75764 24.7047C7.59545 24.7047 5.84334 22.9619 5.83402 20.7997C5.83402 19.7186 6.27205 18.7307 6.98035 18.0224C7.68865 17.3141 8.65791 16.8761 9.739 16.8761C11.9012 16.8761 13.6533 18.6189 13.6626 20.7811ZM5.11639 2.23473C6.61688 0.734247 9.04934 0.706288 10.5778 2.16949L10.5964 2.18813C10.5964 2.18813 10.6337 2.22541 10.643 2.24405C12.1808 3.71657 12.2553 6.13971 10.8108 7.71475C9.34757 9.29911 6.86851 9.40163 5.28415 7.93843C5.25619 7.91047 5.22823 7.88251 5.20027 7.85455C5.17231 7.82659 5.14435 7.79863 5.10708 7.76135C3.57863 6.23291 3.57863 3.75385 5.10708 2.22541L5.11639 2.23473ZM4.79952 63.9223C5.53578 63.186 6.55164 62.7573 7.69797 62.7946C9.85084 62.8505 11.5564 64.6585 11.4818 66.83C11.4072 68.9643 9.5992 70.6698 7.44634 70.6139C5.28415 70.5207 3.60659 68.7313 3.66251 66.5784C3.69979 65.5439 4.11918 64.6026 4.80884 63.9223H4.79952ZM5.74082 101.192C3.56931 101.117 1.90108 99.3094 1.97563 97.1379C2.01291 96.1034 2.4323 95.1994 3.12196 94.5191C3.85823 93.7828 4.89272 93.3354 6.03905 93.3727C8.20124 93.4659 9.8788 95.2926 9.80424 97.4268C9.72968 99.5983 7.90301 101.276 5.75014 101.192H5.74082ZM8.56471 85.9449C6.41184 85.9262 4.66905 84.1555 4.68769 82.0026C4.70633 80.9495 5.12571 79.9709 5.83402 79.2719C6.54232 78.5729 7.56749 78.1256 8.65791 78.1442C10.8108 78.1629 12.5442 79.9336 12.5349 82.0865C12.4977 84.258 10.7455 85.9728 8.57403 85.9449H8.56471ZM8.59267 39.9984C6.43048 39.9332 4.73428 38.1345 4.79952 35.9723C4.82748 34.9378 5.26551 33.9965 5.94585 33.3162C6.68212 32.5799 7.70729 32.1419 8.82566 32.1698C10.9878 32.2351 12.684 34.0338 12.6188 36.196C12.5536 38.3581 10.7549 40.0543 8.59267 39.9891V39.9984ZM13.0662 112.683C12.973 111.518 13.4389 110.437 14.2125 109.654C14.8555 109.011 15.7223 108.583 16.7009 108.527C18.8537 108.359 20.7177 109.999 20.8668 112.143C21.0346 114.296 19.3943 116.16 17.2321 116.327C15.0792 116.458 13.2153 114.855 13.0662 112.674V112.683ZM21.5099 131.341C19.3756 131.528 17.4744 129.962 17.2507 127.819C17.1389 126.598 17.5862 125.461 18.3784 124.669C19.0028 124.044 19.8509 123.634 20.7922 123.541C22.9544 123.336 24.8277 124.92 25.0514 127.064C25.2564 129.217 23.672 131.136 21.5099 131.341ZM23.3179 100.288C21.193 100.605 19.2079 99.123 18.891 96.9702C18.7233 95.6933 19.1706 94.4818 20.0001 93.6523C20.5872 93.0652 21.3421 92.6737 22.2088 92.5433C24.3524 92.245 26.3375 93.7269 26.6357 95.8611C26.9526 98.0233 25.4521 99.9898 23.3179 100.288ZM25.564 84.3885C23.4577 84.7985 21.398 83.4285 20.9693 81.3129C20.7084 79.9895 21.1557 78.6568 22.0411 77.7714C22.5723 77.2402 23.2806 76.8674 24.0542 76.7183C26.1791 76.2896 28.2201 77.6782 28.6488 79.7938C29.0775 81.9187 27.6889 83.9598 25.5733 84.3885H25.564ZM28.5183 47.6872C27.6889 46.1215 28.0244 44.2762 29.2173 43.0739C29.4783 42.813 29.7858 42.58 30.14 42.375C32.0598 41.3778 34.4177 42.114 35.4336 44.0152C36.4494 45.9165 35.7318 48.293 33.812 49.2902C31.9107 50.3061 29.5342 49.5885 28.5183 47.6872ZM30.4941 110.698C30.1959 109.337 30.6246 107.949 31.5472 107.026C32.0412 106.532 32.6936 106.178 33.4298 105.992C35.5361 105.516 37.6331 106.803 38.1363 108.927C38.6116 111.034 37.3255 113.131 35.2192 113.615C33.0943 114.109 31.016 112.804 30.4941 110.698ZM39.991 128.201C37.8847 128.713 35.7691 127.446 35.2565 125.34C34.9396 123.96 35.3684 122.572 36.3097 121.63C36.785 121.155 37.4187 120.782 38.155 120.596C40.2426 120.102 42.3582 121.369 42.8801 123.476C43.3927 125.582 42.1065 127.679 40.0003 128.201H39.991ZM40.4476 96.2432C38.3973 96.9236 36.1885 95.8145 35.5081 93.7735C35.0515 92.3196 35.4522 90.7632 36.4681 89.7567C36.8782 89.3466 37.3907 89.0204 37.9965 88.8154C40.0469 88.135 42.2557 89.2441 42.936 91.2851C43.6163 93.3354 42.5073 95.5442 40.4476 96.2432ZM41.9015 79.3372C39.9071 80.1853 37.6237 79.2626 36.757 77.2868C36.1139 75.7584 36.496 74.0808 37.6051 72.9718C37.9406 72.6362 38.3414 72.3473 38.8073 72.1423C40.8018 71.2942 43.1224 72.2169 43.9519 74.1926C44.8 76.1871 43.8959 78.4891 41.9015 79.3372ZM41.2212 39.6349C39.6554 38.1438 39.6182 35.674 41.1093 34.099C41.128 34.0804 41.1466 34.0617 41.1652 34.0431C42.6564 32.5519 45.1075 32.5333 46.6453 33.9872C48.1924 35.497 48.2483 37.9854 46.7385 39.5418C45.2659 41.0888 42.7776 41.1448 41.2212 39.6349ZM48.0805 48.5633L48.2856 48.3583C49.9072 46.9603 52.3956 47.1187 53.8215 48.7683C55.2195 50.39 55.061 52.8783 53.4301 54.2856C51.7898 55.7022 49.32 55.5252 47.9128 53.8942C46.5521 52.3471 46.636 49.9985 48.0805 48.5633ZM47.4002 105.973C46.7757 104.463 47.1579 102.786 48.2483 101.695C48.6024 101.341 49.0218 101.071 49.5158 100.866C51.5288 100.036 53.8122 100.996 54.623 102.991C55.4524 105.004 54.4925 107.287 52.5074 108.098C50.4943 108.927 48.211 107.967 47.4002 105.973ZM57.8197 122.441C55.8066 123.271 53.5419 122.292 52.7311 120.298C52.1253 118.806 52.5074 117.129 53.5792 116.057C53.952 115.684 54.3714 115.414 54.8746 115.209C56.8877 114.379 59.1524 115.358 59.9632 117.352C60.7927 119.366 59.8327 121.649 57.8197 122.441ZM59.0778 42.9248C57.3071 41.6667 56.8597 39.2342 58.1179 37.4634C58.2297 37.2771 58.3975 37.1093 58.5559 36.9509C59.8607 35.6461 61.9856 35.4038 63.5327 36.5035C65.3221 37.743 65.7601 40.1755 64.5113 41.9463C63.2904 43.717 60.8393 44.1364 59.0685 42.9248H59.0778ZM63.3183 98.5452C62.3398 96.9795 62.638 94.985 63.8682 93.7455C64.0919 93.5218 64.3249 93.3261 64.5858 93.177C66.4311 92.0307 68.845 92.6085 69.9726 94.4725C71.1003 96.2991 70.5412 98.6943 68.6958 99.8406C66.8505 100.987 64.4367 100.409 63.309 98.5545L63.3183 98.5452ZM74.6232 114.128C72.7779 115.237 70.3827 114.603 69.2737 112.767C68.351 111.183 68.6306 109.244 69.8608 108.005C70.1031 107.762 70.3548 107.576 70.653 107.399C72.4983 106.29 74.8935 106.924 76.0025 108.76C77.1116 110.642 76.4778 113.037 74.6232 114.128ZM74.6232 47.5195C72.7965 46.3918 72.2094 43.9966 73.3091 42.1513C73.4769 41.8717 73.6633 41.6201 73.8776 41.3964C75.1265 40.1382 77.1023 39.8679 78.6866 40.8279C80.5319 41.9369 81.1005 44.3508 80.0007 46.1961C78.8917 48.0414 76.4778 48.6472 74.6139 47.5195H74.6232ZM77.8106 88.6942C76.4685 87.1285 76.571 84.7985 78.0156 83.3633L78.2206 83.1583C79.8423 81.7603 82.3307 81.9187 83.7379 83.5497C85.1545 85.19 84.9775 87.6597 83.3279 89.0856C81.7062 90.4836 79.2365 90.3438 77.8106 88.7035V88.6942ZM90.0195 103.447C88.3419 104.789 85.8722 104.538 84.5208 102.86C83.2533 101.295 83.3745 99.0205 84.7818 97.6225C84.875 97.5293 84.9868 97.4548 85.0986 97.3429C86.7762 96.0009 89.2459 96.2525 90.5973 97.9301C91.958 99.6263 91.6877 102.077 90.0288 103.447H90.0195ZM90.5693 76.6344C88.9104 75.2365 88.6867 72.7574 90.0754 71.1171L90.3177 70.8748C91.7343 69.4582 94.0456 69.3277 95.6113 70.6325C97.2516 72.0118 97.4753 74.4909 96.068 76.1498C94.6887 77.7901 92.2096 78.0138 90.5693 76.6344ZM103.682 90.6327C102.228 92.2357 99.74 92.3289 98.1463 90.8564C96.5806 89.4025 96.4688 86.9328 97.9413 85.3391C97.9786 85.3018 97.9972 85.2459 98.0345 85.2086C99.507 83.7361 101.921 83.6802 103.477 85.1154C105.043 86.5693 105.155 89.039 103.682 90.6327ZM106.599 61.35C105.49 63.1953 103.095 63.8197 101.231 62.6921C99.3672 61.6016 98.7801 59.2065 99.8705 57.3425C100.057 57.0443 100.262 56.8113 100.476 56.5876C101.716 55.3481 103.664 55.0592 105.248 55.9818C107.093 57.0909 107.699 59.5047 106.59 61.35H106.599ZM107.336 42.1699C107.522 41.6573 107.811 41.21 108.184 40.8465C109.255 39.7747 110.896 39.3926 112.406 39.9798C114.419 40.772 115.397 43.0367 114.596 45.0497C113.804 47.0628 111.539 48.0414 109.526 47.2399C107.513 46.4477 106.534 44.183 107.336 42.1699ZM115.36 76.01C114.158 77.7994 111.725 78.2374 109.936 77.0072C108.146 75.805 107.708 73.3725 108.92 71.6018C109.069 71.3781 109.218 71.201 109.386 71.0332C110.691 69.7285 112.778 69.4862 114.344 70.5766C116.152 71.7975 116.59 74.2299 115.36 76.0193V76.01ZM124.801 59.8216C123.86 61.7601 121.502 62.5709 119.563 61.6296C117.643 60.6697 116.814 58.3304 117.774 56.3733C117.979 55.9911 118.221 55.637 118.51 55.3388C119.675 54.1738 121.464 53.829 122.993 54.5839C124.95 55.5438 125.742 57.8831 124.801 59.8216ZM131.753 42.4309C131.11 44.4812 128.892 45.6182 126.851 44.9752C124.782 44.3135 123.664 42.114 124.307 40.073C124.493 39.4486 124.838 38.908 125.267 38.4886C126.283 37.4728 127.774 37.0534 129.228 37.51C131.278 38.1531 132.415 40.3712 131.753 42.4309ZM131.623 27.4354C129.479 27.0999 128.025 25.0961 128.38 22.9339C128.51 22.1045 128.911 21.3682 129.47 20.809C130.337 19.9423 131.595 19.4949 132.862 19.7C134.997 20.0728 136.441 22.0579 136.106 24.2014C135.752 26.3263 133.748 27.7802 131.623 27.4261V27.4354Z" fill="#11664F"/>
<path d="M160.207 119.645C130.644 149.207 130.644 197.13 160.207 226.692C161.791 228.286 163.431 229.777 165.118 231.184C180.403 227.652 194 221.072 205.119 210.634C232.053 185.349 237.067 144.259 231.037 99.4865C206.405 93.6989 179.424 100.428 160.207 119.645Z" fill="#11664F"/>
<path d="M160.207 119.645C130.644 149.207 130.644 197.13 160.207 226.692C161.791 228.286 163.431 229.777 165.118 231.184C180.403 227.652 194 221.072 205.119 210.634C232.053 185.349 237.067 144.259 231.037 99.4865C206.405 93.6989 179.424 100.428 160.207 119.645Z" fill="#125240"/>
<path d="M6.89647 128.014C6.98967 125.861 5.34939 124.035 3.16856 123.923C2.21795 123.858 1.33257 124.184 0.624268 124.734V130.959C1.23005 131.416 1.96631 131.696 2.77713 131.733C4.93 131.863 6.75667 130.186 6.88715 128.024L6.89647 128.014Z" fill="#FAF5F2"/>
<path d="M133.776 9.36435C135.938 9.42027 137.699 7.68679 137.755 5.52461C137.774 3.36242 136.059 1.58235 133.897 1.56371C132.788 1.52643 131.772 1.99242 131.054 2.71004C130.374 3.39038 129.927 4.35032 129.908 5.40345C129.871 7.57496 131.604 9.34571 133.766 9.36435H133.776Z" fill="#FAF5F2"/>
<path d="M20.7829 123.531C19.8416 123.625 18.9935 124.025 18.3691 124.659C17.5769 125.451 17.1296 126.598 17.2414 127.809C17.4651 129.943 19.3663 131.519 21.5005 131.332C23.6627 131.127 25.2471 129.207 25.0421 127.054C24.8184 124.911 22.9358 123.326 20.7829 123.531Z" fill="#FAF5F2"/>
<path d="M132.853 19.6907C131.576 19.4856 130.327 19.933 129.461 20.7997C128.911 21.3496 128.501 22.0858 128.37 22.9246C128.016 25.0775 129.479 27.0905 131.614 27.4261C133.738 27.7802 135.742 26.317 136.096 24.2014C136.432 22.0672 134.987 20.0728 132.853 19.7V19.6907Z" fill="#FAF5F2"/>
<path d="M38.1363 120.596C37.4001 120.782 36.7756 121.146 36.291 121.63C35.3497 122.572 34.9303 123.951 35.2379 125.34C35.7505 127.446 37.8754 128.713 39.9723 128.201C42.0786 127.688 43.3647 125.582 42.8521 123.476C42.3395 121.369 40.2146 120.102 38.127 120.596H38.1363Z" fill="#FAF5F2"/>
<path d="M129.218 37.4914C127.765 37.0254 126.264 37.4541 125.257 38.47C124.829 38.8987 124.484 39.4299 124.298 40.0543C123.654 42.1047 124.773 44.2948 126.842 44.9565C128.892 45.5996 131.101 44.4626 131.744 42.4122C132.406 40.3433 131.269 38.1345 129.218 37.4914Z" fill="#FAF5F2"/>
<path d="M54.8653 115.2C54.3714 115.405 53.9426 115.675 53.5699 116.048C52.4981 117.119 52.116 118.797 52.7218 120.288C53.5326 122.283 55.7973 123.261 57.8103 122.432C59.8234 121.64 60.7834 119.356 59.9539 117.343C59.1431 115.349 56.8784 114.37 54.8653 115.2Z" fill="#FAF5F2"/>
<path d="M122.983 54.5652C121.455 53.8103 119.666 54.1551 118.501 55.3201C118.202 55.6184 117.969 55.9632 117.764 56.3546C116.804 58.3118 117.634 60.651 119.554 61.611C121.492 62.5523 123.85 61.7414 124.792 59.8029C125.733 57.8644 124.941 55.5252 122.983 54.5652Z" fill="#FAF5F2"/>
<path d="M70.653 107.38C70.3548 107.567 70.1031 107.753 69.8608 107.986C68.6213 109.226 68.351 111.155 69.2737 112.749C70.3827 114.594 72.7779 115.218 74.6232 114.109C76.4872 113.019 77.1116 110.624 76.0025 108.741C74.8935 106.896 72.4983 106.271 70.653 107.38Z" fill="#FAF5F2"/>
<path d="M114.335 70.5486C112.769 69.4582 110.681 69.7005 109.377 71.0053C109.209 71.173 109.06 71.3594 108.911 71.5738C107.69 73.3446 108.137 75.777 109.926 76.9793C111.716 78.2188 114.148 77.7714 115.351 75.982C116.581 74.1926 116.143 71.7602 114.335 70.5393V70.5486Z" fill="#FAF5F2"/>
<path d="M85.0893 97.3243C84.9775 97.4361 84.8656 97.5107 84.7724 97.6039C83.3745 99.0019 83.244 101.276 84.5115 102.842C85.8535 104.519 88.3326 104.78 90.0101 103.429C91.6691 102.068 91.9487 99.6076 90.5787 97.9114C89.2366 96.2339 86.7575 95.9729 85.08 97.3243H85.0893Z" fill="#FAF5F2"/>
<path d="M98.0345 85.19C98.0345 85.19 97.9786 85.2832 97.9413 85.3204C96.4688 86.9048 96.5806 89.3745 98.1463 90.8377C99.7307 92.3103 102.219 92.2171 103.682 90.6141C105.155 89.0297 105.043 86.56 103.477 85.0968C101.93 83.6615 99.5163 83.7174 98.0345 85.19Z" fill="#FAF5F2"/>
<path d="M3.327 112.562C3.48544 110.717 2.3391 109.058 0.633587 108.508V115.936C2.07815 115.47 3.16856 114.174 3.327 112.562Z" fill="#FAF5F2"/>
<path d="M118.174 13.3439C120.327 13.4744 122.173 11.8154 122.303 9.65326C122.415 7.47244 120.775 5.65508 118.594 5.54325C117.448 5.46869 116.376 5.91604 115.621 6.67094C114.959 7.33264 114.53 8.23666 114.475 9.25251C114.363 11.3867 116.022 13.2321 118.165 13.3439H118.174Z" fill="#FAF5F2"/>
<path d="M20.8575 112.133C20.7084 109.99 18.8444 108.35 16.6915 108.517C15.713 108.573 14.8462 108.993 14.2032 109.645C13.4296 110.419 12.9636 111.509 13.0568 112.674C13.206 114.845 15.0699 116.458 17.2228 116.327C19.3756 116.16 21.0252 114.296 20.8575 112.143V112.133Z" fill="#FAF5F2"/>
<path d="M115.22 30.6414C117.326 31.0794 119.405 29.7746 119.871 27.6497C120.337 25.5341 118.985 23.4465 116.879 22.9992C115.537 22.6823 114.186 23.1483 113.282 24.0523C112.769 24.5649 112.378 25.2173 112.21 25.9722C111.753 28.0971 113.095 30.1754 115.22 30.6414Z" fill="#FAF5F2"/>
<path d="M38.1177 108.927C37.6237 106.803 35.5175 105.516 33.4112 105.992C32.6749 106.178 32.0319 106.523 31.5286 107.026C30.606 107.949 30.1866 109.328 30.4755 110.698C30.9881 112.804 33.0757 114.109 35.2006 113.615C37.3069 113.14 38.593 111.034 38.1177 108.927Z" fill="#FAF5F2"/>
<path d="M114.596 45.0311C115.388 43.018 114.409 40.7533 112.406 39.9611C110.896 39.374 109.255 39.7561 108.184 40.8279C107.811 41.2007 107.522 41.6387 107.336 42.1513C106.543 44.1644 107.522 46.4291 109.526 47.2212C111.539 48.0134 113.804 47.0348 114.596 45.0311Z" fill="#FAF5F2"/>
<path d="M54.623 102.972C53.8122 100.978 51.5288 100.018 49.5158 100.847C49.0218 101.052 48.5931 101.332 48.2483 101.677C47.1579 102.767 46.7757 104.445 47.4002 105.954C48.211 107.949 50.4943 108.909 52.5074 108.079C54.5018 107.268 55.4618 104.985 54.623 102.972Z" fill="#FAF5F2"/>
<path d="M105.248 55.9632C103.664 55.0405 101.706 55.3388 100.476 56.569C100.253 56.7926 100.048 57.0256 99.8705 57.3239C98.7801 59.1878 99.3765 61.583 101.231 62.6734C103.095 63.8011 105.49 63.1674 106.599 61.3314C107.708 59.486 107.093 57.0722 105.257 55.9632H105.248Z" fill="#FAF5F2"/>
<path d="M69.9633 94.4538C68.8356 92.5899 66.4218 92.0214 64.5765 93.1584C64.3156 93.3075 64.0826 93.5125 63.8589 93.7269C62.6194 94.9664 62.3304 96.9515 63.309 98.5266C64.4367 100.391 66.8505 100.959 68.6958 99.8127C70.5412 98.6664 71.091 96.2712 69.9726 94.4445L69.9633 94.4538Z" fill="#FAF5F2"/>
<path d="M95.602 70.6232C94.0363 69.3184 91.725 69.4396 90.3084 70.8655L90.0661 71.1078C88.6867 72.7481 88.9011 75.2178 90.56 76.6251C92.2003 78.0044 94.67 77.7901 96.0587 76.1405C97.4566 74.4816 97.2423 72.0118 95.602 70.6232Z" fill="#FAF5F2"/>
<path d="M83.7286 83.531C82.3307 81.9094 79.833 81.7417 78.2113 83.1396L78.0063 83.3447C76.571 84.7799 76.4592 87.1098 77.8013 88.6756C79.2179 90.3158 81.6876 90.465 83.3186 89.0577C84.9588 87.6411 85.1452 85.1713 83.7286 83.5217V83.531Z" fill="#FAF5F2"/>
<path d="M6.02973 93.3634C4.8834 93.3261 3.85823 93.7735 3.11265 94.5097C2.4323 95.1901 2.00359 96.0941 1.96631 97.1286C1.89176 99.3001 3.55067 101.108 5.7315 101.183C7.89368 101.276 9.71104 99.5983 9.7856 97.4175C9.86016 95.274 8.1826 93.4566 6.02041 93.3634H6.02973Z" fill="#FAF5F2"/>
<path d="M103.309 6.04651C105.462 6.02787 107.186 4.23848 107.168 2.08561C107.159 1.31207 106.916 0.603771 106.515 -0.00201416H99.9637C99.5536 0.62241 99.3206 1.37731 99.3392 2.18813C99.3579 4.35032 101.129 6.08379 103.3 6.04651H103.309Z" fill="#FAF5F2"/>
<path d="M22.2088 92.5339C21.3421 92.6644 20.5872 93.0465 20.0001 93.643C19.1706 94.4725 18.7233 95.6934 18.891 96.9608C19.2079 99.123 21.193 100.596 23.3179 100.279C25.4614 99.9804 26.9526 98.014 26.6357 95.8518C26.3375 93.7176 24.3524 92.2357 22.2088 92.5339Z" fill="#FAF5F2"/>
<path d="M101.334 22.8501C103.477 23.2228 105.481 21.7596 105.835 19.6441C106.189 17.5191 104.745 15.4968 102.629 15.1426C101.343 14.9189 100.066 15.3849 99.2181 16.233C98.6496 16.8015 98.2581 17.5191 98.1277 18.3579C97.7549 20.5015 99.2181 22.5052 101.334 22.8594V22.8501Z" fill="#FAF5F2"/>
<path d="M37.9872 88.806C37.3814 89.0111 36.8595 89.3373 36.4588 89.7473C35.4429 90.7632 35.0422 92.3103 35.4988 93.7642C36.1792 95.8145 38.3973 96.9142 40.4383 96.2339C42.5073 95.5349 43.607 93.3168 42.9267 91.2758C42.2463 89.2254 40.0282 88.1257 37.9872 88.806Z" fill="#FAF5F2"/>
<path d="M96.3942 39.0385C98.4259 39.7747 100.672 38.703 101.39 36.6619C102.126 34.6302 101.073 32.4028 99.0317 31.6852C97.5778 31.154 95.9934 31.5547 94.9589 32.5892C94.5489 32.9993 94.2413 33.4559 94.0363 34.0245C93.3 36.0562 94.3718 38.3022 96.3942 39.0385Z" fill="#FAF5F2"/>
<path d="M52.815 82.3195C52.4794 82.5059 52.1905 82.7296 51.9296 82.9812C50.7273 84.1834 50.4198 86.0753 51.2679 87.6317C52.321 89.533 54.6975 90.2133 56.5988 89.1602C58.4814 88.1257 59.1617 85.7492 58.1459 83.8479C57.0927 81.9467 54.7162 81.2663 52.815 82.3195Z" fill="#FAF5F2"/>
<path d="M87.82 47.9109C87.5777 48.1532 87.3633 48.4049 87.2142 48.7031C86.1052 50.5857 86.7576 52.9622 88.6122 54.0526C90.4761 55.143 92.8713 54.5093 93.9617 52.6547C95.0335 50.7721 94.3998 48.3769 92.5451 47.2865C90.9794 46.3825 89.0409 46.6993 87.82 47.9109Z" fill="#FAF5F2"/>
<path d="M71.1842 79.2906C72.8431 77.9299 73.1041 75.4508 71.7341 73.7919C70.3548 72.1143 67.8943 71.872 66.2354 73.242C66.1236 73.3166 66.0304 73.4098 65.9372 73.503C64.5206 74.9196 64.3901 77.1936 65.6762 78.7407C67.0183 80.4182 69.4973 80.6792 71.1749 79.2906H71.1842Z" fill="#FAF5F2"/>
<path d="M78.2486 67.4358C79.8889 68.8151 82.3586 68.6381 83.7845 66.9978C85.1639 65.3575 84.9868 62.8878 83.3186 61.4805C81.7715 60.1571 79.4602 60.2503 78.0249 61.6855C77.9504 61.7601 77.8758 61.8346 77.8013 61.9092L77.8199 61.9278C76.4219 63.5495 76.599 66.0192 78.2486 67.4451V67.4358Z" fill="#FAF5F2"/>
<path d="M88.025 1.23751C89.0409 1.16296 89.9169 0.687649 90.56 -0.00201416H84.8936C85.6765 0.827445 86.8041 1.33071 88.025 1.23751Z" fill="#FAF5F2"/>
<path d="M8.64859 78.1349C7.55817 78.1163 6.54232 78.545 5.8247 79.2626C5.10708 79.9802 4.69701 80.9402 4.67837 81.9933C4.65973 84.1555 6.3932 85.9169 8.55539 85.9355C10.7269 85.9728 12.479 84.258 12.5163 82.0772C12.5349 79.9243 10.8015 78.1535 8.63927 78.1349H8.64859Z" fill="#FAF5F2"/>
<path d="M86.8228 17.4819C88.957 17.7428 90.9142 16.2237 91.1938 14.1081C91.4734 11.9552 89.9542 9.99809 87.82 9.69986C86.5618 9.55075 85.3875 9.99809 84.5581 10.8276C83.9709 11.4147 83.5422 12.2069 83.4304 13.0923C83.1694 15.2265 84.6699 17.2023 86.8228 17.4819Z" fill="#FAF5F2"/>
<path d="M24.0542 76.709C23.2806 76.8581 22.5816 77.2216 22.0411 77.7621C21.1557 78.6475 20.7177 79.9709 20.9693 81.3036C21.398 83.4285 23.4577 84.7892 25.564 84.3792C27.6795 83.9504 29.0682 81.9094 28.6395 79.7845C28.2108 77.6596 26.1697 76.2803 24.0448 76.709H24.0542Z" fill="#FAF5F2"/>
<path d="M82.2841 33.1204C84.3344 33.8381 86.5618 32.7476 87.2608 30.7253C87.9784 28.6749 86.888 26.4475 84.8656 25.7485C83.3931 25.2359 81.846 25.6367 80.8115 26.6712C80.4015 27.0812 80.0939 27.5752 79.8889 28.1437C79.1713 30.194 80.2617 32.4215 82.2841 33.1204Z" fill="#FAF5F2"/>
<path d="M38.798 72.1423C38.3414 72.3473 37.9313 72.6362 37.5958 72.9718C36.4867 74.0808 36.1046 75.7584 36.7477 77.2868C37.6144 79.2626 39.8978 80.1852 41.8922 79.3372C43.8866 78.4891 44.7906 76.1871 43.9425 74.1926C43.1131 72.2169 40.7925 71.2942 38.798 72.1423Z" fill="#FAF5F2"/>
<path d="M80.0007 46.1681C81.1098 44.3228 80.5319 41.909 78.6866 40.7999C77.1023 39.84 75.1265 40.1196 73.8776 41.3684C73.654 41.5921 73.4676 41.8531 73.3091 42.1233C72.2001 43.9686 72.7965 46.3638 74.6232 47.4915C76.4872 48.6192 78.901 48.0041 80.01 46.1681H80.0007Z" fill="#FAF5F2"/>
<path d="M52.321 64.5933C52.1346 64.7424 51.9482 64.8915 51.8084 65.0313C50.485 66.3547 50.28 68.4796 51.3704 70.0453C52.6286 71.8161 55.0797 72.2355 56.8318 71.0053C58.6025 69.7471 59.0033 67.3147 57.7917 65.5439C56.5335 63.7731 54.1011 63.3724 52.3303 64.584L52.321 64.5933Z" fill="#FAF5F2"/>
<path d="M69.6931 59.8029C71.1656 58.2186 71.091 55.7488 69.5067 54.267C67.9596 52.8317 65.5644 52.869 64.0639 54.3602C64.0453 54.3788 64.008 54.4161 63.9707 54.4534C62.4982 56.0377 62.5914 58.4888 64.1571 59.9893C65.7415 61.4618 68.2299 61.3686 69.6931 59.8029Z" fill="#FAF5F2"/>
<path d="M7.43702 70.6045C9.58988 70.6605 11.3979 68.9643 11.4725 66.8207C11.547 64.6492 9.85084 62.8412 7.68865 62.7853C6.54232 62.748 5.53578 63.1767 4.7902 63.9129C4.10986 64.5933 3.68115 65.5346 3.64387 66.5691C3.58795 68.7313 5.26551 70.5113 7.4277 70.6045H7.43702Z" fill="#FAF5F2"/>
<path d="M71.8086 14.5648C73.9615 14.8071 75.8814 13.26 76.1423 11.1165C76.3846 8.9636 74.8469 7.02509 72.694 6.78278C71.4545 6.6523 70.3175 7.09965 69.5067 7.91047C68.9009 8.51625 68.4722 9.30843 68.3603 10.2311C68.118 12.384 69.6651 14.3038 71.8086 14.5648Z" fill="#FAF5F2"/>
<path d="M22.302 61.4246C21.5471 61.5923 20.8854 61.9558 20.3635 62.4777C19.4409 63.4004 19.0215 64.7424 19.2918 66.0938C19.7671 68.1907 21.8547 69.5421 23.9796 69.0854C26.0859 68.6101 27.4093 66.5411 26.9526 64.4162C26.4959 62.2913 24.4083 60.9865 22.302 61.4246Z" fill="#FAF5F2"/>
<path d="M67.2233 29.523C69.255 30.2965 71.5011 29.2621 72.256 27.2583C73.0295 25.2266 71.995 22.9805 69.9726 22.207C68.5001 21.6571 66.8971 22.0392 65.8253 23.111C65.4526 23.4838 65.1637 23.9591 64.9586 24.4903C64.1851 26.522 65.2196 28.7681 67.2233 29.523Z" fill="#FAF5F2"/>
<path d="M36.1139 56.541C35.7411 56.7274 35.3963 56.9604 35.0981 57.2586C33.9331 58.4236 33.6069 60.2316 34.3805 61.7787C35.359 63.7172 37.6983 64.5094 39.6368 63.5308C41.5753 62.5523 42.3489 60.1944 41.3516 58.2745C40.4103 56.336 38.0524 55.5624 36.1139 56.541Z" fill="#FAF5F2"/>
<path d="M64.5113 41.9276C65.7694 40.1569 65.3221 37.7244 63.5327 36.4849C61.9856 35.3758 59.8607 35.6181 58.5559 36.9322C58.3882 37.1 58.2204 37.2677 58.1179 37.4448C56.8597 39.2156 57.3071 41.648 59.0778 42.9062C60.8486 44.1271 63.2997 43.6984 64.5206 41.9276H64.5113Z" fill="#FAF5F2"/>
<path d="M53.4301 54.267C55.0517 52.869 55.2195 50.3806 53.8215 48.7497C52.4049 47.1094 49.9072 46.9416 48.2856 48.3396L48.0805 48.5446C46.6453 49.9799 46.5521 52.3285 47.9128 53.8756C49.3107 55.4972 51.7898 55.6836 53.4301 54.267Z" fill="#FAF5F2"/>
<path d="M6.68212 51.4804C6.99899 49.3182 5.49851 47.3517 3.36428 47.0535C2.37638 46.9044 1.41645 47.156 0.642907 47.6779V54.1458C1.11822 54.4627 1.65876 54.705 2.26455 54.7982C4.40809 55.0964 6.3932 53.6146 6.69144 51.4804H6.68212Z" fill="#FAF5F2"/>
<path d="M56.3565 14.0895C58.5 14.3877 60.4665 12.8872 60.7647 10.753C61.0629 8.61877 59.5625 6.64298 57.4469 6.32611C56.1701 6.15835 54.9585 6.6057 54.129 7.43516C53.5419 8.0223 53.1505 8.77721 53.0386 9.66258C52.7218 11.8248 54.2222 13.7912 56.3565 14.0895Z" fill="#FAF5F2"/>
<path d="M18.4623 54.5652C20.6058 54.1924 22.0224 52.1514 21.6497 50.0451C21.2769 47.9109 19.2545 46.4663 17.1296 46.8578C16.3001 46.9882 15.5825 47.3704 15.0233 47.9295C14.1566 48.7963 13.6999 50.0731 13.9329 51.3779C14.3057 53.5214 16.3094 54.938 18.453 54.5652H18.4623Z" fill="#FAF5F2"/>
<path d="M50.8112 28.0412C52.7684 29.0011 55.089 28.1903 56.0303 26.2518C56.9902 24.2946 56.1794 21.974 54.2409 21.0327C52.7124 20.2778 50.923 20.6226 49.7767 21.769C49.4598 22.0858 49.2082 22.412 49.0218 22.8221C48.0619 24.7792 48.8727 27.0999 50.8112 28.0412Z" fill="#FAF5F2"/>
<path d="M33.8026 49.2902C35.7225 48.293 36.4401 45.9165 35.4243 44.0152C34.4084 42.114 32.0505 41.3778 30.1306 42.375C29.7765 42.58 29.4689 42.8223 29.208 43.0739C28.0057 44.2762 27.6795 46.1215 28.509 47.6872C29.5249 49.5885 31.9014 50.3061 33.8026 49.2902Z" fill="#FAF5F2"/>
<path d="M46.636 33.9872C45.1075 32.5333 42.6564 32.5519 41.1559 34.0431C41.1373 34.0617 41.1186 34.0804 41.1 34.099C39.6088 35.6647 39.6461 38.1345 41.2118 39.6349C42.7589 41.1448 45.2473 41.0888 46.7291 39.5418C48.2389 37.9947 48.183 35.5063 46.636 33.9872Z" fill="#FAF5F2"/>
<path d="M42.2557 1.71282C43.3647 1.51711 44.278 0.874044 44.8466 -0.00201416H38.3134C39.1429 1.26547 40.6713 1.99242 42.2557 1.71282Z" fill="#FAF5F2"/>
<path d="M8.81634 32.1698C7.69797 32.1419 6.6728 32.5799 5.93653 33.3162C5.25619 33.9965 4.82748 34.9285 4.7902 35.9723C4.72497 38.1345 6.42116 39.9332 8.58335 39.9984C10.7455 40.0637 12.5442 38.3675 12.6095 36.2053C12.6747 34.0431 10.9785 32.2444 8.81634 32.1791V32.1698Z" fill="#FAF5F2"/>
<path d="M39.8884 15.9161C41.9761 16.4847 44.1196 15.2544 44.6881 13.1761C45.2566 11.0885 44.0264 8.94496 41.9481 8.37646C40.5408 7.99435 39.1056 8.42305 38.1456 9.38299C37.6797 9.84898 37.3255 10.4361 37.1391 11.1165C36.5706 13.1948 37.8008 15.3476 39.8791 15.9161H39.8884Z" fill="#FAF5F2"/>
<path d="M21.1557 29.756C20.699 29.9517 20.3076 30.2313 19.9721 30.5668C18.8631 31.6759 18.4903 33.4 19.1613 34.9192C20.0373 36.8949 22.3486 37.7896 24.3244 36.9136C26.3002 36.0375 27.1949 33.7262 26.3189 31.7504C25.4428 29.7746 23.1315 28.8799 21.1557 29.756Z" fill="#FAF5F2"/>
<path d="M37.1764 27.3235C38.5837 25.6833 38.3973 23.2135 36.757 21.8062C35.1913 20.4642 32.88 20.576 31.4447 22.002C31.3702 22.0765 31.3049 22.1418 31.2397 22.2256C29.8324 23.8659 30.0188 26.3356 31.6591 27.7429C33.2994 29.1502 35.7691 28.9638 37.1764 27.3235Z" fill="#FAF5F2"/>
<path d="M0.633587 13.1948V17.7055C1.59352 16.3728 1.59352 14.5555 0.633587 13.1948Z" fill="#FAF5F2"/>
<path d="M22.8519 2.99895C22.9265 5.16114 24.7438 6.84801 26.906 6.76414C29.0589 6.68958 30.7458 4.87222 30.6712 2.71004C30.6339 1.63826 30.1586 0.678329 29.4317 -0.00201416H24.1101C24.1101 -0.00201416 24.0355 0.0539044 23.9982 0.0911835C23.262 0.827445 22.8146 1.87126 22.8612 2.99895H22.8519Z" fill="#FAF5F2"/>
<path d="M6.97103 18.0131C6.26273 18.7214 5.8247 19.7 5.8247 20.7904C5.8247 22.9526 7.58613 24.6954 9.74832 24.6954C11.9105 24.6954 13.6533 22.9339 13.6533 20.7717C13.6533 18.6189 11.8919 16.8668 9.72968 16.8668C8.64859 16.8668 7.67933 17.3048 6.97103 18.0131Z" fill="#FAF5F2"/>
<path d="M24.8929 18.1156C26.3748 16.5406 26.3002 14.0708 24.7252 12.589C23.1781 11.1351 20.7643 11.1724 19.2824 12.6635C19.2545 12.6915 19.2265 12.7195 19.1986 12.7474C17.7167 14.3225 17.7913 16.7922 19.3663 18.274C20.9414 19.7559 23.4111 19.6813 24.8929 18.1063V18.1156Z" fill="#FAF5F2"/>
<path d="M5.20027 7.85455C5.20027 7.85455 5.25619 7.91047 5.28415 7.93843C6.86851 9.40163 9.34757 9.29911 10.8108 7.71475C12.2553 6.14903 12.1715 3.71657 10.643 2.24405C10.6244 2.22541 10.6057 2.20677 10.5964 2.18813L10.5778 2.16949C9.04002 0.706288 6.61688 0.724928 5.11639 2.23473C3.61591 3.74453 3.58795 6.24223 5.11639 7.77067C5.14435 7.79863 5.17231 7.83591 5.20959 7.86387L5.20027 7.85455Z" fill="#FAF5F2"/>
</svg>

        </g>
      </g>
    </g>
  </g>
</svg>

