<?xml version="1.0" encoding="UTF-8"?>
<svg xmlns="http://www.w3.org/2000/svg" viewBox="0 0 249.67 251.59">
  <defs>
    <style>
      .cls-1 {
        mix-blend-mode: multiply;
      }

      .cls-1, .cls-2, .cls-3 {
        stroke-width: 0px;
      }

      .cls-1, .cls-3 {
        fill: #2828f8;
      }

      .cls-4 {
        isolation: isolate;
      }

      .cls-2 {
        fill: #faf5f2;
      }
    </style>
  </defs>
  <g class="cls-4">
    <g id="Layer_2" data-name="Layer 2">
      <g id="_Content" data-name="     Content">
        <g>
          <path class="cls-3" d="m176.11,248.15c.13-.03.25-.06.38-.09-1.81-1.51-3.57-3.11-5.27-4.82-31.72-31.72-31.72-83.14,0-114.86,20.62-20.62,49.57-27.84,76-21.63-.01-.11-.02-.23-.04-.34-4.76-35.08-15.82-72.24-28.66-106.41h-104.92c.42.64.68,1.41.7,2.24.02,2.31-1.82,4.23-4.14,4.25-2.33.04-4.23-1.82-4.25-4.14-.03-.87.22-1.68.67-2.35h-10.09c-.69.74-1.63,1.24-2.72,1.33-1.32.1-2.52-.43-3.36-1.33h-42.96c-.61.94-1.59,1.63-2.78,1.84-1.7.3-3.34-.48-4.23-1.84h-9.53c.78.73,1.29,1.76,1.33,2.91.09,2.32-1.72,4.27-4.04,4.35-2.32.09-4.26-1.72-4.35-4.04-.05-1.21.43-2.33,1.22-3.12.04-.04.08-.06.12-.1h-15.19C4.48,0,0,4.48,0,10v4.16c1.03,1.46,1.03,3.4,0,4.84v32.17c.84-.56,1.87-.83,2.92-.67,2.3.32,3.9,2.43,3.56,4.75-.32,2.29-2.45,3.88-4.75,3.56-.65-.1-1.23-.35-1.74-.7v58.31c1.83.59,3.06,2.38,2.89,4.35-.16,1.73-1.34,3.12-2.89,3.62v9.44c.76-.58,1.7-.93,2.73-.87,2.33.12,4.1,2.08,4,4.39-.14,2.32-2.1,4.12-4.41,3.98-.87-.04-1.66-.34-2.31-.83v75.48c58.07,24.37,125.52,43.72,176.11,32.16ZM139.95,2.91c.77-.77,1.86-1.27,3.05-1.23,2.31.02,4.16,1.94,4.14,4.25-.06,2.31-1.96,4.17-4.27,4.12-2.31-.02-4.17-1.92-4.14-4.25.02-1.13.5-2.16,1.23-2.89Zm-16.56,4.25c.81-.81,1.96-1.29,3.19-1.21,2.33.12,4.1,2.08,3.98,4.41-.14,2.31-2.12,4.1-4.43,3.96-2.3-.12-4.08-2.1-3.96-4.39.06-1.09.52-2.06,1.23-2.77Zm-3.66,20.72c.18-.81.59-1.5,1.15-2.06.97-.97,2.41-1.46,3.86-1.13,2.26.48,3.7,2.71,3.21,4.99-.49,2.28-2.73,3.68-4.99,3.21-2.28-.49-3.72-2.73-3.23-5.01Zm-15.12-8.19c.14-.89.55-1.66,1.17-2.28.91-.91,2.28-1.41,3.66-1.17,2.28.38,3.82,2.55,3.44,4.83-.38,2.28-2.53,3.84-4.83,3.44-2.28-.38-3.84-2.53-3.44-4.83Zm-4.39,16.82c.22-.61.55-1.11.99-1.54,1.11-1.11,2.81-1.54,4.37-.97,2.2.77,3.32,3.17,2.53,5.34-.77,2.2-3.19,3.34-5.36,2.55s-3.32-3.21-2.53-5.38Zm-.08,19.98c-1.17,2-3.74,2.67-5.74,1.5-2-1.17-2.69-3.72-1.5-5.74.16-.32.4-.59.65-.85,1.31-1.31,3.38-1.64,5.07-.67,2,1.17,2.67,3.74,1.52,5.76Zm-11.3-42.44c.12-.95.57-1.8,1.21-2.43.89-.89,2.16-1.37,3.5-1.21,2.3.32,3.92,2.41,3.62,4.73-.3,2.28-2.39,3.9-4.69,3.62-2.32-.3-3.92-2.41-3.64-4.71Zm-3.8,16.15c.22-.61.55-1.15.99-1.58,1.11-1.11,2.77-1.54,4.35-.99,2.18.75,3.34,3.15,2.57,5.34-.75,2.18-3.15,3.34-5.34,2.57-2.18-.75-3.34-3.15-2.57-5.34Zm-2.24,36.23c.08-.08.16-.16.24-.24,1.54-1.54,4.02-1.64,5.68-.22,1.78,1.5,1.98,4.16.5,5.92-1.52,1.76-4.18,1.96-5.94.47-1.76-1.52-1.96-4.17-.46-5.92l-.02-.02Zm-10.13-55.44c.12-.99.57-1.84,1.23-2.49.87-.87,2.1-1.35,3.42-1.21,2.31.26,3.96,2.33,3.7,4.65-.28,2.3-2.34,3.96-4.65,3.7-2.3-.28-3.96-2.33-3.7-4.65Zm-2.59,67.89c.1-.1.2-.2.32-.28,1.78-1.46,4.41-1.21,5.9.59,1.46,1.78,1.19,4.43-.59,5.9-1.8,1.48-4.45,1.21-5.9-.59-1.39-1.66-1.25-4.1.28-5.62Zm-1.92-14.5c-1.68-1.6-1.78-4.23-.2-5.94.04-.04.08-.08.1-.1,1.6-1.6,4.17-1.64,5.84-.1,1.7,1.58,1.78,4.23.2,5.94-1.56,1.68-4.23,1.78-5.94.2Zm.85-38.09c.22-.57.53-1.09.93-1.48,1.15-1.15,2.87-1.56,4.45-.97,2.18.83,3.29,3.25,2.45,5.42-.81,2.16-3.23,3.26-5.4,2.43-2.16-.81-3.26-3.23-2.43-5.4Zm-12.78-15.91c.12-.95.53-1.76,1.17-2.39.89-.89,2.2-1.36,3.56-1.19,2.28.34,3.88,2.45,3.56,4.75s-2.43,3.9-4.73,3.58c-2.3-.32-3.9-2.43-3.56-4.75Zm4.06,65.83c-1.88,1.33-4.51.87-5.86-1.03-1.17-1.68-.95-3.96.47-5.38.16-.16.36-.32.55-.47,1.9-1.31,4.51-.87,5.86,1.03,1.31,1.9.87,4.51-1.03,5.86Zm-.24,19.47c-2.04,1.13-4.59.4-5.72-1.64-.91-1.66-.57-3.7.71-4.99.28-.28.59-.51.95-.71,2.04-1.13,4.59-.4,5.72,1.64,1.09,2.04.36,4.59-1.66,5.7Zm-8.13-71.17c.2-.44.48-.79.81-1.13,1.23-1.23,3.15-1.6,4.79-.79,2.08,1.01,2.95,3.5,1.92,5.6-1.01,2.08-3.5,2.95-5.6,1.92-2.08-1.01-2.95-3.5-1.92-5.6Zm-12.75-12.56c.2-.73.58-1.36,1.08-1.86,1.03-1.03,2.57-1.49,4.08-1.08,2.23.61,3.55,2.92,2.94,5.15h0c-.61,2.24-2.91,3.55-5.15,2.94-2.24-.61-3.55-2.92-2.94-5.15Zm-6.33,11.92c.07-.08.14-.16.22-.24,1.54-1.54,4.02-1.65,5.7-.21,1.76,1.51,1.96,4.16.45,5.92h0c-1.51,1.76-4.16,1.96-5.92.45-1.76-1.51-1.96-4.16-.45-5.92Zm10.85,38.67c1.07,2.06.24,4.59-1.84,5.64s-4.59.2-5.64-1.88c-.83-1.66-.47-3.6.77-4.85.32-.32.69-.57,1.09-.77,2.08-1.05,4.61-.22,5.62,1.86Zm-15.45,6.59c.49,2.28-.93,4.49-3.19,5.01-2.28.49-4.51-.95-5.03-3.21-.3-1.45.16-2.89,1.15-3.88.55-.55,1.27-.95,2.08-1.13,2.26-.47,4.49.93,4.99,3.21Zm-2.81-29.51c-2.12.94-4.6-.02-5.54-2.14-.72-1.63-.32-3.48.87-4.67.35-.35.78-.65,1.27-.87,2.12-.94,4.6.02,5.54,2.14.94,2.12-.02,4.6-2.14,5.54Zm-5.5-25.92s.06-.06.09-.09c1.6-1.6,4.19-1.64,5.84-.08,1.69,1.59,1.77,4.24.18,5.93h0c-1.59,1.69-4.24,1.76-5.93.17-1.69-1.59-1.76-4.25-.18-5.93Zm-4.47,37.74c.59-.59,1.37-1.01,2.26-1.15,2.28-.42,4.45,1.13,4.85,3.42.4,2.26-1.13,4.45-3.42,4.85-2.3.4-4.45-1.13-4.85-3.42-.26-1.4.24-2.77,1.17-3.7Zm-1.48-29.14c0,2.32-1.87,4.2-4.19,4.21-2.32,0-4.2-1.87-4.21-4.19,0-1.16.47-2.22,1.23-2.98.76-.76,1.8-1.23,2.96-1.23,2.32,0,4.2,1.87,4.21,4.19ZM4.81,2.4c1.61-1.61,4.22-1.64,5.86-.07l.02.02s.04.04.05.06c0,0,0,0,0,0,1.65,1.58,1.73,4.18.18,5.87-1.57,1.7-4.23,1.81-5.93.24-.03-.03-.06-.06-.09-.09-.03-.03-.06-.06-.1-.1-1.64-1.64-1.64-4.3,0-5.94Zm-.34,66.19c.79-.79,1.88-1.25,3.11-1.21,2.31.06,4.14,2,4.06,4.33-.08,2.29-2.02,4.12-4.33,4.06-2.32-.1-4.12-2.02-4.06-4.33.04-1.11.49-2.12,1.23-2.85Zm1.01,39.99c-2.33-.08-4.12-2.02-4.04-4.35.04-1.11.49-2.08,1.23-2.81.79-.79,1.9-1.27,3.13-1.23,2.32.1,4.12,2.06,4.04,4.35-.08,2.33-2.04,4.13-4.35,4.04Zm3.03-16.36c-2.31-.02-4.18-1.92-4.16-4.23.02-1.13.47-2.18,1.23-2.93s1.86-1.23,3.03-1.21c2.31.02,4.17,1.92,4.16,4.23-.04,2.33-1.92,4.17-4.25,4.14Zm.03-49.3c-2.32-.07-4.14-2-4.07-4.32.03-1.11.5-2.12,1.23-2.85.79-.79,1.89-1.26,3.09-1.23,2.32.07,4.14,2,4.07,4.32-.07,2.32-2,4.14-4.32,4.07Zm4.8,77.99c-.1-1.25.4-2.41,1.23-3.25.69-.69,1.62-1.15,2.67-1.21,2.31-.18,4.31,1.58,4.47,3.88.18,2.31-1.58,4.31-3.9,4.49-2.31.14-4.31-1.58-4.47-3.92Zm9.06,20.02c-2.29.2-4.33-1.48-4.57-3.78-.12-1.31.36-2.53,1.21-3.38.67-.67,1.58-1.11,2.59-1.21,2.32-.22,4.33,1.48,4.57,3.78.22,2.31-1.48,4.37-3.8,4.59Zm1.94-33.32c-2.28.34-4.41-1.25-4.75-3.56-.18-1.37.3-2.67,1.19-3.56.63-.63,1.44-1.05,2.37-1.19,2.3-.32,4.43,1.27,4.75,3.56.34,2.32-1.27,4.43-3.56,4.75Zm2.41-17.06c-2.26.44-4.47-1.03-4.93-3.3-.28-1.42.2-2.85,1.15-3.8.57-.57,1.33-.97,2.16-1.13,2.28-.46,4.47,1.03,4.93,3.3.46,2.28-1.03,4.47-3.3,4.93Zm3.17-39.38c-.89-1.68-.53-3.66.75-4.95.28-.28.61-.53.99-.75,2.06-1.07,4.59-.28,5.68,1.76s.32,4.59-1.74,5.66c-2.04,1.09-4.59.32-5.68-1.72Zm2.12,67.61c-.32-1.46.14-2.95,1.13-3.94.53-.53,1.23-.91,2.02-1.11,2.26-.51,4.51.87,5.05,3.15.51,2.26-.87,4.51-3.13,5.03-2.28.53-4.51-.87-5.07-3.13Zm10.19,18.78c-2.26.55-4.53-.81-5.08-3.07-.34-1.48.12-2.97,1.13-3.98.51-.51,1.19-.91,1.98-1.11,2.24-.53,4.51.83,5.07,3.09.55,2.26-.83,4.51-3.09,5.07Zm.49-34.29c-2.2.73-4.57-.46-5.3-2.65-.49-1.56-.06-3.23,1.03-4.31.44-.44.99-.79,1.64-1.01,2.2-.73,4.57.46,5.3,2.65.73,2.2-.46,4.57-2.67,5.32Zm1.56-18.14c-2.14.91-4.59-.08-5.52-2.2-.69-1.64-.28-3.44.91-4.63.36-.36.79-.67,1.29-.89,2.14-.91,4.63.08,5.52,2.2.91,2.14-.06,4.61-2.2,5.52Zm-.73-42.6c-1.68-1.6-1.72-4.25-.12-5.94.02-.02.04-.04.06-.06,1.6-1.6,4.23-1.62,5.88-.06,1.66,1.62,1.72,4.29.1,5.96-1.58,1.66-4.25,1.72-5.92.1Zm7.36,9.58l.22-.22c1.74-1.5,4.41-1.33,5.94.44,1.5,1.74,1.33,4.41-.42,5.92-1.76,1.52-4.41,1.33-5.92-.42-1.46-1.66-1.37-4.18.18-5.72Zm-.73,61.6c-.67-1.62-.26-3.42.91-4.59.38-.38.83-.67,1.36-.89,2.16-.89,4.61.14,5.48,2.28.89,2.16-.14,4.61-2.27,5.48-2.16.89-4.61-.14-5.48-2.28Zm11.18,17.67c-2.16.89-4.59-.16-5.46-2.3-.65-1.6-.24-3.4.91-4.55.4-.4.85-.69,1.39-.91,2.16-.89,4.59.16,5.46,2.3.89,2.16-.14,4.61-2.3,5.46Zm1.35-85.32c-1.9-1.35-2.38-3.96-1.03-5.86.12-.2.3-.38.47-.55,1.4-1.4,3.68-1.66,5.34-.48,1.92,1.33,2.39,3.94,1.05,5.84-1.31,1.9-3.94,2.35-5.84,1.05Zm4.55,59.68c-1.05-1.68-.73-3.82.59-5.15.24-.24.49-.45.77-.61,1.98-1.23,4.57-.61,5.78,1.39,1.21,1.96.61,4.53-1.37,5.76-1.98,1.23-4.57.61-5.78-1.38Zm12.13,16.72c-1.98,1.19-4.55.51-5.74-1.46-.99-1.7-.69-3.78.63-5.11.26-.26.53-.46.85-.65,1.98-1.19,4.55-.51,5.74,1.46,1.19,2.02.51,4.59-1.48,5.76Zm0-71.47c-1.96-1.21-2.59-3.78-1.41-5.76.18-.3.38-.57.61-.81,1.34-1.35,3.46-1.64,5.16-.61,1.98,1.19,2.59,3.78,1.41,5.76-1.19,1.98-3.78,2.63-5.78,1.42Zm3.42,44.18c-1.44-1.68-1.33-4.18.22-5.72l.22-.22c1.74-1.5,4.41-1.33,5.92.42,1.52,1.76,1.33,4.41-.44,5.94-1.74,1.5-4.39,1.35-5.92-.41Zm13.1,15.83c-1.8,1.44-4.45,1.17-5.9-.63-1.36-1.68-1.23-4.12.28-5.62.1-.1.22-.18.34-.3,1.8-1.44,4.45-1.17,5.9.63,1.46,1.82,1.17,4.45-.61,5.92Zm.59-28.77c-1.78-1.5-2.02-4.16-.53-5.92l.26-.26c1.52-1.52,4-1.66,5.68-.26,1.76,1.48,2,4.14.49,5.92-1.48,1.76-4.14,2-5.9.52Zm14.07,15.02c-1.56,1.72-4.23,1.82-5.94.24-1.68-1.56-1.8-4.21-.22-5.92.04-.04.06-.1.1-.14,1.58-1.58,4.17-1.64,5.84-.1,1.68,1.56,1.8,4.21.22,5.92Zm3.13-31.42c-1.19,1.98-3.76,2.65-5.76,1.44-2-1.17-2.63-3.74-1.46-5.74.2-.32.42-.57.65-.81,1.33-1.33,3.42-1.64,5.12-.65,1.98,1.19,2.63,3.78,1.44,5.76Zm.79-20.58c.2-.55.51-1.03.91-1.42,1.15-1.15,2.91-1.56,4.53-.93,2.16.85,3.21,3.28,2.35,5.44-.85,2.16-3.28,3.21-5.44,2.35-2.16-.85-3.21-3.28-2.35-5.44Zm8.61,36.31c-1.29,1.92-3.9,2.39-5.82,1.07-1.92-1.29-2.39-3.9-1.09-5.8.16-.24.32-.43.5-.61,1.4-1.4,3.64-1.66,5.32-.49,1.94,1.31,2.41,3.92,1.09,5.84Zm10.13-17.37c-1.01,2.08-3.54,2.95-5.62,1.94-2.06-1.03-2.95-3.54-1.92-5.64.22-.41.48-.79.79-1.11,1.25-1.25,3.17-1.62,4.81-.81,2.1,1.03,2.95,3.54,1.94,5.62Zm7.46-18.66c-.69,2.2-3.07,3.42-5.26,2.73-2.22-.71-3.42-3.07-2.73-5.26.2-.67.57-1.25,1.03-1.7,1.09-1.09,2.69-1.54,4.25-1.05,2.2.69,3.42,3.07,2.71,5.28Zm-.14-16.09c-2.3-.36-3.86-2.51-3.48-4.83.14-.89.57-1.68,1.17-2.28.93-.93,2.28-1.41,3.64-1.19,2.29.4,3.84,2.53,3.48,4.83-.38,2.28-2.53,3.84-4.81,3.46Z"/>
          <path class="cls-3" d="m171.22,128.38c-31.72,31.72-31.72,83.14,0,114.86,1.7,1.71,3.46,3.31,5.27,4.82,16.4-3.79,30.99-10.85,42.92-22.05,28.9-27.13,34.28-71.22,27.81-119.26-26.43-6.21-55.38,1.01-76,21.63Z"/>
          <path class="cls-1" d="m171.22,128.38c-31.72,31.72-31.72,83.14,0,114.86,1.7,1.71,3.46,3.31,5.27,4.82,16.4-3.79,30.99-10.85,42.92-22.05,28.9-27.13,34.28-71.22,27.81-119.26-26.43-6.21-55.38,1.01-76,21.63Z"/>
          <path class="cls-2" d="m6.72,137.36c.1-2.31-1.66-4.27-4-4.39-1.02-.07-1.97.28-2.73.87v6.68c.65.49,1.44.79,2.31.83,2.31.14,4.27-1.66,4.41-3.98Z"/>
          <path class="cls-2" d="m142.86,10.05c2.32.06,4.21-1.8,4.27-4.12.02-2.32-1.82-4.23-4.14-4.25-1.19-.04-2.28.46-3.05,1.23-.73.73-1.21,1.76-1.23,2.89-.04,2.33,1.82,4.23,4.14,4.25Z"/>
          <path class="cls-2" d="m21.62,132.55c-1.01.1-1.92.53-2.59,1.21-.85.85-1.33,2.08-1.21,3.38.24,2.29,2.28,3.98,4.57,3.78,2.32-.22,4.02-2.28,3.8-4.59-.24-2.3-2.26-4-4.57-3.78Z"/>
          <path class="cls-2" d="m141.87,21.13c-1.37-.22-2.71.26-3.64,1.19-.59.59-1.03,1.38-1.17,2.28-.38,2.31,1.19,4.47,3.48,4.83,2.28.38,4.43-1.19,4.81-3.46.36-2.29-1.19-4.43-3.48-4.83Z"/>
          <path class="cls-2" d="m40.24,129.4c-.79.2-1.46.59-1.98,1.11-1.01,1.01-1.46,2.49-1.13,3.98.55,2.26,2.83,3.62,5.08,3.07,2.26-.55,3.64-2.81,3.09-5.07-.55-2.26-2.83-3.62-5.07-3.09Z"/>
          <path class="cls-2" d="m137.97,40.23c-1.56-.5-3.17-.04-4.25,1.05-.46.46-.83,1.03-1.03,1.7-.69,2.2.51,4.55,2.73,5.26,2.2.69,4.57-.53,5.26-2.73.71-2.22-.51-4.59-2.71-5.28Z"/>
          <path class="cls-2" d="m58.19,123.61c-.53.22-.99.51-1.39.91-1.15,1.15-1.56,2.95-.91,4.55.87,2.14,3.3,3.19,5.46,2.3,2.16-.85,3.19-3.3,2.3-5.46-.87-2.14-3.3-3.19-5.46-2.3Z"/>
          <path class="cls-2" d="m131.28,58.55c-1.64-.81-3.56-.44-4.81.81-.32.32-.57.69-.79,1.11-1.03,2.1-.14,4.61,1.92,5.64,2.08,1.01,4.61.14,5.62-1.94,1.01-2.08.16-4.59-1.94-5.62Z"/>
          <path class="cls-2" d="m75.13,115.22c-.32.2-.59.4-.85.65-1.33,1.33-1.62,3.4-.63,5.11,1.19,1.98,3.76,2.65,5.74,1.46,2-1.17,2.67-3.74,1.48-5.76-1.19-1.98-3.76-2.65-5.74-1.46Z"/>
          <path class="cls-2" d="m122,75.7c-1.68-1.17-3.92-.91-5.32.49-.18.18-.34.38-.5.61-1.31,1.9-.83,4.51,1.09,5.8,1.92,1.33,4.53.85,5.82-1.07,1.32-1.92.85-4.53-1.09-5.84Z"/>
          <path class="cls-2" d="m90.62,104.43c-.12.12-.24.2-.34.3-1.5,1.5-1.64,3.94-.28,5.62,1.44,1.8,4.1,2.08,5.9.63,1.78-1.46,2.08-4.1.61-5.92-1.44-1.8-4.1-2.08-5.9-.63Z"/>
          <path class="cls-2" d="m104.51,91.41s-.06.1-.1.14c-1.58,1.7-1.46,4.35.22,5.92,1.7,1.58,4.37,1.48,5.94-.24,1.58-1.7,1.46-4.35-.22-5.92-1.66-1.54-4.25-1.48-5.84.1Z"/>
          <path class="cls-2" d="m2.89,120.78c.17-1.98-1.06-3.76-2.89-4.35v7.97c1.55-.5,2.72-1.89,2.89-3.62Z"/>
          <path class="cls-2" d="m126.12,14.32c2.31.14,4.29-1.64,4.43-3.96.12-2.34-1.64-4.29-3.98-4.41-1.23-.08-2.38.4-3.19,1.21-.71.71-1.17,1.68-1.23,2.77-.12,2.29,1.66,4.27,3.96,4.39Z"/>
          <path class="cls-2" d="m21.7,120.32c-.16-2.3-2.16-4.06-4.47-3.88-1.05.06-1.98.51-2.67,1.21-.83.83-1.33,2-1.23,3.25.16,2.33,2.16,4.06,4.47,3.92,2.31-.18,4.08-2.18,3.9-4.49Z"/>
          <path class="cls-2" d="m122.95,32.88c2.26.47,4.49-.93,4.99-3.21.5-2.27-.95-4.51-3.21-4.99-1.44-.34-2.89.16-3.86,1.13-.55.55-.97,1.25-1.15,2.06-.49,2.28.95,4.51,3.23,5.01Z"/>
          <path class="cls-2" d="m40.22,116.88c-.53-2.28-2.79-3.66-5.05-3.15-.79.2-1.48.57-2.02,1.11-.99.99-1.44,2.47-1.13,3.94.55,2.26,2.79,3.66,5.07,3.13,2.26-.51,3.64-2.77,3.13-5.03Z"/>
          <path class="cls-2" d="m122.28,48.32c.85-2.16-.2-4.59-2.35-5.44-1.62-.63-3.38-.22-4.53.93-.4.4-.71.87-.91,1.42-.85,2.16.2,4.59,2.35,5.44,2.16.85,4.59-.2,5.44-2.35Z"/>
          <path class="cls-2" d="m57.93,110.49c-.87-2.14-3.32-3.17-5.48-2.28-.53.22-.99.52-1.36.89-1.17,1.17-1.58,2.97-.91,4.59.87,2.14,3.32,3.17,5.48,2.28,2.14-.87,3.17-3.32,2.27-5.48Z"/>
          <path class="cls-2" d="m112.25,60.05c-1.7-.99-3.8-.67-5.12.65-.24.24-.46.49-.65.81-1.17,2-.53,4.57,1.46,5.74,2,1.21,4.57.53,5.76-1.44,1.19-1.98.53-4.57-1.44-5.76Z"/>
          <path class="cls-2" d="m74.39,101.35c-1.21-2-3.8-2.61-5.78-1.39-.28.16-.53.38-.77.61-1.33,1.33-1.64,3.46-.59,5.15,1.21,2,3.8,2.61,5.78,1.38,1.98-1.23,2.57-3.8,1.37-5.76Z"/>
          <path class="cls-2" d="m101.9,75.78c-1.68-1.4-4.16-1.27-5.68.26l-.26.26c-1.48,1.76-1.25,4.41.53,5.92,1.76,1.48,4.41,1.25,5.9-.52,1.5-1.78,1.27-4.43-.49-5.92Z"/>
          <path class="cls-2" d="m89.16,89.63c-1.5-1.74-4.18-1.92-5.92-.42l-.22.22c-1.54,1.54-1.66,4.04-.22,5.72,1.52,1.76,4.17,1.92,5.92.41,1.76-1.52,1.96-4.17.44-5.94Z"/>
          <path class="cls-2" d="m5.79,100.18c-1.23-.04-2.33.44-3.13,1.23-.73.73-1.19,1.7-1.23,2.81-.08,2.33,1.7,4.27,4.04,4.35,2.32.1,4.27-1.7,4.35-4.04.08-2.3-1.72-4.25-4.04-4.35Z"/>
          <path class="cls-2" d="m110.17,6.49c2.31-.02,4.16-1.94,4.14-4.25-.01-.83-.27-1.59-.7-2.24h-7.03c-.44.67-.69,1.48-.67,2.35.02,2.32,1.92,4.18,4.25,4.14Z"/>
          <path class="cls-2" d="m23.15,99.29c-.93.14-1.74.55-2.37,1.19-.89.89-1.37,2.2-1.19,3.56.34,2.32,2.47,3.9,4.75,3.56,2.3-.32,3.9-2.43,3.56-4.75-.32-2.29-2.45-3.88-4.75-3.56Z"/>
          <path class="cls-2" d="m108.05,24.52c2.3.4,4.45-1.17,4.83-3.44.38-2.28-1.17-4.45-3.44-4.83-1.38-.24-2.75.26-3.66,1.17-.61.61-1.03,1.38-1.17,2.28-.4,2.3,1.17,4.45,3.44,4.83Z"/>
          <path class="cls-2" d="m40.08,95.29c-.65.22-1.21.57-1.64,1.01-1.09,1.09-1.52,2.75-1.03,4.31.73,2.2,3.11,3.38,5.3,2.65,2.22-.75,3.4-3.13,2.67-5.32-.73-2.2-3.11-3.38-5.3-2.65Z"/>
          <path class="cls-2" d="m102.75,41.89c2.18.79,4.59-.36,5.36-2.55.79-2.18-.34-4.57-2.53-5.34-1.56-.57-3.26-.14-4.37.97-.44.44-.77.93-.99,1.54-.79,2.18.36,4.59,2.53,5.38Z"/>
          <path class="cls-2" d="m55.99,88.33c-.36.2-.67.44-.95.71-1.29,1.29-1.62,3.32-.71,4.99,1.13,2.04,3.68,2.77,5.72,1.64,2.02-1.11,2.75-3.66,1.66-5.7-1.13-2.04-3.68-2.77-5.72-1.64Z"/>
          <path class="cls-2" d="m93.55,51.41c-.26.26-.49.53-.65.85-1.19,2.02-.49,4.57,1.5,5.74,2,1.17,4.57.49,5.74-1.5,1.15-2.02.47-4.59-1.52-5.76-1.68-.97-3.76-.63-5.07.67Z"/>
          <path class="cls-2" d="m75.7,85.08c1.78-1.46,2.06-4.12.59-5.9-1.48-1.8-4.12-2.06-5.9-.59-.12.08-.22.18-.32.28-1.52,1.52-1.66,3.96-.28,5.62,1.44,1.8,4.1,2.08,5.9.59Z"/>
          <path class="cls-2" d="m83.28,72.36c1.76,1.48,4.41,1.29,5.94-.47,1.48-1.76,1.29-4.41-.5-5.92-1.66-1.42-4.14-1.32-5.68.22-.08.08-.16.16-.24.24l.02.02c-1.5,1.74-1.31,4.39.46,5.92Z"/>
          <path class="cls-2" d="m93.77,1.33c1.09-.08,2.03-.59,2.72-1.33h-6.08c.84.89,2.05,1.43,3.36,1.33Z"/>
          <path class="cls-2" d="m8.6,83.84c-1.17-.02-2.26.44-3.03,1.21s-1.21,1.8-1.23,2.93c-.02,2.32,1.84,4.21,4.16,4.23,2.33.04,4.21-1.8,4.25-4.14.02-2.31-1.84-4.21-4.16-4.23Z"/>
          <path class="cls-2" d="m92.48,18.76c2.29.28,4.39-1.35,4.69-3.62.3-2.31-1.33-4.41-3.62-4.73-1.35-.16-2.61.32-3.5,1.21-.63.63-1.09,1.48-1.21,2.43-.28,2.29,1.33,4.41,3.64,4.71Z"/>
          <path class="cls-2" d="m25.13,82.31c-.83.16-1.58.55-2.16,1.13-.95.95-1.42,2.37-1.15,3.8.46,2.28,2.67,3.74,4.93,3.3,2.27-.46,3.76-2.65,3.3-4.93-.46-2.28-2.65-3.76-4.93-3.3Z"/>
          <path class="cls-2" d="m87.61,35.54c2.2.77,4.59-.4,5.34-2.57.77-2.2-.4-4.59-2.57-5.34-1.58-.55-3.24-.12-4.35.99-.44.44-.77.97-.99,1.58-.77,2.2.4,4.59,2.57,5.34Z"/>
          <path class="cls-2" d="m40.95,77.41c-.49.22-.93.53-1.29.89-1.19,1.19-1.6,2.99-.91,4.63.93,2.12,3.38,3.11,5.52,2.2,2.14-.91,3.11-3.38,2.2-5.52-.89-2.12-3.38-3.11-5.52-2.2Z"/>
          <path class="cls-2" d="m85.16,49.54c1.19-1.98.57-4.57-1.41-5.76-1.7-1.03-3.82-.73-5.16.61-.24.24-.44.52-.61.81-1.19,1.98-.55,4.55,1.41,5.76,2,1.21,4.59.55,5.78-1.42Z"/>
          <path class="cls-2" d="m55.46,69.31c-.2.16-.4.32-.55.47-1.42,1.42-1.64,3.7-.47,5.38,1.35,1.9,3.98,2.35,5.86,1.03,1.9-1.35,2.33-3.96,1.03-5.86-1.35-1.9-3.96-2.33-5.86-1.03Z"/>
          <path class="cls-2" d="m74.1,64.17c1.58-1.7,1.5-4.35-.2-5.94-1.66-1.54-4.23-1.5-5.84.1-.02.02-.06.06-.1.1-1.58,1.7-1.48,4.33.2,5.94,1.7,1.58,4.37,1.48,5.94-.2Z"/>
          <path class="cls-2" d="m7.3,75.76c2.31.06,4.25-1.76,4.33-4.06.08-2.33-1.74-4.27-4.06-4.33-1.23-.04-2.31.42-3.11,1.21-.73.73-1.19,1.74-1.23,2.85-.06,2.32,1.74,4.23,4.06,4.33Z"/>
          <path class="cls-2" d="m76.37,15.63c2.31.26,4.37-1.4,4.65-3.7.26-2.31-1.39-4.39-3.7-4.65-1.33-.14-2.55.34-3.42,1.21-.65.65-1.11,1.5-1.23,2.49-.26,2.31,1.4,4.37,3.7,4.65Z"/>
          <path class="cls-2" d="m23.25,65.91c-.81.18-1.52.57-2.08,1.13-.99.99-1.44,2.43-1.15,3.88.51,2.25,2.75,3.7,5.03,3.21,2.26-.51,3.68-2.73,3.19-5.01s-2.73-3.68-4.99-3.21Z"/>
          <path class="cls-2" d="m71.45,31.68c2.18.83,4.59-.28,5.4-2.43.83-2.18-.28-4.59-2.45-5.42-1.58-.59-3.3-.18-4.45.97-.4.4-.71.91-.93,1.48-.83,2.18.28,4.59,2.43,5.4Z"/>
          <path class="cls-2" d="m38.07,60.67c-.4.2-.77.45-1.09.77-1.25,1.25-1.6,3.19-.77,4.85,1.05,2.08,3.56,2.93,5.64,1.88s2.91-3.58,1.84-5.64c-1.01-2.08-3.54-2.91-5.62-1.86Z"/>
          <path class="cls-2" d="m68.54,44.99c1.35-1.9.87-4.51-1.05-5.84-1.66-1.19-3.94-.93-5.34.48-.18.18-.36.36-.47.55-1.35,1.9-.87,4.51,1.03,5.86,1.9,1.31,4.53.85,5.84-1.05Z"/>
          <path class="cls-2" d="m56.65,58.23c1.74-1.5,1.92-4.17.42-5.92-1.52-1.76-4.2-1.94-5.94-.44l-.22.22c-1.54,1.54-1.64,4.06-.18,5.72,1.5,1.74,4.16,1.94,5.92.42Z"/>
          <path class="cls-2" d="m6.49,55.24c.34-2.32-1.27-4.43-3.56-4.75-1.06-.16-2.09.11-2.92.67v6.94c.51.34,1.09.6,1.74.7,2.3.32,4.43-1.27,4.75-3.56Z"/>
          <path class="cls-2" d="m59.79,15.12c2.3.32,4.41-1.29,4.73-3.58s-1.29-4.41-3.56-4.75c-1.37-.18-2.67.3-3.56,1.19-.63.63-1.05,1.44-1.17,2.39-.34,2.32,1.27,4.43,3.56,4.75Z"/>
          <path class="cls-2" d="m19.13,58.55c2.3-.4,3.82-2.59,3.42-4.85-.4-2.29-2.57-3.84-4.85-3.42-.89.14-1.66.55-2.26,1.15-.93.93-1.42,2.3-1.17,3.7.4,2.3,2.55,3.82,4.85,3.42Z"/>
          <path class="cls-2" d="m53.84,30.09c2.1,1.03,4.59.16,5.6-1.92,1.03-2.1.16-4.59-1.92-5.6-1.64-.81-3.56-.44-4.79.79-.34.34-.61.69-.81,1.13-1.03,2.1-.16,4.59,1.92,5.6Z"/>
          <path class="cls-2" d="m35.59,52.89c2.06-1.07,2.83-3.62,1.74-5.66s-3.62-2.83-5.68-1.76c-.38.22-.71.48-.99.75-1.29,1.29-1.64,3.27-.75,4.95,1.09,2.04,3.64,2.81,5.68,1.72Z"/>
          <path class="cls-2" d="m49.36,36.47c-1.64-1.56-4.27-1.54-5.88.06-.02.02-.04.04-.06.06-1.6,1.68-1.56,4.33.12,5.94,1.66,1.62,4.33,1.56,5.92-.1,1.62-1.66,1.56-4.33-.1-5.96Z"/>
          <path class="cls-2" d="m44.66,1.84c1.19-.21,2.17-.9,2.78-1.84h-7.01c.89,1.36,2.53,2.14,4.23,1.84Z"/>
          <path class="cls-2" d="m8.78,34.52c-1.2-.03-2.3.44-3.09,1.23-.73.73-1.19,1.73-1.23,2.85-.07,2.32,1.75,4.25,4.07,4.32,2.32.07,4.25-1.75,4.32-4.07.07-2.32-1.75-4.25-4.07-4.32Z"/>
          <path class="cls-2" d="m42.12,17.08c2.24.61,4.54-.71,5.15-2.94h0c.61-2.24-.71-4.54-2.94-5.15-1.51-.41-3.05.05-4.08,1.08-.5.5-.88,1.13-1.08,1.86-.61,2.23.71,4.54,2.94,5.15Z"/>
          <path class="cls-2" d="m22.02,31.93c-.49.21-.91.51-1.27.87-1.19,1.19-1.59,3.04-.87,4.67.94,2.12,3.42,3.08,5.54,2.14,2.12-.94,3.08-3.42,2.14-5.54-.94-2.12-3.42-3.08-5.54-2.14Z"/>
          <path class="cls-2" d="m39.21,29.32h0c1.51-1.76,1.31-4.41-.45-5.92-1.68-1.44-4.16-1.32-5.7.21-.08.08-.15.15-.22.24-1.51,1.76-1.31,4.41.45,5.92,1.76,1.51,4.41,1.31,5.92-.45Z"/>
          <path class="cls-2" d="m0,14.16v4.84c1.03-1.43,1.03-3.38,0-4.84Z"/>
          <path class="cls-2" d="m23.84,3.22c.08,2.32,2.03,4.13,4.35,4.04,2.31-.08,4.12-2.03,4.04-4.35-.04-1.15-.55-2.18-1.33-2.91h-5.71s-.08.06-.12.1c-.79.79-1.27,1.91-1.22,3.12Z"/>
          <path class="cls-2" d="m6.8,19.33c-.76.76-1.23,1.81-1.23,2.98,0,2.32,1.89,4.19,4.21,4.19,2.32,0,4.19-1.89,4.19-4.21,0-2.31-1.89-4.19-4.21-4.19-1.16,0-2.2.47-2.96,1.23Z"/>
          <path class="cls-2" d="m26.03,19.44h0c1.59-1.69,1.51-4.34-.18-5.93-1.66-1.56-4.25-1.52-5.84.08-.03.03-.06.06-.09.09-1.59,1.69-1.51,4.34.18,5.93,1.69,1.59,4.34,1.51,5.93-.18Z"/>
          <path class="cls-2" d="m4.9,8.43s.06.06.09.09c1.7,1.57,4.36,1.46,5.93-.24,1.55-1.68,1.46-4.29-.18-5.87,0,0,0,0,0,0-.02-.02-.04-.04-.05-.06l-.02-.02c-1.65-1.57-4.25-1.55-5.86.07s-1.64,4.3,0,5.94c.03.03.06.07.1.1Z"/>
        </g>
      </g>
    </g>
  </g>
</svg>