<?xml version="1.0" encoding="UTF-8"?>
<svg xmlns="http://www.w3.org/2000/svg" xmlns:xlink="http://www.w3.org/1999/xlink" viewBox="0 0 50 50">
  <defs>
    <style>
      .cls-1 {
        fill: url(#linear-gradient);
      }

      .cls-1, .cls-2, .cls-3, .cls-4, .cls-5, .cls-6, .cls-7 {
        stroke-width: 0px;
      }

      .cls-8 {
        isolation: isolate;
      }

      .cls-2 {
        fill: url(#linear-gradient-4);
      }

      .cls-2, .cls-3, .cls-4, .cls-5, .cls-6, .cls-7 {
        opacity: .8;
      }

      .cls-3 {
        fill: url(#linear-gradient-3);
      }

      .cls-4 {
        fill: url(#linear-gradient-7);
      }

      .cls-5 {
        fill: url(#linear-gradient-5);
      }

      .cls-6 {
        fill: url(#linear-gradient-6);
      }

      .cls-9 {
        mix-blend-mode: multiply;
      }

      .cls-7 {
        fill: url(#linear-gradient-2);
      }
    </style>
    <linearGradient id="linear-gradient" x1="13.43" y1="11.85" x2="39.85" y2="46.64" gradientUnits="userSpaceOnUse">
      <stop offset=".13" stop-color="#dcf6fa"/>
      <stop offset="1" stop-color="#bdeffa"/>
    </linearGradient>
    <linearGradient id="linear-gradient-2" x1="33.33" y1="12.4" x2="33.33" y2="24.86" gradientUnits="userSpaceOnUse">
      <stop offset="0" stop-color="#f3d3f4"/>
      <stop offset=".16" stop-color="#f2d2f3" stop-opacity=".74"/>
      <stop offset=".32" stop-color="#f2d1f3" stop-opacity=".52"/>
      <stop offset=".48" stop-color="#f2d0f3" stop-opacity=".33"/>
      <stop offset=".63" stop-color="#f2d0f3" stop-opacity=".19"/>
      <stop offset=".77" stop-color="#f2d0f3" stop-opacity=".08"/>
      <stop offset=".9" stop-color="#f2d0f3" stop-opacity=".02"/>
      <stop offset="1" stop-color="#f2d0f3" stop-opacity="0"/>
    </linearGradient>
    <linearGradient id="linear-gradient-3" x1="11.46" y1="50.92" x2="11.46" y2="30.5" xlink:href="#linear-gradient-2"/>
    <linearGradient id="linear-gradient-4" x1="-.43" y1="23.67" x2="2.05" y2="26.93" xlink:href="#linear-gradient-2"/>
    <linearGradient id="linear-gradient-5" x1="38.54" y1="48.9" x2="38.54" y2="7.41" xlink:href="#linear-gradient-2"/>
    <linearGradient id="linear-gradient-6" x1="15.03" y1="26.61" x2="19.96" y2="33.1" xlink:href="#linear-gradient-2"/>
    <linearGradient id="linear-gradient-7" x1="15.67" y1="6.03" x2="15.67" y2="29.68" xlink:href="#linear-gradient-2"/>
  </defs>
  <g class="cls-8">
    <g id="Layer_2" data-name="Layer 2">
      <g id="HCI">
        <g>
          <path class="cls-1" d="m22.92,35.42v8.22c0,2.85-1.91,5.41-4.68,6.06-.84.2-1.71.3-2.61.3-5.05,0-9.41-3.24-10.9-7.99-2.93-1.92-4.72-5.16-4.72-8.68,0-1.85.49-3.62,1.43-5.21-.94-1.59-1.43-3.36-1.43-5.21,0-3.27,1.57-6.33,4.17-8.29v-.04c0-3.95,2.76-7.27,6.46-8.12C11.48,2.77,14.8,0,18.75,0h.05c2.28,0,4.12,1.86,4.12,4.13v12.53h-4.74c-.72-1.24-2.05-2.08-3.59-2.08-2.3,0-4.17,1.86-4.17,4.17s1.86,4.17,4.17,4.17c1.54,0,2.87-.84,3.59-2.08h4.74v10.42h-4.74c-.72-1.24-2.05-2.08-3.59-2.08-2.3,0-4.17,1.86-4.17,4.17s1.86,4.17,4.17,4.17c1.54,0,2.87-.84,3.59-2.08h4.74Zm27.08-12.5c0-3.27-1.57-6.33-4.17-8.29v-.04c0-3.95-2.76-7.27-6.46-8.12C38.52,2.77,35.2,0,31.25,0h-.05c-2.28,0-4.12,1.86-4.12,4.13v20.87h6.25v-2.66c-1.24-.72-2.08-2.05-2.08-3.59,0-2.3,1.86-4.17,4.17-4.17s4.17,1.86,4.17,4.17c0,1.54-.84,2.87-2.08,3.59v6.83h-10.42v14.47c0,2.85,1.91,5.41,4.68,6.06.84.2,1.71.3,2.61.3,5.05,0,9.41-3.24,10.9-7.99,2.93-1.92,4.72-5.16,4.72-8.68,0-1.85-.49-3.62-1.43-5.21.94-1.59,1.43-3.36,1.43-5.21h0Z"/>
          <g class="cls-9">
            <path class="cls-7" d="m33.33,22.34c-1.24-.72-2.08-2.05-2.08-3.59,0-2.3,1.86-4.17,4.17-4.17,2.17,0,3.93,1.66,4.13,3.78.03-.2.04-.41.04-.62,0-2.85-2.32-5.17-5.17-5.17s-5.17,2.32-5.17,5.17c0,1.62.79,3.16,2.08,4.13v1.12h-4.25V4.13s0,0,0,0v20.87h6.25v-2.66Z"/>
            <path class="cls-3" d="m20.92,42.64c0,2.42-1.65,4.56-3.91,5.09-.78.18-1.58.27-2.38.27-4.58,0-8.57-2.93-9.95-7.29l-.11-.34-.3-.2C1.74,38.52.2,35.81.03,32.85c0,.16-.03.32-.03.48C0,36.85,1.79,40.09,4.72,42.01c1.5,4.75,5.86,7.99,10.9,7.99.9,0,1.77-.1,2.61-.3,2.78-.65,4.68-3.21,4.68-6.06v-8.22h-2v7.22Z"/>
            <path class="cls-2" d="m1.24,27.74s.03-.07.05-.11l.3-.51-.3-.51c-.77-1.31-1.18-2.73-1.26-4.22C.02,22.57,0,22.74,0,22.92,0,24.62.44,26.25,1.24,27.74Z"/>
            <path class="cls-5" d="m50,22.92c0-3.27-1.57-6.33-4.17-8.29v-.04c0-3.95-2.76-7.27-6.46-8.12-.85-3.7-4.17-6.46-8.12-6.46h-.05c-.16,0-.3.03-.46.05,3.19.24,5.93,2.52,6.65,5.64l.14.61.61.14c3.3.76,5.69,3.76,5.69,7.15v.5l.4.34c2.36,1.78,3.77,4.58,3.77,7.49,0,1.67-.43,3.25-1.29,4.7l-.3.51.3.51c.86,1.45,1.29,3.03,1.29,4.7,0,3.16-1.6,6.09-4.27,7.84l-.3.2-.11.34c-1.37,4.36-5.37,7.29-9.95,7.29-.8,0-1.6-.09-2.38-.27-2.27-.53-3.91-2.67-3.91-5.09v-13.47h0v14.47c0,2.85,1.91,5.41,4.68,6.06.84.2,1.71.3,2.61.3,5.05,0,9.41-3.24,10.9-7.99,2.93-1.92,4.72-5.16,4.72-8.68,0-1.85-.49-3.62-1.43-5.21.94-1.59,1.43-3.36,1.43-5.21Z"/>
            <path class="cls-6" d="m20.92,29.25h-3.21c-.97-1.3-2.5-2.08-4.12-2.08-2.85,0-5.17,2.32-5.17,5.17s2.32,5.17,5.17,5.17c.21,0,.41-.01.62-.04-2.12-.2-3.78-1.96-3.78-4.13,0-2.3,1.86-4.17,4.17-4.17,1.54,0,2.87.84,3.59,2.08h4.74v-10.42h-2v8.42Z"/>
            <path class="cls-4" d="m18.8,0h-.05c-.24,0-.47.01-.7.03,1.62.15,2.87,1.48,2.87,3.1v11.53h-3.21c-.97-1.3-2.5-2.08-4.12-2.08-2.85,0-5.17,2.32-5.17,5.17s2.32,5.17,5.17,5.17c.21,0,.41-.01.62-.04-2.12-.2-3.78-1.96-3.78-4.13,0-2.3,1.86-4.17,4.17-4.17,1.54,0,2.87.84,3.59,2.08h4.74V4.13C22.92,1.86,21.07,0,18.8,0Z"/>
          </g>
        </g>
      </g>
    </g>
  </g>
</svg>