<?xml version="1.0" encoding="UTF-8"?>
<svg xmlns="http://www.w3.org/2000/svg" xmlns:xlink="http://www.w3.org/1999/xlink" viewBox="0 0 62.47 62.34">
  <defs>
    <style>
      .cls-1 {
        fill: url(#linear-gradient);
        opacity: .8;
      }

      .cls-1, .cls-2, .cls-3, .cls-4, .cls-5 {
        stroke-width: 0px;
      }

      .cls-6 {
        isolation: isolate;
      }

      .cls-2 {
        fill: url(#linear-gradient-5);
      }

      .cls-2, .cls-3, .cls-4, .cls-5 {
        mix-blend-mode: multiply;
      }

      .cls-3 {
        fill: url(#linear-gradient-4);
      }

      .cls-4 {
        fill: url(#linear-gradient-2);
      }

      .cls-5 {
        fill: url(#linear-gradient-3);
      }
    </style>
    <linearGradient id="linear-gradient" x1="10.58" y1="8.8" x2="55.07" y2="53.29" gradientUnits="userSpaceOnUse">
      <stop offset="0" stop-color="#fffbfb"/>
      <stop offset="1" stop-color="#ffdae2"/>
    </linearGradient>
    <linearGradient id="linear-gradient-2" x1="12.68" y1="35.35" x2="24.91" y2="47.58" gradientUnits="userSpaceOnUse">
      <stop offset="0" stop-color="#ffb9be"/>
      <stop offset=".02" stop-color="#ffb9be" stop-opacity=".96"/>
      <stop offset=".18" stop-color="#ffb9be" stop-opacity=".71"/>
      <stop offset=".34" stop-color="#ffb9be" stop-opacity=".49"/>
      <stop offset=".49" stop-color="#ffb9be" stop-opacity=".32"/>
      <stop offset=".64" stop-color="#ffb9be" stop-opacity=".18"/>
      <stop offset=".78" stop-color="#ffb9be" stop-opacity=".08"/>
      <stop offset=".9" stop-color="#ffb9be" stop-opacity=".02"/>
      <stop offset="1" stop-color="#ffb9be" stop-opacity="0"/>
    </linearGradient>
    <linearGradient id="linear-gradient-3" x1="12.99" y1="16.45" x2="36.04" y2="39.5" xlink:href="#linear-gradient-2"/>
    <linearGradient id="linear-gradient-4" x1="24.97" y1="4.46" x2="48.03" y2="27.52" xlink:href="#linear-gradient-2"/>
    <linearGradient id="linear-gradient-5" x1="40.04" y1="7.98" x2="52.27" y2="20.21" xlink:href="#linear-gradient-2"/>
  </defs>
  <g class="cls-6">
    <g id="Layer_2" data-name="Layer 2">
      <g id="HCI">
        <g>
          <path class="cls-1" d="m62.47,31.23c0,16.24-12.38,29.57-28.22,31.1-.84.08-1.65-.35-2.09-1.06l-2.08-3.33c-1.46-2.33-4.01-3.75-6.76-3.75h0C10.62,54.18.04,44.02,0,31.32c0-.52,0-1.05.03-1.58C.76,14.06,13.33,1.17,28.99.08c18.27-1.27,33.48,13.17,33.48,31.15Z"/>
          <circle class="cls-4" cx="15.78" cy="38.45" r="6.33"/>
          <circle class="cls-5" cx="16.06" cy="19.52" r="4.88"/>
          <circle class="cls-3" cx="30.18" cy="9.66" r="3.7"/>
          <circle class="cls-2" cx="46.05" cy="13.99" r="2.87"/>
        </g>
      </g>
    </g>
  </g>
</svg>