<?xml version="1.0" encoding="UTF-8"?>
<svg id="Layer_2" data-name="Layer 2" xmlns="http://www.w3.org/2000/svg" xmlns:xlink="http://www.w3.org/1999/xlink" viewBox="0 0 49.88 50">
  <defs>
    <style>
      .cls-1 {
        fill: #fffcf1;
      }

      .cls-1, .cls-2, .cls-3, .cls-4, .cls-5, .cls-6, .cls-7 {
        stroke-width: 0px;
      }

      .cls-2 {
        fill: url(#linear-gradient);
      }

      .cls-3 {
        fill: url(#linear-gradient-6);
      }

      .cls-4 {
        fill: url(#linear-gradient-5);
      }

      .cls-8 {
        opacity: .8;
      }

      .cls-5 {
        fill: url(#linear-gradient-2);
      }

      .cls-6 {
        fill: url(#linear-gradient-3);
      }

      .cls-7 {
        fill: url(#linear-gradient-4);
      }
    </style>
    <linearGradient id="linear-gradient" x1="27.58" y1="20.96" x2="22.31" y2="15.69" gradientUnits="userSpaceOnUse">
      <stop offset="0" stop-color="#fff"/>
      <stop offset=".08" stop-color="#fff" stop-opacity=".96"/>
      <stop offset=".23" stop-color="#fff" stop-opacity=".86"/>
      <stop offset=".41" stop-color="#fff" stop-opacity=".69"/>
      <stop offset=".63" stop-color="#fff" stop-opacity=".46"/>
      <stop offset=".87" stop-color="#fff" stop-opacity=".17"/>
      <stop offset="1" stop-color="#fff" stop-opacity="0"/>
    </linearGradient>
    <linearGradient id="linear-gradient-2" x1="5.57" y1="5.39" x2="5.57" y2="34.22" gradientUnits="userSpaceOnUse">
      <stop offset="0" stop-color="#fff"/>
      <stop offset=".02" stop-color="#fff" stop-opacity=".96"/>
      <stop offset=".18" stop-color="#fff" stop-opacity=".71"/>
      <stop offset=".34" stop-color="#fff" stop-opacity=".49"/>
      <stop offset=".49" stop-color="#fff" stop-opacity=".32"/>
      <stop offset=".64" stop-color="#fff" stop-opacity=".18"/>
      <stop offset=".78" stop-color="#fff" stop-opacity=".08"/>
      <stop offset=".9" stop-color="#fff" stop-opacity=".02"/>
      <stop offset="1" stop-color="#fff" stop-opacity="0"/>
    </linearGradient>
    <linearGradient id="linear-gradient-3" x1="13.49" y1="5.39" x2="13.49" y2="34.22" gradientUnits="userSpaceOnUse">
      <stop offset="0" stop-color="#fff"/>
      <stop offset=".09" stop-color="#fff" stop-opacity=".96"/>
      <stop offset=".23" stop-color="#fff" stop-opacity=".85"/>
      <stop offset=".42" stop-color="#fff" stop-opacity=".68"/>
      <stop offset=".64" stop-color="#fff" stop-opacity=".44"/>
      <stop offset=".9" stop-color="#fff" stop-opacity=".13"/>
      <stop offset="1" stop-color="#fff" stop-opacity="0"/>
    </linearGradient>
    <linearGradient id="linear-gradient-4" x1="36.41" y1="5.39" x2="36.41" y2="34.22" xlink:href="#linear-gradient-2"/>
    <linearGradient id="linear-gradient-5" x1="44.3" y1="5.39" x2="44.3" y2="34.22" xlink:href="#linear-gradient-2"/>
    <linearGradient id="linear-gradient-6" x1="24.94" y1="49.89" x2="24.94" y2="22.09" gradientUnits="userSpaceOnUse">
      <stop offset="0" stop-color="#fff"/>
      <stop offset=".12" stop-color="#fff" stop-opacity=".98"/>
      <stop offset=".25" stop-color="#fff" stop-opacity=".94"/>
      <stop offset=".38" stop-color="#fff" stop-opacity=".86"/>
      <stop offset=".5" stop-color="#fff" stop-opacity=".75"/>
      <stop offset=".63" stop-color="#fff" stop-opacity=".6"/>
      <stop offset=".76" stop-color="#fff" stop-opacity=".43"/>
      <stop offset=".88" stop-color="#fff" stop-opacity=".22"/>
      <stop offset="1" stop-color="#fff" stop-opacity="0"/>
    </linearGradient>
  </defs>
  <g id="HCI">
    <g>
      <g class="cls-8">
        <path class="cls-1" d="m8.88,36.65c-.58,0-1.16-.22-1.6-.66C2.59,31.29,0,25.02,0,18.32S2.59,5.36,7.28.66c.88-.88,2.32-.88,3.2,0s.88,2.32,0,3.2c-3.84,3.84-5.96,8.98-5.96,14.46s2.12,10.62,5.96,14.46c.88.88.88,2.32,0,3.2-.44.44-1.02.66-1.6.66Z"/>
        <path class="cls-1" d="m13.63,27.83c-.76,0-1.5-.38-1.92-1.07-3.9-6.29-3.04-14.4,2.1-19.73.87-.9,2.3-.92,3.2-.06.9.87.93,2.3.06,3.2-3.7,3.84-4.32,9.68-1.52,14.2.66,1.06.33,2.46-.73,3.12-.37.23-.78.34-1.19.34Z"/>
        <path class="cls-1" d="m36.25,27.99c-.41,0-.82-.11-1.19-.34-1.06-.66-1.39-2.05-.73-3.11,2.84-4.59,2.23-10.4-1.48-14.11-.88-.88-.88-2.32,0-3.2s2.32-.88,3.2,0c5.21,5.21,6.08,13.3,2.13,19.69-.43.69-1.17,1.07-1.93,1.07Z"/>
        <path class="cls-1" d="m40.98,36.53c-.5,0-1.02-.18-1.46-.53-.98-.78-1.07-2.28-.29-3.26.05-.07.14-.16.2-.22,7.89-7.91,7.88-20.77-.03-28.66-.89-.88-.89-2.32,0-3.2.88-.88,2.32-.88,3.2,0,4.69,4.68,7.27,10.9,7.28,17.53,0,6.62-2.57,12.85-7.24,17.54-.43.54-1.04.8-1.66.8Z"/>
        <path class="cls-1" d="m30.6,40.95h-11.31c-1.25,0-2.26-1.01-2.26-2.26s1.01-2.26,2.26-2.26h11.31c1.25,0,2.26,1.01,2.26,2.26s-1.01,2.26-2.26,2.26Z"/>
        <path class="cls-1" d="m33.99,50c-.92,0-1.79-.57-2.13-1.49l-6.92-19.04-6.92,19.04c-.42,1.18-1.72,1.78-2.9,1.35-1.17-.43-1.78-1.73-1.35-2.9l9.05-24.89c.32-.89,1.17-1.49,2.13-1.49s1.8.6,2.13,1.49l9.05,24.89c.43,1.17-.18,2.47-1.35,2.9-.26.09-.52.14-.77.14Z"/>
        <path class="cls-1" d="m31.73,18.33c0,3.74-3.05,6.78-6.79,6.78s-6.79-3.04-6.79-6.78,3.05-6.79,6.79-6.79,6.79,3.04,6.79,6.79Z"/>
      </g>
      <path class="cls-2" d="m28.67,18.33c0,2.04-1.66,3.72-3.72,3.72s-3.72-1.68-3.72-3.72,1.66-3.74,3.72-3.74,3.72,1.68,3.72,3.74Z"/>
      <path class="cls-5" d="m8.88,35.65c-.34,0-.65-.13-.89-.37C3.48,30.77,1,24.75,1,18.32S3.48,5.88,7.99,1.37c.24-.24.56-.37.89-.37s.65.13.89.37c.49.49.49,1.29,0,1.78C5.74,7.18,3.53,12.57,3.53,18.32s2.22,11.14,6.25,15.17c.24.24.37.56.37.89s-.13.65-.37.89c-.24.24-.56.37-.89.37Z"/>
      <path class="cls-6" d="m13.63,26.83c-.44,0-.84-.22-1.07-.6-3.66-5.9-2.85-13.51,1.97-18.51.24-.25.56-.38.91-.38s.64.13.88.35c.24.23.38.55.38.89,0,.34-.12.66-.35.9-4.02,4.17-4.7,10.51-1.65,15.42.37.59.18,1.37-.41,1.74-.2.12-.43.19-.66.19Z"/>
      <path class="cls-7" d="m36.25,26.99c-.23,0-.46-.07-.66-.19-.59-.36-.77-1.14-.41-1.74,3.09-4.99,2.42-11.3-1.63-15.34-.49-.49-.49-1.29,0-1.79.24-.24.55-.37.89-.37s.65.13.89.37c4.88,4.88,5.7,12.47,1.99,18.46-.23.37-.63.6-1.08.6Z"/>
      <path class="cls-4" d="m40.98,35.53c-.29,0-.58-.11-.83-.31-.25-.2-.4-.5-.43-.85-.03-.36.08-.72.3-1,.03-.03.08-.09.12-.13,8.29-8.31,8.28-21.8-.02-30.08-.49-.49-.49-1.29,0-1.79.24-.24.55-.37.89-.37s.65.13.89.37c4.5,4.49,6.98,10.46,6.99,16.82,0,6.36-2.46,12.33-6.95,16.83l-.07.08c-.22.28-.53.43-.88.43Z"/>
      <path class="cls-3" d="m15.9,49c-.15,0-.29-.03-.44-.08-.32-.12-.57-.35-.71-.65-.14-.31-.16-.65-.04-.96l9.05-24.89c.18-.5.66-.83,1.19-.83s1,.33,1.18.83l9.05,24.89c.12.32.1.66-.04.96-.14.31-.4.54-.71.65-.14.05-.29.08-.43.08-.53,0-1-.33-1.19-.83l-7.86-21.62-7.86,21.62c-.18.5-.65.83-1.18.83Z"/>
    </g>
  </g>
</svg>