<?xml version="1.0" encoding="UTF-8"?>
<svg xmlns="http://www.w3.org/2000/svg" xmlns:xlink="http://www.w3.org/1999/xlink" viewBox="0 0 50 37.5">
  <defs>
    <style>
      .cls-1 {
        fill: url(#linear-gradient);
        opacity: .8;
      }

      .cls-1, .cls-2 {
        stroke-width: 0px;
      }

      .cls-3 {
        isolation: isolate;
      }

      .cls-2 {
        fill: url(#linear-gradient-2);
        mix-blend-mode: multiply;
      }
    </style>
    <linearGradient id="linear-gradient" x1="0" y1="18.75" x2="50" y2="18.75" gradientUnits="userSpaceOnUse">
      <stop offset="0" stop-color="#fffbfb"/>
      <stop offset="1" stop-color="#ffdae2"/>
    </linearGradient>
    <linearGradient id="linear-gradient-2" x1="2.1" y1="18.75" x2="47.91" y2="18.75" gradientUnits="userSpaceOnUse">
      <stop offset="0" stop-color="#ffc3d9" stop-opacity="0"/>
      <stop offset=".11" stop-color="#ffc3d9" stop-opacity=".02"/>
      <stop offset=".26" stop-color="#ffc3d9" stop-opacity=".08"/>
      <stop offset=".41" stop-color="#ffc3d9" stop-opacity=".18"/>
      <stop offset=".58" stop-color="#ffc3d9" stop-opacity=".32"/>
      <stop offset=".75" stop-color="#ffc3d9" stop-opacity=".49"/>
      <stop offset=".93" stop-color="#ffc3d9" stop-opacity=".71"/>
      <stop offset="1" stop-color="#ffc3d9" stop-opacity=".8"/>
    </linearGradient>
  </defs>
  <g class="cls-3">
    <g id="Layer_2" data-name="Layer 2">
      <g id="HCI">
        <g>
          <path class="cls-1" d="m36.46,37.5c-9.81,0-13.33-13.52-14.48-17.96-1.57-6.06-4.32-13.29-8.43-13.29-3.62,0-7.29,5.73-7.29,16.67,0,1.73-1.4,3.13-3.13,3.13s-3.13-1.4-3.13-3.13C0,9.21,5.44,0,13.54,0c9.81,0,13.33,13.52,14.48,17.96,1.57,6.06,4.32,13.29,8.43,13.29,3.62,0,7.29-5.73,7.29-16.67,0-1.73,1.4-3.13,3.13-3.13s3.13,1.4,3.13,3.13c0,13.71-5.44,22.92-13.54,22.92Z"/>
          <path class="cls-2" d="m36.46,35.41c-8.19,0-11.4-12.34-12.45-16.39-2.6-10-6.02-14.86-10.46-14.86-4.67,0-9.39,5.8-9.39,18.76,0,.57-.46,1.03-1.03,1.03s-1.03-.46-1.03-1.03C2.1,10.46,6.7,2.1,13.54,2.1c8.19,0,11.4,12.34,12.45,16.39,2.6,10,6.02,14.86,10.46,14.86,4.67,0,9.39-5.8,9.39-18.76,0-.57.46-1.03,1.03-1.03s1.03.46,1.03,1.03c0,12.45-4.6,20.82-11.45,20.82Z"/>
        </g>
      </g>
    </g>
  </g>
</svg>