<?xml version="1.0" encoding="UTF-8"?>
<svg xmlns="http://www.w3.org/2000/svg" xmlns:xlink="http://www.w3.org/1999/xlink" viewBox="0 0 51.39 51.39">
  <defs>
    <style>
      .cls-1 {
        fill: url(#linear-gradient-12);
      }

      .cls-1, .cls-2, .cls-3, .cls-4, .cls-5, .cls-6, .cls-7, .cls-8, .cls-9, .cls-10, .cls-11, .cls-12, .cls-13, .cls-14 {
        stroke-width: 0px;
      }

      .cls-2 {
        fill: url(#linear-gradient);
      }

      .cls-15 {
        opacity: .5;
      }

      .cls-3 {
        fill: url(#linear-gradient-6);
      }

      .cls-16 {
        isolation: isolate;
      }

      .cls-4 {
        fill: url(#linear-gradient-3);
      }

      .cls-4, .cls-8, .cls-10 {
        fill-rule: evenodd;
      }

      .cls-5 {
        fill: url(#linear-gradient-11);
      }

      .cls-6 {
        fill: url(#linear-gradient-5);
      }

      .cls-17 {
        opacity: .8;
      }

      .cls-7 {
        fill: url(#linear-gradient-13);
      }

      .cls-8 {
        fill: url(#linear-gradient-14);
        mix-blend-mode: multiply;
      }

      .cls-9 {
        fill: url(#linear-gradient-7);
      }

      .cls-10 {
        fill: url(#linear-gradient-2);
      }

      .cls-11 {
        fill: url(#linear-gradient-9);
      }

      .cls-12 {
        fill: url(#linear-gradient-8);
      }

      .cls-13 {
        fill: url(#linear-gradient-10);
      }

      .cls-14 {
        fill: url(#linear-gradient-4);
      }
    </style>
    <linearGradient id="linear-gradient" x1="23.14" y1="21.84" x2="28.25" y2="29.55" gradientUnits="userSpaceOnUse">
      <stop offset="0" stop-color="#dcf6fa"/>
      <stop offset="1" stop-color="#bdeffa"/>
    </linearGradient>
    <linearGradient id="linear-gradient-2" x1="18.25" y1="14.46" x2="33.15" y2="36.93" gradientUnits="userSpaceOnUse">
      <stop offset=".13" stop-color="#dcf6fa"/>
      <stop offset="1" stop-color="#bdeffa"/>
    </linearGradient>
    <linearGradient id="linear-gradient-3" x1="31.33" y1="31.33" x2="20.23" y2="20.23" xlink:href="#linear-gradient"/>
    <linearGradient id="linear-gradient-4" x1="20.92" y1="14.96" x2="27.09" y2="28.82" gradientUnits="userSpaceOnUse">
      <stop offset="0" stop-color="#fff"/>
      <stop offset=".22" stop-color="#fff" stop-opacity=".8"/>
      <stop offset=".7" stop-color="#fff" stop-opacity=".31"/>
      <stop offset="1" stop-color="#fff" stop-opacity="0"/>
    </linearGradient>
    <linearGradient id="linear-gradient-5" x1="18.72" y1="15.93" x2="24.89" y2="29.8" xlink:href="#linear-gradient-4"/>
    <linearGradient id="linear-gradient-6" x1="-527.82" y1="593.51" x2="-518.78" y2="607.15" gradientTransform="translate(646.38 569.98) rotate(90)" xlink:href="#linear-gradient"/>
    <linearGradient id="linear-gradient-7" x1="67.16" y1="1163.49" x2="76.2" y2="1177.13" gradientTransform="translate(76.39 1216.36) rotate(-180)" xlink:href="#linear-gradient"/>
    <linearGradient id="linear-gradient-8" x1="42.16" y1="-1.47" x2="51.2" y2="12.17" xlink:href="#linear-gradient"/>
    <linearGradient id="linear-gradient-9" x1="637.15" y1="568.51" x2="646.18" y2="582.15" gradientTransform="translate(-569.98 646.38) rotate(-90)" xlink:href="#linear-gradient"/>
    <linearGradient id="linear-gradient-10" x1="-527.82" y1="593.51" x2="-518.78" y2="607.15" gradientTransform="translate(646.38 569.98) rotate(90)" xlink:href="#linear-gradient-4"/>
    <linearGradient id="linear-gradient-11" x1="67.16" y1="1163.49" x2="76.2" y2="1177.13" gradientTransform="translate(76.39 1216.36) rotate(-180)" xlink:href="#linear-gradient-4"/>
    <linearGradient id="linear-gradient-12" x1="42.16" y1="-1.47" x2="51.2" y2="12.17" xlink:href="#linear-gradient-4"/>
    <linearGradient id="linear-gradient-13" x1="637.15" y1="568.51" x2="646.18" y2="582.15" gradientTransform="translate(-569.98 646.38) rotate(-90)" xlink:href="#linear-gradient-4"/>
    <linearGradient id="linear-gradient-14" x1="31.33" y1="31.33" x2="20.23" y2="20.23" gradientUnits="userSpaceOnUse">
      <stop offset="0" stop-color="#bdeffa"/>
      <stop offset="1" stop-color="#dcf6fa"/>
    </linearGradient>
  </defs>
  <g class="cls-16">
    <g id="Layer_2" data-name="Layer 2">
      <g id="HCI">
        <g>
          <g>
            <g class="cls-17">
              <path class="cls-2" d="m30.33,25.65v.05c0,2.55-2.08,4.63-4.63,4.63h-.05c-2.53-.03-4.58-2.09-4.58-4.63s2.08-4.63,4.63-4.63,4.6,2.05,4.63,4.58Z"/>
              <path class="cls-10" d="m42.15,24.84c-1.6-4.79-5.23-8.66-9.87-10.56-2.03-.84-4.25-1.29-6.58-1.29-7.66,0-14.16,4.97-16.45,11.86-.19.55-.19,1.16,0,1.71.6,1.8,1.49,3.47,2.61,4.95,3.16,4.19,8.19,6.9,13.84,6.9,7.66,0,14.16-4.97,16.45-11.86.19-.55.19-1.16,0-1.71Zm-16.45,8.95c-1.76,0-3.39-.56-4.72-1.53-2.04-1.46-3.37-3.86-3.37-6.56,0-4.47,3.62-8.09,8.09-8.09,2.7,0,5.1,1.33,6.56,3.37.97,1.33,1.53,2.96,1.53,4.72,0,4.47-3.62,8.09-8.09,8.09Z"/>
              <path class="cls-4" d="m32.26,20.98c-1.46-2.04-3.86-3.37-6.56-3.37-4.47,0-8.09,3.62-8.09,8.09,0,2.7,1.33,5.1,3.37,6.56,1.33.97,2.96,1.53,4.72,1.53,4.47,0,8.09-3.62,8.09-8.09,0-1.76-.56-3.39-1.53-4.72Zm-1.93,4.72c0,2.55-2.08,4.63-4.63,4.63h-.05c-2.53-.03-4.58-2.09-4.58-4.63s2.08-4.63,4.63-4.63,4.6,2.05,4.63,4.58v.05Z"/>
            </g>
            <g class="cls-17">
              <path class="cls-14" d="m30.32,25.65h0c-1.19,1.88-2.79,3.48-4.67,4.67h0c-2.53-.03-4.58-2.08-4.58-4.63s2.07-4.63,4.63-4.63,4.6,2.04,4.63,4.58Z"/>
              <path class="cls-6" d="m32.64,17.61c0,1.16-.13,2.29-.38,3.37-1.47-2.04-3.86-3.37-6.56-3.37-4.47,0-8.09,3.62-8.09,8.09,0,2.7,1.33,5.1,3.37,6.56-1.08.25-2.21.38-3.37.38-2.04,0-3.97-.4-5.75-1.13-1.13-1.49-2.02-3.15-2.61-4.95-.19-.56-.19-1.16,0-1.71,2.29-6.89,8.79-11.87,16.45-11.87,2.33,0,4.55.46,6.58,1.29.25,1.07.37,2.18.37,3.33Z"/>
            </g>
          </g>
          <g>
            <g>
              <path class="cls-3" d="m38.2,48.89c0-1.38,1.12-2.5,2.5-2.5h5.7v-5.7c0-1.38,1.12-2.5,2.5-2.5s2.5,1.12,2.5,2.5v8.2c0,1.38-1.12,2.5-2.5,2.5h-8.2c-1.38,0-2.5-1.12-2.5-2.5Z"/>
              <path class="cls-9" d="m2.5,38.2c1.38,0,2.5,1.12,2.5,2.5v5.7h5.7c1.38,0,2.5,1.12,2.5,2.5s-1.12,2.5-2.5,2.5H2.5C1.12,51.39,0,50.27,0,48.89v-8.2c0-1.38,1.12-2.5,2.5-2.5Z"/>
            </g>
            <g>
              <path class="cls-12" d="m48.89,13.2c-1.38,0-2.5-1.12-2.5-2.5v-5.7h-5.7c-1.38,0-2.5-1.12-2.5-2.5s1.12-2.5,2.5-2.5h8.2c1.38,0,2.5,1.12,2.5,2.5v8.2c0,1.38-1.12,2.5-2.5,2.5Z"/>
              <path class="cls-11" d="m13.2,2.5c0,1.38-1.12,2.5-2.5,2.5h-5.7v5.7c0,1.38-1.12,2.5-2.5,2.5s-2.5-1.12-2.5-2.5V2.5C0,1.12,1.12,0,2.5,0h8.2c1.38,0,2.5,1.12,2.5,2.5Z"/>
            </g>
          </g>
          <g class="cls-15">
            <g>
              <path class="cls-13" d="m38.2,48.89c0-1.38,1.12-2.5,2.5-2.5h5.7v-5.7c0-1.38,1.12-2.5,2.5-2.5s2.5,1.12,2.5,2.5v8.2c0,1.38-1.12,2.5-2.5,2.5h-8.2c-1.38,0-2.5-1.12-2.5-2.5Z"/>
              <path class="cls-5" d="m2.5,38.2c1.38,0,2.5,1.12,2.5,2.5v5.7h5.7c1.38,0,2.5,1.12,2.5,2.5s-1.12,2.5-2.5,2.5H2.5C1.12,51.39,0,50.27,0,48.89v-8.2c0-1.38,1.12-2.5,2.5-2.5Z"/>
            </g>
            <g>
              <path class="cls-1" d="m48.89,13.2c-1.38,0-2.5-1.12-2.5-2.5v-5.7h-5.7c-1.38,0-2.5-1.12-2.5-2.5s1.12-2.5,2.5-2.5h8.2c1.38,0,2.5,1.12,2.5,2.5v8.2c0,1.38-1.12,2.5-2.5,2.5Z"/>
              <path class="cls-7" d="m13.2,2.5c0,1.38-1.12,2.5-2.5,2.5h-5.7v5.7c0,1.38-1.12,2.5-2.5,2.5s-2.5-1.12-2.5-2.5V2.5C0,1.12,1.12,0,2.5,0h8.2c1.38,0,2.5,1.12,2.5,2.5Z"/>
            </g>
          </g>
          <path class="cls-8" d="m32.26,20.98c-1.46-2.04-3.86-3.37-6.56-3.37-4.47,0-8.09,3.62-8.09,8.09,0,2.7,1.33,5.1,3.37,6.56,1.33.97,2.96,1.53,4.72,1.53,4.47,0,8.09-3.62,8.09-8.09,0-1.76-.56-3.39-1.53-4.72Zm-1.93,4.72c0,2.55-2.08,4.63-4.63,4.63h-.05c-2.53-.03-4.58-2.09-4.58-4.63s2.08-4.63,4.63-4.63,4.6,2.05,4.63,4.58v.05Z"/>
        </g>
      </g>
    </g>
  </g>
</svg>