<svg width="16" height="15" viewBox="0 0 16 15" fill="none" xmlns="http://www.w3.org/2000/svg">
<path fill-rule="evenodd" clip-rule="evenodd" d="M10.6214 8.04949H8.54946V10.1184C8.54946 10.4218 8.3033 10.6679 7.99998 10.6679C7.69667 10.6679 7.45051 10.4218 7.45051 10.1184V8.04949H5.37864C5.07532 8.04949 4.82916 7.80332 4.82916 7.50001C4.82916 7.1967 5.07532 6.95053 5.37864 6.95053H7.45051V4.88155C7.45051 4.57824 7.69667 4.33207 7.99998 4.33207C8.3033 4.33207 8.54946 4.57824 8.54946 4.88155V6.95053H10.6214C10.9247 6.95053 11.1708 7.1967 11.1708 7.50001C11.1708 7.80332 10.9247 8.04949 10.6214 8.04949ZM7.99998 0C2.462 0 0.5 1.962 0.5 7.50001C0.5 13.038 2.462 15 7.99998 15C13.5373 15 15.5 13.038 15.5 7.50001C15.5 1.962 13.5373 0 7.99998 0Z" fill="white"/>
</svg>
