<svg width="196" height="60" viewBox="0 0 196 60" fill="none" xmlns="http://www.w3.org/2000/svg">
<path d="M170.637 0H24.5576C21.5518 4.24199e-05 18.5989 0.791303 15.9958 2.29425C13.3928 3.7972 11.2313 5.95889 9.72852 8.56201L2.29358 21.438C0.791026 24.0413 0 26.9942 0 30C0 33.0058 0.791026 35.9587 2.29358 38.562L9.72852 51.438C11.2313 54.0411 13.3928 56.2027 15.9958 57.7057C18.5989 59.2086 21.5518 60 24.5576 60H170.637C173.643 59.9999 176.596 59.2085 179.199 57.7056C181.802 56.2026 183.964 54.041 185.467 51.438L192.901 38.562C194.404 35.9588 195.195 33.0059 195.195 30C195.195 26.9941 194.404 24.0412 192.901 21.438L185.467 8.56201C183.964 5.95895 181.802 3.79731 179.199 2.29437C176.596 0.791435 173.643 0.000143762 170.637 0Z" fill="#2828F8"/>
<path opacity="0.7" d="M59.9655 27.88C62.5905 26.687 67.3655 25.89 72.8185 25.89C81.1035 25.89 87.8185 27.73 87.8185 30C87.8185 32.27 81.1035 34.11 72.8185 34.11C64.5335 34.11 57.8185 32.27 57.8185 30C57.8185 29.224 58.6025 28.5 59.9655 27.88Z" fill="#EFF2FB"/>
<path opacity="0.8" d="M83.4243 40.6069C81.8243 42.2069 75.7713 38.7639 69.9133 32.9069C64.0553 27.0499 60.6064 20.9999 62.2134 19.3939C62.7614 18.8459 63.8283 18.8879 65.2293 19.4129C67.9293 20.4259 71.8693 23.2389 75.7293 27.0939C81.5823 32.9509 85.0303 39.0019 83.4243 40.6069Z" fill="#EFF2FB"/>
<path opacity="0.9" d="M74.9384 17.147C76.1314 19.772 76.9283 24.547 76.9283 30C76.9283 38.284 75.0885 45 72.8185 45C70.5485 45 68.7084 38.284 68.7084 30C68.7084 21.716 70.5485 15 72.8185 15C73.5945 15 74.3184 15.784 74.9384 17.147Z" fill="#EFF2FB"/>
<path d="M62.2313 37.5899C63.2443 34.8899 66.0565 30.9499 69.9125 27.0899C75.7705 21.2319 81.8204 17.7839 83.4254 19.3899C85.0304 20.9959 81.5825 27.0449 75.7255 32.9029C69.8685 38.7609 63.8175 42.2089 62.2125 40.6029C61.6635 40.0539 61.7053 38.9869 62.2313 37.5859" fill="#EFF2FB"/>
<path d="M99.1128 34.581H95.5758L95.0088 36.255H92.5923L96.0213 26.778H98.6943L102.123 36.255H99.6798L99.1128 34.581ZM98.5188 32.799L97.3443 29.3295L96.1833 32.799H98.5188ZM105.475 26.778V36.255H103.167V26.778H105.475ZM115.747 31.395C116.296 31.512 116.737 31.7865 117.07 32.2185C117.403 32.6415 117.569 33.1275 117.569 33.6765C117.569 34.4685 117.29 35.0985 116.732 35.5665C116.183 36.0255 115.414 36.255 114.424 36.255H110.009V26.778H114.275C115.238 26.778 115.99 26.9985 116.53 27.4395C117.079 27.8805 117.353 28.479 117.353 29.235C117.353 29.793 117.205 30.2565 116.908 30.6255C116.62 30.9945 116.233 31.251 115.747 31.395ZM112.318 30.612H113.83C114.208 30.612 114.496 30.531 114.694 30.369C114.901 30.198 115.004 29.9505 115.004 29.6265C115.004 29.3025 114.901 29.055 114.694 28.884C114.496 28.713 114.208 28.6275 113.83 28.6275H112.318V30.612ZM114.019 34.392C114.406 34.392 114.703 34.3065 114.91 34.1355C115.126 33.9555 115.234 33.699 115.234 33.366C115.234 33.033 115.121 32.772 114.896 32.583C114.68 32.394 114.379 32.2995 113.992 32.2995H112.318V34.392H114.019ZM123.39 36.3495C122.499 36.3495 121.68 36.1425 120.933 35.7285C120.195 35.3145 119.606 34.7385 119.165 34.0005C118.733 33.2535 118.517 32.4165 118.517 31.4895C118.517 30.5625 118.733 29.73 119.165 28.992C119.606 28.254 120.195 27.678 120.933 27.264C121.68 26.85 122.499 26.643 123.39 26.643C124.281 26.643 125.096 26.85 125.834 27.264C126.581 27.678 127.166 28.254 127.589 28.992C128.021 29.73 128.237 30.5625 128.237 31.4895C128.237 32.4165 128.021 33.2535 127.589 34.0005C127.157 34.7385 126.572 35.3145 125.834 35.7285C125.096 36.1425 124.281 36.3495 123.39 36.3495ZM123.39 34.2435C124.146 34.2435 124.749 33.9915 125.199 33.4875C125.658 32.9835 125.888 32.3175 125.888 31.4895C125.888 30.6525 125.658 29.9865 125.199 29.4915C124.749 28.9875 124.146 28.7355 123.39 28.7355C122.625 28.7355 122.013 28.983 121.554 29.478C121.104 29.973 120.879 30.6435 120.879 31.4895C120.879 32.3265 121.104 32.997 121.554 33.501C122.013 33.996 122.625 34.2435 123.39 34.2435ZM136.338 26.778V28.6275H133.827V36.255H131.519V28.6275H129.008V26.778H136.338Z" fill="#F9F9F9"/>
</svg>
