<svg width="31" height="31" viewBox="0 0 31 31" fill="none" xmlns="http://www.w3.org/2000/svg">
<g id="Vector">
<path d="M25.7824 16.1039C25.7464 16.6002 25.7421 17.0399 25.6777 17.4699C25.5742 18.4199 25.1338 19.2968 24.441 19.9319C23.9801 20.3386 23.4044 20.5812 22.7993 20.6238C22.2067 20.6677 21.6123 20.5696 21.0626 20.3371C20.4256 20.0877 19.7498 19.9603 19.0685 19.9611C18.1816 19.9488 17.2938 19.9337 16.4095 19.9611C15.2967 19.9824 14.1873 20.0931 13.0912 20.292C12.7327 20.3619 12.7205 20.3805 12.7943 20.7591C13.1373 22.5126 13.4728 24.2669 13.8279 26.0186C13.9447 26.5739 13.9359 27.1495 13.8021 27.7007C13.6683 28.252 13.4132 28.764 13.0564 29.197C12.6997 29.63 12.251 29.9724 11.7452 30.1975C11.2393 30.4226 10.6899 30.5244 10.1397 30.4951C9.35057 30.4423 8.60032 30.1226 8.00531 29.5853C7.4103 29.048 7.00383 28.3233 6.8488 27.5234C6.69699 26.7873 6.56233 26.0486 6.41995 25.3117C6.28844 24.6441 6.15489 23.977 6.01937 23.3105C5.95247 22.9814 5.91381 22.9346 5.58445 22.9487C4.80337 23.0009 4.0223 22.8468 3.31499 22.5011C2.64125 22.1697 2.056 21.674 1.60985 21.0568C1.1637 20.4396 0.870228 19.7195 0.754665 18.9589C0.639101 18.1983 0.704985 17.4201 0.946684 16.6917C1.18838 15.9634 1.59856 15.3067 2.14172 14.7787C2.52877 14.4179 2.95842 14.1091 3.42052 13.8595C4.57984 13.2049 5.66805 12.4246 6.66683 11.5319C7.42562 10.836 8.12275 10.0716 8.74951 9.24763C9.74477 7.90848 10.653 6.50289 11.4683 5.04007C11.6743 4.62509 11.8423 4.19119 11.9701 3.74401C12.1279 3.28575 12.2221 2.80183 12.4117 2.35948C12.7157 1.67944 13.2414 1.13096 13.8972 0.809581C14.5529 0.488201 15.2972 0.414293 16.0004 0.600735C16.8965 0.850989 17.7364 1.28021 18.4723 1.86406C19.503 2.66907 20.4258 3.61117 21.2169 4.66585C22.2139 5.95331 23.0742 7.34727 23.7831 8.82386C24.707 10.6471 25.3419 12.6112 25.6633 14.6415C25.7242 15.1511 25.7438 15.6563 25.7824 16.1039ZM5.31872 20.5707C5.76629 20.5922 6.21039 20.4807 6.59836 20.2495C8.00098 19.4386 9.49007 18.7985 11.0359 18.3422C12.3681 17.9689 13.734 17.7371 15.1119 17.6503C15.7492 17.6035 16.3906 17.6052 17.0296 17.5778C17.1117 17.5638 17.1919 17.5391 17.2681 17.5044C17.2411 17.4316 17.2054 17.3627 17.1617 17.2991C16.3728 16.39 15.6631 15.411 15.0407 14.3735C13.9415 12.5854 13.0844 10.6506 12.4934 8.62304C12.4458 8.48436 12.3907 8.34851 12.3286 8.21609C12.2287 8.3218 12.1354 8.43378 12.049 8.55138C10.9532 10.3285 9.62909 11.9445 8.11294 13.3552C7.31639 14.0679 6.46763 14.7159 5.57419 15.2936C5.00639 15.6607 4.41547 15.9907 3.86654 16.3844C3.57727 16.5942 3.34509 16.877 3.19207 17.2058C3.03905 17.5347 2.97027 17.8985 2.99251 18.2625C2.99119 18.5738 3.05126 18.8821 3.16882 19.1688C3.28639 19.4554 3.45894 19.7145 3.67641 19.9303C3.89388 20.1461 4.15154 20.3141 4.4338 20.4242C4.71607 20.5343 5.01724 20.5841 5.31872 20.5707ZM23.4803 16.1048C23.4271 15.6492 23.3859 15.0918 23.2933 14.5433C22.9857 12.883 22.4383 11.2798 21.669 9.78728C21.0339 8.48887 20.2702 7.26176 19.3901 6.12558C18.6557 5.1541 17.789 4.29713 16.817 3.58123C16.3957 3.2597 15.9138 3.03222 15.4025 2.91329C15.2054 2.85467 14.9941 2.87585 14.8116 2.97252C14.6291 3.0692 14.4891 3.23407 14.4205 3.43349C14.3506 3.61187 14.3012 3.79802 14.273 3.98819C14.1628 4.82611 14.1989 5.67761 14.3794 6.50245C14.7335 8.3709 15.3717 10.1698 16.2705 11.8327C17.2231 13.7791 18.5244 15.5219 20.1054 16.9691C20.5725 17.3578 21.0623 17.7165 21.5721 18.0431C21.8458 18.2304 22.17 18.3233 22.4982 18.3085C22.6175 18.3133 22.7359 18.2835 22.8395 18.2225C22.9432 18.1615 23.0282 18.0718 23.085 17.9635C23.2078 17.7446 23.302 17.5099 23.3653 17.2655C23.4365 16.9205 23.44 16.5666 23.4803 16.1048ZM11.6141 26.8095C11.5961 26.7042 11.5748 26.5538 11.5456 26.4043C11.2631 24.9499 10.9806 23.4951 10.6982 22.0401C10.6562 21.8207 10.6123 21.5978 10.5677 21.3828C10.4897 21.0289 10.4707 21.0113 10.1602 21.1457C9.59758 21.3881 9.04014 21.6465 8.48693 21.9119C8.12584 22.0844 8.12849 22.095 8.20654 22.4949C8.49702 23.9794 8.78892 25.4633 9.08225 26.9466C9.1029 27.0566 9.13145 27.1648 9.16789 27.2704C9.27078 27.5582 9.46888 27.7994 9.7272 27.9514C9.98552 28.1034 10.2875 28.1566 10.5801 28.1015C10.8727 28.0465 11.1372 27.8867 11.3268 27.6503C11.5164 27.414 11.6189 27.1162 11.6166 26.8095H11.6141Z" fill="#F88808"/>
<path d="M23.4356 3.92892C23.4819 3.74048 23.537 3.48657 23.6073 3.23267C23.6741 2.95786 23.7626 2.68919 23.8722 2.42938C23.9882 2.1795 24.1899 1.98277 24.4382 1.87708C24.6865 1.7714 24.964 1.76424 25.2172 1.85699C25.4926 1.94442 25.7255 2.1365 25.8688 2.39436C26.0121 2.65223 26.055 2.95662 25.989 3.24594C25.899 3.63029 25.7868 4.00873 25.6529 4.37922C25.5994 4.54349 25.5105 4.69323 25.3933 4.81735C25.276 4.94148 25.1333 5.03681 24.9755 5.09628C24.8177 5.15575 24.649 5.17784 24.4817 5.16091C24.3145 5.14399 24.1532 5.08848 24.0096 4.9985C23.8285 4.89109 23.6793 4.73467 23.5782 4.54616C23.4771 4.35765 23.4276 4.14421 23.4356 3.92892Z" fill="#F88808"/>
<path d="M29.3864 12.9394C28.8981 12.876 28.4247 12.7232 27.9884 12.4882C27.7741 12.3605 27.6066 12.1633 27.5119 11.9274C27.4171 11.6915 27.4003 11.4299 27.4643 11.1832C27.5283 10.9365 27.6694 10.7185 27.8657 10.5629C28.062 10.4073 28.3027 10.3228 28.5503 10.3225C29.0906 10.3666 29.6187 10.5108 30.1094 10.7481C30.1797 10.7853 30.243 10.835 30.2964 10.8949C30.4804 11.0517 30.6104 11.2655 30.6673 11.5045C30.7241 11.7436 30.7049 11.9951 30.6122 12.2219C30.5073 12.4595 30.3323 12.6568 30.1122 12.7856C29.8921 12.9145 29.6379 12.9683 29.3864 12.9394Z" fill="#F88808"/>
<path d="M28.4659 7.34202C28.4733 7.5491 28.4227 7.75396 28.3198 7.93195C28.2169 8.10994 28.0664 8.25347 27.8863 8.34525C27.5824 8.55233 27.2604 8.73003 26.9248 8.87607C26.6578 9.00534 26.3527 9.02291 26.0734 8.92509C25.7941 8.82727 25.5622 8.62167 25.4267 8.35143C25.2912 8.0812 25.2625 7.76733 25.3465 7.4757C25.4306 7.18407 25.621 6.93736 25.8776 6.78733C26.1906 6.59624 26.5199 6.43345 26.8381 6.25209C27.0135 6.16181 27.2088 6.12032 27.4045 6.13173C27.6002 6.14314 27.7897 6.20705 27.9542 6.31715C28.1186 6.42724 28.2522 6.5797 28.342 6.75945C28.4318 6.9392 28.4745 7.14001 28.4659 7.34202Z" fill="#F88808"/>
</g>
</svg>
