<svg width="24" height="24" viewBox="0 0 24 24" fill="none" xmlns="http://www.w3.org/2000/svg">
<path fill-rule="evenodd" clip-rule="evenodd" d="M20.7558 23.11L2.3542 23.11C1.05401 23.11 -3.94988e-06 22.056 -3.60889e-06 20.7558L1.81453e-06 2.35418C2.15553e-06 1.05399 1.05402 -2.1229e-05 2.35421 -2.0888e-05L20.7558 -1.54646e-05C22.056 -1.51236e-05 23.11 1.054 23.11 2.35419L23.11 20.7558C23.11 22.056 22.056 23.11 20.7558 23.11ZM7.97636 12.1063C8.07336 12.2739 8.21281 12.4128 8.38069 12.5092L13.627 15.5383C13.7944 15.6356 13.9846 15.6871 14.1783 15.6875C14.372 15.6878 14.5624 15.637 14.7301 15.5402C14.8979 15.4434 15.0369 15.304 15.1335 15.1361C15.2301 14.9683 15.2808 14.778 15.2802 14.5843L15.2802 8.52571C15.2808 8.33205 15.2301 8.14175 15.1335 7.97391C15.0369 7.80606 14.8979 7.66662 14.7301 7.56982C14.5624 7.47301 14.372 7.42227 14.1783 7.42259C13.9847 7.42291 13.7944 7.47441 13.627 7.57177L8.38069 10.6008C8.21281 10.6972 8.07336 10.8362 7.97636 11.0037C7.87937 11.1712 7.82816 11.3615 7.82816 11.555C7.82816 11.7486 7.87937 11.9388 7.97636 12.1063Z" fill="#11664F"/>
</svg>
