<svg width="24" height="24" viewBox="0 0 24 24" fill="var(--Secondary)" xmlns="http://www.w3.org/2000/svg">
<path fill-rule="evenodd" clip-rule="evenodd" d="M2.35421 0L20.7558 3.51607e-06C22.056 3.7434e-06 23.11 1.05402 23.11 2.35421L23.11 20.7558C23.11 22.056 22.056 23.11 20.7558 23.11L2.3542 23.11C1.05401 23.11 -2.27332e-07 22.056 0 20.7558L3.51607e-06 2.3542C3.7434e-06 1.05401 1.05402 -2.27333e-07 2.35421 0ZM15.1336 11.0036C15.0366 10.8361 14.8972 10.6971 14.7293 10.6008L9.48301 7.5717C9.31559 7.47434 9.12535 7.42284 8.93169 7.42252C8.73802 7.4222 8.54762 7.47294 8.37988 7.56975C8.21215 7.66655 8.07314 7.80599 7.97653 7.97384C7.87992 8.14169 7.82924 8.33198 7.82979 8.52564L7.82978 14.5843C7.82924 14.7779 7.87992 14.9682 7.97653 15.1361C8.07313 15.3039 8.21215 15.4434 8.37988 15.5402C8.54762 15.637 8.73802 15.6877 8.93169 15.6874C9.12535 15.6871 9.31559 15.6356 9.483 15.5382L14.7293 12.5091C14.8972 12.4128 15.0366 12.2738 15.1336 12.1063C15.2306 11.9388 15.2818 11.7485 15.2818 11.555C15.2818 11.3614 15.2306 11.1712 15.1336 11.0036Z" fill="#11664F"/>
</svg>
