<svg width="16" height="16" viewBox="0 0 16 16" fill="none" xmlns="http://www.w3.org/2000/svg">
<path fill-rule="evenodd" clip-rule="evenodd" d="M11.1055 0.527946C10.2457 0.663658 9.52274 1.01435 8.86704 1.61388C8.65785 1.80516 7.88505 2.5868 7.14975 3.35086C5.92148 4.62713 5.79307 4.78048 5.57011 5.23748C5.25159 5.8904 5.1405 6.37116 5.1405 7.09647C5.1405 8.22456 5.53408 9.21012 6.28563 9.96389C6.51389 10.1929 6.77707 10.4197 6.87044 10.4679L7.04018 10.5555L7.41363 10.154C7.61905 9.93314 7.89576 9.58997 8.02853 9.3914L8.26986 9.03043L8.0449 8.85273C7.67763 8.56266 7.49146 8.34122 7.32702 7.99882C7.19644 7.72693 7.17183 7.5958 7.17253 7.17561C7.17371 6.45407 7.27462 6.29372 8.60563 4.89902C10.7739 2.62696 10.959 2.49272 11.8523 2.54434C12.38 2.57486 12.7593 2.74621 13.1309 3.12189C13.4909 3.48574 13.6326 3.82132 13.6632 4.38257C13.7051 5.14945 13.5846 5.38677 12.6866 6.30665L11.9472 7.06407L12.0552 7.57552C12.1874 8.20216 12.2348 9.08829 12.1605 9.5444C12.13 9.73145 12.1263 9.87698 12.1524 9.86781C12.1784 9.85858 12.817 9.21453 13.5715 8.43654C15.0523 6.90966 15.2715 6.61589 15.5436 5.79379C15.6797 5.38231 15.6992 5.22766 15.6992 4.55898C15.6992 3.89147 15.6796 3.73494 15.5441 3.32416C15.1023 1.98385 14.0318 0.966365 12.706 0.626496C12.2594 0.512011 11.5021 0.465382 11.1055 0.527946ZM9.2283 5.58193C8.81688 5.83366 8.10613 6.79 8.17331 7.00144C8.1935 7.06489 8.23183 7.11681 8.2585 7.11681C8.28523 7.11681 8.44107 7.23712 8.60481 7.38418C9.31597 8.02276 9.45179 9.0276 8.93292 9.81059C8.81905 9.98235 8.0907 10.7795 7.31437 11.5819C5.60573 13.348 5.47515 13.4385 4.64005 13.4367C4.20843 13.4358 4.05954 13.4106 3.83722 13.3011C3.39807 13.0847 3.10204 12.7917 2.89174 12.3651C2.72465 12.0261 2.69886 11.9139 2.70004 11.5297C2.70198 10.8615 2.85653 10.5807 3.7263 9.66447C4.32689 9.03184 4.43787 8.88654 4.41473 8.76323C4.39954 8.68238 4.34155 8.39132 4.28586 8.11643C4.20985 7.74104 4.1913 7.43004 4.21138 6.86691C4.2261 6.45454 4.23157 6.1172 4.22351 6.1172C4.2155 6.1172 3.57734 6.77218 2.80542 7.57275C1.28619 9.14826 1.11857 9.37941 0.833262 10.2921C0.718101 10.6604 0.696081 10.8542 0.699555 11.4681C0.703087 12.0912 0.72652 12.2716 0.853633 12.6539C1.27824 13.9305 2.25299 14.9283 3.4331 15.2943C4.05895 15.4884 4.61797 15.5432 5.19254 15.4669C6.21851 15.3305 6.88716 14.9941 7.73992 14.1854C8.62053 13.3502 10.4063 11.4417 10.651 11.0741C11.0376 10.4936 11.2137 9.90615 11.247 9.08664C11.2819 8.22815 11.1911 7.77609 10.8416 7.06912C10.5913 6.56285 9.9278 5.78197 9.57319 5.57629C9.41028 5.4818 9.3915 5.48209 9.2283 5.58193Z" fill="black"/>
</svg>
