<svg width="314" height="110" viewBox="0 0 314 110" fill="none" xmlns="http://www.w3.org/2000/svg">
<path d="M229.261 41.832C230.71 41.832 232.161 41.799 233.61 41.846C234.304 41.868 234.528 41.64 234.509 40.946C234.465 39.4087 234.462 37.871 234.5 36.333C234.535 34.993 233.986 34.245 232.6 34.22C232.134 34.211 231.745 34.202 231.758 33.536C231.772 32.845 232.198 32.914 232.646 32.915C234.846 32.92 237.038 32.915 239.235 32.922C239.683 32.922 240.245 32.754 240.253 33.557C240.259 34.242 239.803 34.157 239.37 34.223C237.598 34.48 237.37 34.708 237.37 36.492C237.352 41.062 237.352 45.6317 237.37 50.201C237.378 51.923 237.595 52.144 239.295 52.383C239.803 52.455 240.274 52.451 240.209 53.175C240.144 53.899 239.615 53.693 239.222 53.695C236.937 53.71 234.653 53.705 232.368 53.7C231.994 53.7 231.558 53.816 231.531 53.174C231.506 52.589 231.765 52.465 232.295 52.389C234.389 52.089 234.483 51.956 234.495 49.789C234.503 48.032 234.48 46.274 234.508 44.517C234.517 43.903 234.441 43.562 233.677 43.572C230.689 43.614 227.701 43.609 224.714 43.572C223.977 43.564 223.844 43.872 223.855 44.517C223.888 46.494 223.899 48.472 223.867 50.448C223.822 50.6987 223.837 50.9562 223.908 51.2004C223.98 51.4447 224.107 51.6692 224.279 51.8564C224.451 52.0437 224.665 52.1887 224.902 52.2802C225.14 52.3717 225.395 52.4072 225.649 52.384C226.149 52.409 226.779 52.302 226.706 53.157C226.638 53.964 226.026 53.688 225.607 53.693C223.454 53.717 221.3 53.712 219.147 53.693C218.747 53.693 218.226 53.879 218.169 53.163C218.112 52.447 218.58 52.39 219.092 52.388C220.5 52.382 220.998 51.606 220.992 50.288C220.972 45.6313 220.972 40.974 220.992 36.316C221 34.967 220.434 34.256 219.068 34.216C218.574 34.203 218.076 34.231 218.13 33.477C218.181 32.777 218.684 32.918 219.094 32.917C221.246 32.907 223.399 32.907 225.552 32.917C225.952 32.917 226.466 32.742 226.524 33.46C226.584 34.204 226.108 34.194 225.605 34.22C225.362 34.1986 225.117 34.2326 224.89 34.3195C224.662 34.4064 224.457 34.5438 224.29 34.7215C224.124 34.8993 223.999 35.1125 223.927 35.3453C223.855 35.578 223.837 35.8241 223.873 36.065C223.895 37.69 223.895 39.316 223.852 40.941C223.833 41.647 224.11 41.849 224.779 41.833C226.272 41.806 227.767 41.832 229.261 41.832Z" fill="#2C2A2B"/>
<path d="M142.093 67.994C142.118 72.494 141.949 76.653 142.279 80.807C142.379 82.007 143.191 82.416 144.261 82.507C144.774 82.552 145.381 82.472 145.288 83.314C145.199 84.126 144.575 83.809 144.172 83.814C142.239 83.846 140.306 83.836 138.373 83.822C137.973 83.822 137.458 83.993 137.433 83.259C137.411 82.625 137.778 82.539 138.258 82.514C139.766 82.436 140.297 81.514 140.306 80.14C140.335 75.789 140.391 71.44 140.375 67.088C140.37 65.505 139.621 64.76 138 64.42C137.518 64.32 136.867 64.437 136.957 63.595C137.057 62.708 137.735 63.122 138.181 63.042C140.724 62.586 142.434 63.563 144.029 65.657C147.376 70.049 151.049 74.193 154.843 78.744C154.843 77.599 154.843 76.796 154.843 75.992C154.824 73.092 154.843 70.192 154.769 67.292C154.714 65.015 154.491 64.792 152.285 64.362C151.83 64.274 151.573 64.187 151.576 63.656C151.576 63.088 151.882 63.03 152.335 63.033C154.401 63.046 156.466 63.039 158.534 63.033C158.934 63.033 159.346 62.982 159.365 63.587C159.381 64.064 159.219 64.244 158.72 64.357C156.803 64.792 156.653 64.939 156.628 66.898C156.561 72.171 156.56 77.445 156.498 82.718C156.493 83.167 156.862 83.833 156.129 84.064C155.472 84.271 155.099 83.801 154.722 83.339C150.752 78.4683 146.775 73.6017 142.791 68.739C142.65 68.583 142.495 68.431 142.093 67.994Z" fill="#2C2A2B"/>
<path d="M137.74 32.92C139.331 32.8838 140.922 32.9288 142.508 33.055C145.164 33.384 146.867 34.674 147.386 36.797C147.742 37.9689 147.684 39.2274 147.222 40.3616C146.76 41.4957 145.922 42.4364 144.848 43.026C143.697 43.692 143.797 44.172 144.434 45.101C145.674 46.913 146.809 48.795 148.192 50.507C148.815 51.42 149.678 52.1432 150.685 52.597C150.781 52.6139 150.872 52.6509 150.953 52.7056C151.033 52.7602 151.101 52.8312 151.152 52.9139C151.203 52.9967 151.236 53.0892 151.249 53.1856C151.261 53.282 151.253 53.3799 151.226 53.473C151.134 54.066 150.721 53.966 150.335 53.964C149.296 54.0159 148.262 53.8007 147.331 53.3388C146.4 52.877 145.602 52.1839 145.016 51.326C143.876 49.659 142.806 47.944 141.715 46.243C141.393 45.6125 140.84 45.1306 140.171 44.898C138.412 44.392 138.014 44.667 138.015 46.468C138.015 47.742 138.031 49.016 138.02 50.29C138.009 51.59 138.532 52.39 139.938 52.39C140.454 52.39 140.907 52.439 140.852 53.167C140.797 53.895 140.264 53.69 139.878 53.693C137.678 53.71 135.484 53.707 133.287 53.693C132.887 53.693 132.378 53.861 132.339 53.137C132.298 52.391 132.788 52.393 133.279 52.386C134.669 52.365 135.211 51.615 135.206 50.286C135.19 45.5847 135.19 40.8847 135.206 36.186C135.212 34.872 134.626 34.229 133.328 34.216C132.807 34.216 132.353 34.176 132.429 33.445C132.5 32.734 133.028 32.927 133.417 32.922C134.781 32.908 136.143 32.92 137.74 32.92ZM138.02 39.181H138.011C138.011 40.192 138.084 41.209 137.99 42.211C137.89 43.258 138.327 43.549 139.27 43.411C139.528 43.373 139.795 43.411 140.059 43.394C140.712 43.4033 141.358 43.2684 141.952 42.999C142.546 42.7295 143.073 42.3322 143.495 41.8354C143.918 41.3385 144.225 40.7545 144.396 40.125C144.566 39.4955 144.595 38.8362 144.481 38.194C144.191 35.507 142.072 33.994 139.197 34.366C138.383 34.466 138.02 34.839 138.02 35.627V39.181Z" fill="#2C2A2B"/>
<path d="M225.961 63.041C227.602 63.0018 229.244 63.0505 230.88 63.187C233.541 63.522 235.26 64.887 235.748 67.112C236.065 68.2718 235.979 69.5052 235.503 70.6095C235.027 71.7138 234.19 72.6234 233.128 73.189C232.033 73.803 232.088 74.255 232.693 75.148C233.975 77.038 235.163 78.993 236.61 80.768C237.198 81.5973 237.99 82.261 238.91 82.695C239.382 82.885 239.639 83.108 239.545 83.659C239.438 84.291 238.965 84.079 238.62 84.079C237.582 84.1342 236.547 83.9193 235.616 83.4552C234.686 82.9911 233.891 82.2937 233.311 81.431C232.201 79.797 231.163 78.113 230.076 76.463C229.838 76.046 229.528 75.6738 229.162 75.363C228.805 75.0998 228.388 74.9288 227.949 74.8653C227.51 74.8018 227.062 74.8477 226.646 74.999C225.97 75.251 226.378 76.099 226.354 76.665C226.299 77.937 226.342 79.213 226.344 80.487C226.344 81.721 226.823 82.508 228.19 82.521C228.652 82.521 229.2 82.467 229.19 83.229C229.176 84.049 228.58 83.829 228.151 83.829C225.951 83.846 223.755 83.837 221.558 83.836C221.125 83.836 220.659 83.928 220.659 83.224C220.659 82.574 221.074 82.582 221.529 82.518C223.284 82.27 223.505 82.051 223.514 80.248C223.538 75.6773 223.538 71.107 223.514 66.537C223.506 64.798 223.353 64.653 221.592 64.376C221.135 64.304 220.745 64.311 220.758 63.656C220.772 62.943 221.237 63.049 221.659 63.047C223.02 63.038 224.382 63.041 225.961 63.041ZM226.339 69.303H226.332V71.544C226.332 73.626 226.332 73.626 228.357 73.519C228.998 73.5349 229.635 73.4104 230.223 73.1542C230.811 72.898 231.335 72.5163 231.76 72.0358C232.184 71.5554 232.499 70.9879 232.681 70.3731C232.863 69.7583 232.908 69.1111 232.813 68.477C232.564 65.682 230.505 64.147 227.535 64.493C226.734 64.586 226.334 64.937 226.334 65.743C226.341 66.929 226.339 68.116 226.339 69.3V69.303Z" fill="#2C2A2B"/>
<path d="M123.601 42.439C124.131 42.639 124.495 42.763 124.851 42.91C125.717 43.1822 126.485 43.6993 127.064 44.3991C127.643 45.0988 128.006 45.9511 128.11 46.853C128.25 47.8178 128.114 48.8024 127.72 49.6937C127.325 50.585 126.687 51.3469 125.878 51.892C124.08 53.106 121.948 53.7318 119.779 53.683C117.453 53.744 115.123 53.711 112.796 53.697C112.411 53.697 111.877 53.908 111.818 53.176C111.759 52.444 112.219 52.458 112.73 52.39C114.53 52.152 114.723 51.948 114.73 50.153C114.744 45.541 114.707 40.929 114.749 36.318C114.761 34.97 114.284 34.218 112.881 34.218C112.39 34.218 112.03 34.145 112.058 33.506C112.083 32.915 112.448 32.915 112.858 32.919C115.843 32.952 118.834 32.872 121.811 33.048C124.728 33.221 126.197 34.425 126.701 36.626C127.224 38.906 126.439 40.485 124.002 42.054C123.859 42.173 123.725 42.3017 123.601 42.439ZM117.636 47.077H117.665C117.665 48.177 117.627 49.271 117.679 50.365C117.649 50.6962 117.714 51.0291 117.867 51.3246C118.019 51.62 118.253 51.8658 118.541 52.033C120.622 53.081 124.076 51.521 124.68 49.257C125.587 45.857 123.699 43.589 119.781 43.386C117.634 43.275 117.634 43.275 117.634 45.366L117.636 47.077ZM117.636 38.177V39.495C117.636 42.226 117.636 42.225 120.402 41.845C121.135 41.8323 121.844 41.583 122.423 41.1342C123.003 40.6855 123.422 40.0614 123.619 39.355C123.835 38.747 123.895 38.0941 123.793 37.4568C123.691 36.8195 123.429 36.2182 123.033 35.7085C122.637 35.1987 122.119 34.797 121.527 34.5403C120.935 34.2837 120.287 34.1804 119.645 34.24C117.912 34.248 117.644 34.504 117.637 36.198C117.635 36.858 117.638 37.517 117.637 38.177H117.636Z" fill="#2C2A2B"/>
<path d="M207.972 83.832C205.73 83.832 203.488 83.832 201.245 83.832C200.83 83.832 200.336 83.969 200.325 83.247C200.316 82.614 200.692 82.58 201.166 82.512C203.233 82.212 203.386 82.05 203.391 80.042C203.402 75.6007 203.402 71.16 203.391 66.72C203.385 64.864 203.261 64.72 201.483 64.389C200.983 64.297 200.663 64.204 200.696 63.602C200.729 63 201.136 63.045 201.531 63.045C205.751 63.045 209.971 63.0434 214.192 63.04C214.685 63.04 215.033 63.089 215.05 63.724C215.083 64.91 215.171 66.095 215.26 67.278C215.297 67.761 215.16 68 214.635 68.048C214.11 68.096 214 67.884 213.85 67.428C212.916 64.596 212.81 64.539 209.855 64.514C206.308 64.484 206.308 64.484 206.308 68.076C206.308 69.131 206.366 70.19 206.29 71.24C206.225 72.15 206.607 72.382 207.428 72.325C208.216 72.271 209.011 72.291 209.802 72.308C211.116 72.336 212.184 72.044 212.302 70.467C212.344 69.907 212.707 69.884 213.135 69.888C213.659 69.894 213.652 70.249 213.652 70.612C213.652 72.2827 213.652 73.9533 213.652 75.624C213.652 75.999 213.631 76.331 213.119 76.338C212.679 76.344 212.342 76.286 212.294 75.738C212.152 74.11 211.033 73.859 209.678 73.838C206.307 73.785 206.305 73.765 206.309 77.162C206.309 78.305 206.31 79.449 206.354 80.59C206.341 80.8111 206.374 81.0324 206.45 81.2402C206.526 81.4479 206.645 81.6378 206.798 81.7978C206.951 81.9578 207.135 82.0847 207.339 82.1704C207.543 82.2561 207.763 82.2988 207.984 82.296C209.471 82.4641 210.972 82.443 212.453 82.233C212.871 82.1832 213.27 82.0321 213.616 81.793C213.963 81.554 214.245 81.234 214.44 80.861C214.772 80.2922 215.063 79.7004 215.311 79.09C215.518 78.539 215.797 78.312 216.388 78.474C217.016 78.646 216.751 79.074 216.682 79.427C216.453 80.59 216.163 81.743 215.962 82.911C215.83 83.675 215.447 83.868 214.703 83.851C212.459 83.8 210.215 83.832 207.972 83.832Z" fill="#2C2A2B"/>
<path d="M129.18 70.483C129.116 69.122 129.026 67.762 128.997 66.4C129.019 66.1471 128.988 65.8922 128.906 65.6518C128.825 65.4114 128.693 65.1908 128.521 65.004C128.349 64.8173 128.14 64.6686 127.907 64.5676C127.674 64.4665 127.422 64.4152 127.169 64.417C126.703 64.355 125.88 64.632 125.934 63.665C125.996 62.572 126.853 63.081 127.345 63.065C129.189 63.006 131.037 63.038 132.884 63.044C133.265 63.044 133.695 62.957 133.739 63.572C133.781 64.155 133.514 64.348 132.979 64.372C131.493 64.429 130.925 65.28 130.922 66.697C130.914 69.247 130.847 71.797 130.816 74.345C130.807 75.7089 130.633 77.0668 130.299 78.389C129.892 80.2146 128.823 81.8249 127.299 82.9092C125.775 83.9935 123.904 84.4751 122.046 84.261C117.709 83.95 115.085 81.528 114.776 77.219C114.559 74.2 114.67 71.157 114.635 68.119C114.629 67.592 114.62 67.064 114.635 66.537C114.661 65.258 114.224 64.403 112.779 64.379C112.308 64.372 111.786 64.388 111.825 63.63C111.868 62.808 112.463 63.054 112.885 63.05C115.039 63.029 117.193 63.037 119.347 63.043C119.771 63.043 120.247 62.938 120.261 63.643C120.277 64.297 119.881 64.289 119.423 64.36C117.716 64.623 117.545 64.795 117.528 66.56C117.501 69.418 117.518 72.276 117.538 75.133C117.541 76.1464 117.692 77.1539 117.986 78.124C118.251 79.3187 118.929 80.3817 119.9 81.127C120.871 81.8724 122.073 82.2526 123.296 82.201C125.903 82.22 127.652 80.901 128.496 78.196C129.276 75.683 129.143 73.076 129.18 70.483Z" fill="#2C2A2B"/>
<path d="M133.8 14.132C135.133 12.5932 136.69 11.2642 138.42 10.19C139.506 9.58001 140.705 8.543 141.92 9.439C143.06 10.28 142.53 11.739 142.301 12.906C141.855 15.189 141.267 17.444 140.744 19.712C140.638 20.173 140.564 20.643 140.455 21.22C141.083 21.0855 141.661 20.7759 142.12 20.327C142.359 20.167 142.57 19.627 142.947 20.139C143.147 20.413 143.391 20.739 143.072 21.087C142.02 22.3975 140.61 23.3747 139.014 23.9C137.978 24.172 137.656 23.407 137.727 22.58C137.841 21.5777 138.018 20.5837 138.258 19.604C138.758 17.331 139.294 15.066 139.788 12.792C139.888 12.347 140.151 11.757 139.658 11.46C139.203 11.185 138.723 11.586 138.352 11.86C135.421 14.044 132.726 16.402 132.322 20.385C132.26 20.994 132.083 21.591 131.96 22.193C131.802 22.692 131.487 23.127 131.063 23.4343C130.639 23.7416 130.128 23.9052 129.605 23.901C128.85 23.732 129.21 23.128 129.297 22.715C130.088 18.977 130.915 15.246 131.713 11.509C132.207 9.19001 132.651 6.86001 133.156 4.54401C133.382 3.50901 133.206 2.91301 131.972 3.05901C131.682 3.09401 131.205 3.25101 131.171 2.67501C131.144 2.15401 131.397 1.92501 131.934 1.82401C132.923 1.63186 133.901 1.38481 134.864 1.08401C136.283 0.647008 136.448 0.762014 136.146 2.18401C135.391 5.75001 134.623 9.313 133.863 12.878C133.703 13.2775 133.681 13.7187 133.8 14.132Z" fill="#2C2A2B"/>
<path d="M186.532 78.987C188.541 74.7461 190.291 70.3871 191.772 65.934C192.163 64.748 191.39 64.603 190.56 64.445C190.036 64.345 189.302 64.456 189.446 63.545C189.581 62.695 190.274 63.069 190.717 63.058C192.474 63.015 194.232 63.032 195.99 63.047C196.39 63.047 196.914 62.869 196.969 63.583C197.015 64.175 196.707 64.355 196.193 64.383C194.469 64.475 193.876 65.783 193.328 67.103C191.128 72.371 188.981 77.658 186.993 83.01C186.859 83.372 186.757 83.889 186.482 84.032C185.662 84.458 185.282 83.997 184.982 83.193C182.955 77.764 180.876 72.355 178.822 66.936C178.322 65.613 177.741 64.396 176.054 64.348C175.594 64.334 175.482 64.048 175.482 63.639C175.482 63.175 175.721 63.039 176.145 63.039C178.345 63.0457 180.543 63.0457 182.738 63.039C183.153 63.039 183.413 63.15 183.417 63.619C183.431 63.7035 183.429 63.7899 183.409 63.8732C183.389 63.9566 183.354 64.0353 183.304 64.1047C183.253 64.1741 183.19 64.233 183.117 64.2778C183.044 64.3227 182.963 64.3526 182.878 64.366C181.178 64.883 181.17 64.911 181.809 66.594C183.375 70.7273 184.95 74.8583 186.532 78.987Z" fill="#2C2A2B"/>
<path d="M177.043 42.911C177.043 45.284 177.027 47.656 177.048 50.028C177.064 51.838 177.385 52.168 179.148 52.391C179.657 52.456 180.419 52.215 180.309 53.18C180.209 54.057 179.509 53.68 179.066 53.689C176.782 53.726 174.497 53.719 172.213 53.694C171.769 53.694 171.094 54.01 171.087 53.073C171.08 52.273 171.642 52.455 172.087 52.399C173.894 52.173 174.197 51.899 174.207 50.072C174.235 45.152 174.207 40.231 174.236 35.311C174.236 34.525 173.944 34.311 173.236 34.38C172.845 34.418 172.446 34.38 172.051 34.388C169.06 34.416 168.988 34.457 168.08 37.288C167.92 37.788 167.802 38.198 167.142 38.12C166.295 38.02 166.673 37.407 166.688 37.012C166.745 35.612 166.882 34.212 166.949 32.804C166.989 31.962 167.491 31.859 167.949 32.318C168.249 32.573 168.602 32.7589 168.982 32.8626C169.362 32.9662 169.76 32.9852 170.149 32.918C173.839 32.924 177.529 32.924 181.22 32.918C181.587 32.9692 181.961 32.9447 182.319 32.846C182.677 32.7473 183.01 32.5764 183.3 32.344C183.77 31.911 184.35 31.859 184.384 32.833C184.432 34.233 184.545 35.633 184.613 37.042C184.636 37.494 184.827 38.026 184.038 38.102C183.292 38.173 183.332 37.654 183.2 37.202C183.027 36.6224 182.735 36.0851 182.344 35.6245C181.952 35.1638 181.468 34.7898 180.924 34.5264C180.379 34.2629 179.786 34.1158 179.182 34.0944C178.577 34.073 177.975 34.1778 177.414 34.402C176.865 34.613 177.063 35.049 177.06 35.396C177.034 37.9 177.042 40.407 177.043 42.911Z" fill="#2C2A2B"/>
<path d="M282.1 73.117C282.1 75.447 282.085 77.777 282.106 80.106C282.123 82.037 282.397 82.315 284.256 82.524C284.731 82.577 285.398 82.367 285.356 83.248C285.311 84.175 284.604 83.809 284.174 83.816C281.845 83.851 279.514 83.846 277.185 83.816C276.785 83.816 276.156 84.116 276.109 83.274C276.06 82.411 276.69 82.574 277.182 82.512C278.893 82.312 279.205 82.012 279.214 80.256C279.241 75.333 279.214 70.409 279.239 65.486C279.239 64.769 279.066 64.406 278.285 64.499C277.891 64.5238 277.495 64.5272 277.1 64.509C274.1 64.532 274.035 64.559 273.114 67.399C272.926 67.979 272.723 68.378 272.049 68.233C271.349 68.083 271.688 67.533 271.703 67.163C271.758 65.846 271.889 64.532 271.953 63.216C271.996 62.316 272.269 61.871 273.11 62.582C273.522 62.9141 274.044 63.0774 274.571 63.039C278.615 63.039 282.659 63.039 286.703 63.039C287.274 63.0632 287.834 62.8755 288.274 62.512C288.806 62.079 289.345 62.026 289.394 62.979C289.469 64.427 289.558 65.879 289.635 67.323C289.655 67.706 289.771 68.132 289.156 68.201C288.635 68.26 288.323 68.148 288.256 67.558C288.173 67.1723 288.063 66.7927 287.927 66.422C287.809 65.8591 287.492 65.3576 287.034 65.0088C286.576 64.6601 286.009 64.4873 285.435 64.522C282.103 64.335 282.104 64.3 282.104 67.575C282.102 69.4237 282.1 71.271 282.1 73.117Z" fill="#2C2A2B"/>
<path d="M304.113 72.981L307.863 65.803C308.273 65.019 308.084 64.549 307.163 64.456C306.901 64.43 306.643 64.367 306.381 64.343C305.86 64.296 305.918 63.913 305.912 63.564C305.905 63.174 306.102 63.036 306.485 63.038C308.507 63.0494 310.529 63.0494 312.552 63.038C312.975 63.038 313.221 63.162 313.225 63.626C313.225 64.026 313.145 64.34 312.673 64.349C310.848 64.382 310.019 65.681 309.222 67.035C308.728 67.9671 308.178 68.8687 307.576 69.735C305.326 72.7617 304.354 76.5503 304.87 80.286C305.031 82.011 305.216 82.307 306.954 82.515C307.43 82.572 308.095 82.366 308.061 83.241C308.026 84.168 307.319 83.812 306.887 83.818C304.557 83.851 302.227 83.841 299.897 83.825C299.507 83.825 298.973 84.025 298.913 83.305C298.853 82.585 299.323 82.578 299.832 82.516C301.838 82.27 301.887 82.063 302.05 80.029C302.461 76.735 301.613 73.4071 299.675 70.712C298.643 69.1818 297.692 67.5982 296.827 65.968C296.62 65.5274 296.302 65.1488 295.903 64.8697C295.505 64.5907 295.04 64.4212 294.556 64.378C293.996 64.343 293.793 64.097 293.837 63.544C293.888 62.908 294.349 63.05 294.712 63.044C296.735 63.033 298.758 63.044 300.781 63.037C301.192 63.037 301.581 63.002 301.589 63.605C301.597 64.085 301.417 64.267 300.94 64.393C299.469 64.782 299.462 64.821 300.222 66.168C301.448 68.347 302.701 70.511 304.113 72.981Z" fill="#2C2A2B"/>
<path d="M207.107 54.209C203.069 54.147 201.402 52.419 201.529 48.425C201.511 48.2529 201.562 48.081 201.671 47.9462C201.779 47.8113 201.936 47.7244 202.108 47.704C202.598 47.57 202.8 47.758 202.961 48.223C203.204 48.9275 203.505 49.6108 203.86 50.266C204.288 51.0916 204.961 51.765 205.785 52.194C206.597 52.6464 207.541 52.7996 208.454 52.6269C209.367 52.4542 210.19 51.9666 210.779 51.249C211.304 50.4521 211.513 49.4887 211.366 48.5461C211.22 47.6036 210.728 46.7492 209.987 46.149C208.609 45.1329 207.145 44.2383 205.613 43.475C204.784 43.0634 204.055 42.4766 203.476 41.7551C202.897 41.0337 202.481 40.1949 202.259 39.297C201.995 38.1297 202.13 36.9078 202.641 35.8258C203.152 34.7438 204.011 33.8639 205.079 33.326C207.42 32.082 209.816 32.297 212.238 33.052C212.409 33.0898 212.561 33.1837 212.671 33.3187C212.781 33.4537 212.843 33.6218 212.845 33.796C212.978 34.93 213.132 36.061 213.292 37.196C213.348 37.596 213.313 37.865 212.824 37.942C212.391 38.01 212.061 38.034 211.907 37.508C211.751 36.9607 211.553 36.4258 211.316 35.908C211.06 35.27 210.607 34.7304 210.023 34.3672C209.439 34.004 208.754 33.8362 208.069 33.888C207.471 33.8471 206.876 33.9882 206.36 34.2925C205.845 34.5969 205.434 35.0503 205.182 35.593C204.863 36.2266 204.738 36.9399 204.821 37.6442C204.905 38.3484 205.193 39.0126 205.652 39.554C206.392 40.3691 207.289 41.0272 208.289 41.489C209.248 42.022 210.237 42.502 211.167 43.081C213.367 44.452 214.586 46.388 214.123 49.048C213.657 51.731 211.838 53.206 209.323 53.893C208.591 54.0459 207.851 54.1515 207.107 54.209Z" fill="#2C2A2B"/>
<path d="M250.139 62.6C249.933 62.6 250.021 62.6 250.108 62.6C253.422 62.757 254.619 64.179 254.266 67.488C254.271 67.5626 254.26 67.6373 254.235 67.7078C254.21 67.7782 254.172 67.8429 254.121 67.898C254.071 67.9531 254.01 67.9975 253.942 68.0286C253.874 68.0597 253.8 68.0769 253.725 68.079C253.357 68.142 253.041 68.188 252.888 67.714C252.708 67.1263 252.491 66.551 252.235 65.992C251.969 65.3561 251.507 64.8221 250.915 64.4683C250.323 64.1145 249.634 63.9595 248.948 64.026C248.348 63.9939 247.753 64.1467 247.243 64.4638C246.732 64.7809 246.332 65.247 246.095 65.799C245.795 66.4424 245.688 67.1591 245.787 67.8623C245.886 68.5654 246.187 69.2246 246.654 69.76C247.37 70.5404 248.238 71.1664 249.204 71.6C250.439 72.1785 251.62 72.8627 252.737 73.645C253.57 74.2294 254.231 75.0273 254.65 75.955C255.069 76.8828 255.231 77.9062 255.119 78.918C255.006 79.9298 254.624 80.8927 254.011 81.7057C253.398 82.5188 252.578 83.152 251.636 83.539C250.422 84.0655 249.109 84.3281 247.785 84.3095C246.462 84.2909 245.157 83.9915 243.957 83.431C243.623 83.295 243.304 83.115 243.233 82.731C242.98 81.348 242.752 79.961 242.5 78.578C242.393 77.995 242.821 77.96 243.193 77.836C243.693 77.669 243.799 78.002 243.907 78.357C244.223 79.5993 244.863 80.7354 245.763 81.649C246.439 82.2864 247.303 82.687 248.227 82.7907C249.15 82.8944 250.082 82.6955 250.883 82.224C251.54 81.7346 252.017 81.0411 252.239 80.2519C252.46 79.4627 252.414 78.6222 252.108 77.862C251.722 76.9645 251.052 76.2192 250.199 75.742C248.999 75.009 247.758 74.342 246.558 73.616C243.622 71.828 242.491 69.407 243.298 66.705C244.059 64.162 246.663 62.528 250.139 62.6Z" fill="#2C2A2B"/>
<path d="M117.779 23.609C116.593 23.609 115.407 23.616 114.221 23.604C113.941 23.604 113.514 23.71 113.541 23.234C113.562 22.876 113.542 22.334 114.118 22.373C116.463 22.547 116.751 20.913 117.067 19.186C117.895 14.653 118.749 10.124 119.667 5.609C119.902 4.46 119.612 4.079 118.481 4.236C118.045 4.29185 117.605 4.30626 117.166 4.27902C116.483 4.19979 115.793 4.35795 115.212 4.727C114.631 5.09605 114.195 5.65354 113.977 6.30601C113.771 6.79017 113.534 7.26078 113.269 7.71501C113.02 8.14601 112.568 8.08201 112.205 7.97201C111.753 7.83401 112.031 7.451 112.097 7.193C112.48 5.706 112.908 4.23001 113.281 2.74101C113.481 1.92801 113.953 1.79901 114.481 2.32901C114.711 2.53034 114.982 2.67838 115.276 2.76257C115.57 2.84675 115.879 2.865 116.18 2.81601C119.737 2.81601 123.294 2.81601 126.852 2.81601C127.221 2.87597 127.598 2.85867 127.96 2.76519C128.321 2.67172 128.659 2.50411 128.952 2.27301C129.062 2.16067 129.202 2.08381 129.356 2.05243C129.509 2.02104 129.669 2.03657 129.813 2.09701C130.258 2.29701 130.027 2.70701 129.99 3.02201C129.827 4.42201 129.604 5.80601 129.471 7.20401C129.415 7.79001 129.118 7.92601 128.627 7.97401C127.956 8.03901 128.104 7.55601 128.068 7.18901C128.03 6.79601 127.986 6.40301 127.958 6.00901C127.879 4.90901 127.302 4.42302 126.188 4.30902C122.722 3.96302 122.735 3.93302 122.11 7.29402C121.339 11.436 120.532 15.571 119.775 19.716C119.375 21.9 119.486 22.016 121.617 22.336C121.942 22.385 122.389 22.284 122.324 22.848C122.329 22.9576 122.31 23.067 122.268 23.1683C122.226 23.2697 122.161 23.3603 122.08 23.4336C121.998 23.5069 121.901 23.561 121.796 23.5921C121.691 23.6231 121.58 23.6303 121.472 23.613C120.239 23.585 119.008 23.609 117.779 23.609Z" fill="#2C2A2B"/>
<path d="M124.235 97.254C124.235 100.329 124.235 103.404 124.235 106.477C124.235 106.828 124.335 107.177 124.304 107.528C124.252 108.228 125.055 109.216 124.649 109.417C123.81 109.638 122.934 109.689 122.075 109.567C121.686 109.575 121.466 109.461 121.684 109.027C122.152 107.744 122.328 106.373 122.2 105.014C122.29 102.114 122.315 99.214 122.149 96.314C122.072 95.4467 121.87 94.595 121.549 93.786C122.649 93.786 123.649 93.83 124.649 93.771C125.381 93.728 125.508 94.276 125.74 94.715C127.548 98.131 129.335 101.558 131.148 104.971C131.341 105.334 131.415 105.805 131.864 106.011C132.341 104.078 132.043 95.778 131.415 93.848H134.574C133.683 96.718 134.079 99.656 134.003 102.562C133.95 104.582 133.958 106.604 133.998 108.625C134.012 109.36 133.793 109.515 133.048 109.601C132.395 109.737 131.716 109.624 131.142 109.285C130.569 108.946 130.142 108.404 129.947 107.767C128.225 104.181 126.283 100.702 124.428 97.18L124.235 97.254Z" fill="#2C2A2B"/>
<path d="M174.801 97.669C173.191 95.281 171.149 95.077 168.906 95.562C168.605 95.6299 168.312 95.7263 168.031 95.85C165.693 96.85 164.612 99.75 165.152 103.55C165.209 104.708 165.7 105.803 166.528 106.615C167.356 107.428 168.459 107.898 169.619 107.934C170.226 108.005 170.847 107.953 171.46 107.978C172.142 108.005 172.375 107.702 172.344 107.023C172.271 105.415 172.416 103.785 171.639 102.182H175.384C174.565 104.146 174.814 106.204 174.784 108.234C174.803 108.362 174.796 108.492 174.763 108.617C174.73 108.742 174.672 108.859 174.593 108.961C174.513 109.062 174.414 109.147 174.3 109.209C174.187 109.271 174.062 109.309 173.934 109.321C171.751 109.889 169.457 109.875 167.282 109.28C163.745 108.23 161.901 104.808 162.494 100.507C163.094 96.176 165.648 93.875 170.128 93.645C170.522 93.624 170.919 93.628 171.315 93.645C174.821 93.771 174.821 93.772 174.801 97.669Z" fill="#2C2A2B"/>
<path d="M157.081 96.547C155.417 95.183 153.582 95.501 151.8 95.447C151.2 95.429 151.055 95.713 151.063 96.247C151.083 97.521 151.079 98.796 151.063 100.07C151.057 100.534 151.164 100.832 151.709 100.817C153.315 100.774 154.977 101.059 156.493 99.851V103.469C155.167 102.304 153.567 102.547 152.012 102.483C151.247 102.452 151.022 102.731 151.054 103.466C151.104 104.651 151.064 105.839 151.071 107.025C151.071 107.403 150.971 107.883 151.583 107.877C152.942 107.975 154.308 107.902 155.649 107.66C156.458 107.447 156.87 106.732 157.4 106.13C157.488 106.281 157.563 106.348 157.558 106.408C157.264 109.576 157.264 109.576 154.101 109.576H148.161C148.857 104.335 148.846 99.0247 148.127 93.787C150.842 93.787 153.682 93.787 156.527 93.787C157.027 93.787 157.095 94.069 157.088 94.467C157.073 95.076 157.081 95.69 157.081 96.547Z" fill="#2C2A2B"/>
<path d="M192.834 32.922C194.02 32.922 195.205 32.927 196.391 32.917C196.791 32.917 197.075 32.98 197.092 33.468C197.109 33.938 196.971 34.134 196.451 34.226C194.303 34.607 194.266 34.668 194.261 36.832C194.251 41.1787 194.251 45.5254 194.261 49.872C194.266 51.956 194.333 52.038 196.386 52.397C196.85 52.478 197.1 52.588 197.097 53.107C197.097 53.688 196.753 53.707 196.319 53.707C193.949 53.6977 191.578 53.6977 189.207 53.707C188.818 53.707 188.521 53.672 188.514 53.164C188.508 52.694 188.644 52.495 189.157 52.397C191.336 51.98 191.367 51.927 191.373 49.67C191.383 45.4554 191.383 41.2407 191.373 37.026C191.368 34.717 191.359 34.695 189.086 34.221C188.627 34.121 188.52 33.94 188.515 33.537C188.509 33.087 188.702 32.913 189.144 32.917C190.376 32.931 191.6 32.923 192.834 32.922Z" fill="#2C2A2B"/>
<path d="M263.212 83.832C262.112 83.832 261.012 83.832 259.912 83.832C259.478 83.832 259.012 83.915 259.024 83.212C259.032 82.665 259.336 82.598 259.771 82.524C261.787 82.181 261.902 82.051 261.907 79.996C261.919 75.644 261.919 71.2924 261.907 66.941C261.907 64.864 261.783 64.709 259.792 64.372C259.275 64.284 258.992 64.167 259.026 63.578C259.064 62.955 259.493 63.048 259.873 63.047C262.203 63.041 264.533 63.047 266.863 63.042C267.293 63.042 267.648 63.069 267.654 63.649C267.66 64.17 267.408 64.349 266.933 64.355C265.033 64.375 264.803 65.037 264.805 66.905C264.811 71.305 264.8 75.697 264.81 80.092C264.815 82.072 264.921 82.192 266.889 82.521C267.321 82.594 267.642 82.654 267.654 83.2C267.668 83.888 267.216 83.834 266.768 83.833C265.584 83.831 264.399 83.8307 263.212 83.832Z" fill="#2C2A2B"/>
<path d="M166.106 73.387C166.106 71.149 166.121 68.911 166.101 66.673C166.085 64.892 165.872 64.649 164.124 64.381C163.612 64.303 163.163 64.29 163.231 63.576C163.299 62.862 163.819 63.052 164.214 63.049C166.452 63.035 168.691 63.049 170.929 63.04C171.383 63.04 171.804 62.99 171.814 63.671C171.824 64.328 171.414 64.305 170.96 64.377C169.16 64.666 169.021 64.812 169.015 66.665C169.001 71.229 169.001 75.793 169.015 80.357C169.022 82.099 169.201 82.277 170.938 82.512C171.39 82.573 171.806 82.553 171.812 83.206C171.818 83.899 171.383 83.835 170.934 83.834C168.652 83.834 166.37 83.834 164.088 83.828C163.722 83.828 163.271 83.95 163.231 83.318C163.194 82.735 163.472 82.597 163.995 82.518C165.965 82.21 166.087 82.06 166.095 80.105C166.117 77.864 166.107 75.626 166.106 73.387Z" fill="#2C2A2B"/>
<path d="M156.894 43.434C156.894 41.148 156.909 38.863 156.889 36.578C156.872 34.738 156.654 34.487 154.811 34.229C154.311 34.159 153.973 34.101 154.011 33.482C154.047 32.882 154.447 32.921 154.846 32.921C157.176 32.921 159.505 32.921 161.834 32.921C162.266 32.921 162.62 32.95 162.634 33.521C162.648 34.041 162.395 34.149 161.924 34.227C159.864 34.566 159.791 34.66 159.786 36.744C159.776 41.1827 159.776 45.6213 159.786 50.06C159.793 51.975 159.905 52.099 161.824 52.395C162.324 52.471 162.665 52.543 162.633 53.156C162.601 53.769 162.194 53.707 161.797 53.707C159.463 53.707 157.134 53.707 154.809 53.707C154.395 53.707 154.009 53.718 154.009 53.123C154.002 52.609 154.247 52.484 154.709 52.398C156.809 52.012 156.881 51.908 156.889 49.762C156.901 47.653 156.895 45.543 156.894 43.434Z" fill="#2C2A2B"/>
<path d="M199.401 109.526H195.813C196.464 104.299 196.475 99.0111 195.845 93.781C198.016 93.929 200.361 93.46 202.672 94.102C203.559 94.3089 204.349 94.8141 204.908 95.5333C205.468 96.2524 205.764 97.1419 205.746 98.053C205.859 100.432 204.928 102.083 203.032 102.841C201.919 103.266 200.724 103.433 199.537 103.331C198.921 103.29 198.67 103.467 198.691 104.125C198.746 105.91 198.61 107.714 199.401 109.526ZM198.694 98.511C198.694 99.346 198.706 100.182 198.69 101.017C198.681 101.481 198.789 101.761 199.337 101.763C200.592 101.77 201.896 101.794 202.62 100.553C202.972 99.9626 203.164 99.2907 203.178 98.6035C203.191 97.9163 203.025 97.2375 202.696 96.634C202.308 96.0931 201.763 95.6845 201.136 95.4636C200.508 95.2427 199.827 95.2201 199.186 95.399C198.17 95.779 198.886 96.767 198.707 97.46C198.659 97.8083 198.653 98.1612 198.69 98.511H198.694Z" fill="#2C2A2B"/>
<path d="M145.145 18.83C145.156 17.0163 145.654 15.2388 146.588 13.6837C147.521 12.1286 148.856 10.8532 150.451 9.99101C151.176 9.57088 151.975 9.29291 152.804 9.17201C153.412 9.04108 154.046 9.11166 154.61 9.37307C155.175 9.63448 155.639 10.0725 155.933 10.621C156.203 11.157 156.296 11.765 156.198 12.3573C156.1 12.9496 155.817 13.4954 155.389 13.916C154.558 14.8333 153.528 15.5465 152.377 16C151.41 16.414 150.414 16.765 149.415 17.1C147.798 17.643 147.564 18.089 148.035 19.894C148.077 20.2126 148.19 20.5179 148.364 20.7879C148.539 21.0579 148.771 21.286 149.044 21.4558C149.317 21.6256 149.624 21.733 149.943 21.7702C150.262 21.8074 150.586 21.7735 150.891 21.671C152.125 21.3373 153.258 20.7047 154.191 19.829C154.431 19.629 154.637 19.187 155.035 19.635C155.358 20 155.504 20.335 155.066 20.761C154.032 21.8459 152.808 22.7313 151.455 23.373C147.707 24.992 145.18 23.339 145.145 18.83ZM151.973 10.803C150.233 11.143 149.312 12.524 148.674 14.176C148.46 14.732 147.958 15.476 148.321 15.868C148.721 16.309 149.439 15.762 149.977 15.542C150.744 15.2294 151.489 14.8646 152.205 14.45C152.536 14.2761 152.829 14.0382 153.067 13.7501C153.305 13.4621 153.484 13.1296 153.593 12.772C153.677 12.5301 153.698 12.2704 153.654 12.018C153.609 11.7656 153.5 11.5289 153.337 11.3308C153.175 11.1327 152.964 10.9798 152.725 10.8868C152.486 10.7938 152.227 10.7639 151.973 10.8V10.803Z" fill="#2C2A2B"/>
<path d="M188.001 93.833H191.831C189.866 96.4209 188.238 99.2483 186.986 102.247C186.151 104.252 186.532 106.647 187.137 108.847C187.192 109.047 187.274 109.239 187.372 109.519H183.493C183.863 108.7 184.089 107.822 184.16 106.926C184.507 104.477 183.943 101.986 182.575 99.926C181.302 98 180.521 95.766 178.891 93.882H183.291C182.556 96.556 184.844 98.194 185.669 100.421C186.582 98.264 188.701 96.587 188.001 93.833Z" fill="#2C2A2B"/>
<path d="M217.191 109.507H213.435C214.365 106.732 213.999 103.915 214.081 101.133C214.125 99.643 214.008 98.144 214.115 96.659C214.196 95.537 213.736 95.321 212.763 95.398C211.64 95.3948 210.55 95.7751 209.673 96.476C209.59 96.287 209.507 96.187 209.508 96.088C209.538 93.788 209.54 93.788 211.901 93.788C214.446 93.788 216.992 93.842 219.535 93.764C220.673 93.729 221.283 93.955 221.048 95.231C221.013 95.6388 221.01 96.0487 221.04 96.457C219.982 95.74 218.728 95.3699 217.451 95.398C216.827 95.411 216.483 95.498 216.498 96.248C216.573 99.977 216.413 103.708 216.618 107.436C216.714 108.149 216.907 108.846 217.191 109.507Z" fill="#2C2A2B"/>
<path d="M115.55 109.5H112.018C112.904 107.4 112.685 105.232 112.641 103.108C112.581 100.146 113.099 97.139 112.107 94.229C111.924 93.694 112.369 93.795 112.641 93.791C113.641 93.779 114.649 93.791 115.581 93.791C114.9 99.0045 114.889 104.284 115.55 109.5Z" fill="#2C2A2B"/>
<path d="M11.7645 60.362C8.33752 60.362 5.2715 60.321 2.2065 60.385C1.1655 60.407 0.757524 60.202 0.778524 59.041C0.853524 54.91 0.827494 50.777 0.791494 46.641C0.783494 45.794 1.00452 45.499 1.89852 45.514C5.05552 45.567 8.21452 45.534 11.3985 45.534C11.4535 44.875 10.9285 44.667 10.6205 44.357C7.65317 41.357 4.66952 38.3727 1.66952 35.404C1.37515 35.1492 1.14285 34.8306 0.990346 34.4723C0.837841 34.1141 0.769153 33.7258 0.78951 33.337C0.85451 31.32 0.809499 29.3 0.809499 26.837L15.4185 41.437C15.8575 40.926 15.6775 40.425 15.6785 39.979C15.6915 30.352 15.7085 20.725 15.6595 11.098C15.6102 10.6769 15.7155 10.2522 15.9557 9.90275C16.1959 9.55332 16.5547 9.30291 16.9655 9.19802C20.5435 7.62902 23.9555 5.69802 27.6135 4.29802C30.5375 3.17502 30.5245 3.14101 30.5245 6.20601C30.5245 17.46 30.5272 28.7137 30.5325 39.967C30.4467 40.4685 30.5003 40.9839 30.6875 41.457L44.9875 27.08L45.3255 27.223C45.3255 29.605 45.3425 31.988 45.3115 34.37C45.3055 34.839 44.8255 35.079 44.5215 35.383C41.2275 38.671 37.9275 41.952 34.3215 45.541H37.1005C39.4745 45.541 41.8485 45.57 44.2215 45.525C45.0415 45.51 45.3825 45.694 45.3725 46.605C45.3279 50.825 45.3279 55.045 45.3725 59.265C45.3805 60.12 45.1415 60.397 44.2675 60.384C41.1065 60.336 37.9445 60.365 34.7775 60.365C34.6285 60.923 35.0955 61.084 35.3425 61.332C38.3155 64.327 41.2745 67.337 44.3095 70.269C44.6819 70.597 44.9724 71.0075 45.1577 71.4679C45.343 71.9282 45.4179 72.4255 45.3765 72.92C45.2995 74.831 45.3555 76.746 45.3555 78.971L30.8955 64.428L30.5285 64.594V65.964C30.5285 77.745 30.5095 89.526 30.5565 101.307C30.5615 102.596 30.2005 102.625 29.1745 102.225C24.7727 100.55 20.6414 98.2363 16.9135 95.358C16.504 95.0827 16.1733 94.7054 15.9539 94.2633C15.7345 93.8212 15.6341 93.3297 15.6625 92.837C15.7165 83.913 15.6925 74.989 15.6925 66.065V64.487L3.67751 76.6C2.86234 74.7545 2.24652 72.8273 1.84051 70.851C1.69651 70.246 2.2025 69.996 2.5255 69.671C5.2235 66.9603 7.92685 64.255 10.6355 61.555C10.9405 61.254 11.2275 60.932 11.7645 60.362Z" fill="#ED212E"/>
<path d="M50.7695 18.921C50.7695 13.421 50.8295 7.92802 50.7285 2.43402C50.7025 0.997018 51.2475 0.765011 52.4605 0.767011C57.6588 0.87423 62.7907 1.95665 67.5895 3.95801C70.7895 5.20401 73.8745 6.68401 76.9535 8.19401C82.3835 10.859 88.0615 12.594 94.2025 12.269C94.9955 12.227 95.2735 12.383 95.2705 13.232C95.2445 23.0367 95.2445 32.8413 95.2705 42.646C95.2705 43.582 94.8645 43.715 94.0875 43.737C88.4073 43.8372 82.7465 43.0477 77.3105 41.397C70.5105 39.42 63.6975 37.528 56.5925 37.025C55.0155 36.914 53.4285 36.867 51.8495 36.912C50.9605 36.938 50.7495 36.652 50.7495 35.805C50.7855 30.177 50.7695 24.549 50.7695 18.921Z" fill="#ED212E"/>
<path d="M50.7575 88.7C50.7575 82.239 50.7815 75.778 50.7345 69.317C50.7265 68.249 50.9825 67.909 52.1015 67.917C59.0463 68.0335 65.956 68.9281 72.7015 70.584C79.2235 72.0756 85.9188 72.6688 92.6015 72.347C94.1015 72.279 93.7885 72.897 93.5175 73.76C89.2265 87.41 80.5235 96.949 67.1265 102.125C61.9616 104.116 56.9229 106.42 52.0385 109.025C50.7595 109.708 50.7585 109.714 50.7575 108.219C50.7562 101.711 50.7562 95.2047 50.7575 88.7Z" fill="#2C2A2B"/>
<path d="M35.3485 75.616C38.7185 79.001 41.8695 82.173 45.0315 85.334C45.1684 85.5044 45.2666 85.7024 45.3195 85.9144C45.3723 86.1264 45.3785 86.3474 45.3375 86.562C45.3375 93.849 45.3245 101.136 45.3565 108.423C45.3615 109.497 45.1155 109.589 44.1955 109.113C41.5465 107.743 38.8595 106.446 36.1735 105.15C35.5845 104.866 35.1785 104.616 35.1805 103.825C35.2115 94.695 35.2015 85.565 35.2065 76.434C35.2376 76.1588 35.285 75.8856 35.3485 75.616Z" fill="#2D3F94"/>
<path d="M35.4065 30.064C35.2016 29.6711 35.1314 29.2218 35.2065 28.785C35.1995 20.221 35.2225 11.657 35.1745 3.09401C35.1685 2.02201 35.5365 1.66001 36.5265 1.48601C38.9454 1.04475 41.397 0.807263 43.8555 0.776021C44.9095 0.768021 45.3895 0.992023 45.3735 2.23102C45.2995 7.89602 45.3395 13.561 45.3435 19.231C45.3804 19.5104 45.3547 19.7946 45.2682 20.0629C45.1818 20.3311 45.0367 20.5768 44.8435 20.782C41.8375 23.738 38.8665 26.729 35.8805 29.706C35.7298 29.8347 35.5716 29.9543 35.4065 30.064Z" fill="#2D3F94"/>
<path d="M10.9875 30C10.8028 29.9853 10.6238 29.9295 10.4636 29.8366C10.3033 29.7437 10.1659 29.616 10.0615 29.463C7.2035 26.613 4.35548 23.752 1.49048 20.909C1.27388 20.7295 1.1 20.504 0.98151 20.2488C0.863017 19.9937 0.802888 19.7153 0.805485 19.434C0.844485 17.372 0.836485 15.31 0.805485 13.248C0.797485 12.573 0.881489 12.193 1.72849 12.264C4.53417 12.4633 7.35359 12.2053 10.0765 11.5C10.5845 11.376 10.9965 11.216 10.9945 12.041C10.9775 17.994 10.9875 23.949 10.9875 30Z" fill="#2D3F94"/>
<path d="M10.8635 89.333C8.84646 86.9104 7.10788 84.2688 5.6805 81.458C5.60162 81.3273 5.57509 81.1715 5.60625 81.022C5.63741 80.8725 5.72395 80.7404 5.8485 80.652C7.4485 79.042 9.04251 77.428 10.8635 75.588V89.333Z" fill="#2D3F94"/>
</svg>
