<svg width="16" height="16" viewBox="0 0 16 16" fill="none" xmlns="http://www.w3.org/2000/svg">
<path d="M11.51 0.5C14.0525 0.5 15.755 2.285 15.755 4.94V11.0682C15.755 13.7157 14.0525 15.5 11.51 15.5H5.0075C2.465 15.5 0.755005 13.7157 0.755005 11.0682V4.94C0.755005 2.285 2.465 0.5 5.0075 0.5H11.51ZM10.5125 5.72825C10.2575 5.4725 9.84501 5.4725 9.58251 5.72825L8.255 7.0625L6.92 5.72825C6.65751 5.4725 6.24501 5.4725 5.99001 5.72825C5.735 5.98325 5.735 6.40325 5.99001 6.6575L7.32501 7.99325L5.99001 9.32075C5.735 9.58325 5.735 9.99575 5.99001 10.25C6.11751 10.3775 6.29 10.4457 6.455 10.4457C6.6275 10.4457 6.79251 10.3775 6.92 10.25L8.255 8.92325L9.59 10.25C9.7175 10.3857 9.88251 10.4457 10.0475 10.4457C10.22 10.4457 10.385 10.3775 10.5125 10.25C10.7675 9.99575 10.7675 9.58325 10.5125 9.32825L9.1775 7.99325L10.5125 6.6575C10.7675 6.40325 10.7675 5.98325 10.5125 5.72825Z" fill="#F9F9F9"/>
</svg>
