<svg width="101" height="100" viewBox="0 0 101 100" fill="none" xmlns="http://www.w3.org/2000/svg">
<path d="M0.349609 50C0.349609 22.3858 22.7354 0 50.3496 0C77.9638 0 100.35 22.3858 100.35 50C100.35 77.6142 77.9638 100 50.3496 100C22.7354 100 0.349609 77.6142 0.349609 50Z" fill="url(#paint0_linear_1879_3499)"/>
<path opacity="0.7" d="M24.6462 45.7582C29.8964 43.3728 39.4431 41.7734 50.3517 41.7734C66.9135 41.7734 80.3496 45.4533 80.3496 49.9941C80.3496 54.535 66.9188 58.2149 50.3517 58.2149C33.7847 58.2149 20.3496 54.5392 20.3496 50.0026C20.3496 48.4507 21.9172 47 24.643 45.7625" fill="#EFF2FB"/>
<path opacity="0.8" d="M71.5623 71.2084C68.3534 74.4178 56.2559 67.5233 44.5403 55.8052C32.8247 44.0871 25.9278 31.9892 29.1389 28.7766C30.2339 27.6815 32.3679 27.7649 35.1708 28.8146C40.5729 30.8413 48.4497 36.4667 56.1631 44.1788C67.8776 55.9012 74.7745 68.0033 71.5623 71.2084Z" fill="#EFF2FB"/>
<path opacity="0.9" d="M54.5914 24.2897C56.9765 29.5405 58.5715 39.0895 58.5715 49.9984C58.5715 66.5622 54.891 80 50.3518 80C45.8126 80 42.1321 66.5664 42.1321 50.0026C42.1321 33.4388 45.8115 20 50.3518 20C51.9025 20 53.3529 21.5678 54.5914 24.2939" fill="#EFF2FB"/>
<path d="M29.1771 65.178C31.2035 59.7784 36.8271 51.8985 44.5394 44.1831C56.2487 32.4661 68.3535 25.5705 71.5636 28.7798C74.7736 31.9892 67.8788 44.0945 56.1632 55.8052C44.4477 67.5159 32.3491 74.4179 29.1391 71.2085C28.0431 70.1113 28.1254 67.977 29.1771 65.1738" fill="#EFF2FB"/>
<defs>
<linearGradient id="paint0_linear_1879_3499" x1="95.7129" y1="3.60846" x2="3.58142" y2="95.4599" gradientUnits="userSpaceOnUse">
<stop stop-color="#FF3C7D"/>
<stop offset="1" stop-color="#F76A48"/>
</linearGradient>
</defs>
</svg>
