<svg width="15" height="15" viewBox="0 0 15 15" fill="none" xmlns="http://www.w3.org/2000/svg">
<path id="Vector" fill-rule="evenodd" clip-rule="evenodd" d="M5.89101 0.167144C5.48506 0.255114 4.77065 0.5128 4.30343 0.739596C0.274031 2.6955 -1.20031 7.52752 1.06406 11.3566C1.56467 12.2032 2.80699 13.444 3.65464 13.9439C7.61042 16.2772 12.6705 14.5961 14.4497 10.3575C14.6453 9.89144 14.8385 9.26895 14.879 8.97427C14.9194 8.67947 14.9544 8.64124 14.9809 8.34758C14.9809 8.34758 15 7.90402 15 7.38724C14.9788 6.84754 14.9691 6.72755 14.9496 6.5433C14.9247 6.30919 14.9147 6.31109 14.8724 6.00548C14.7645 5.22631 14.2176 4.00483 13.5721 3.1014C11.868 0.716341 8.78629 -0.460863 5.89101 0.167144ZM8.39645 6.56208L6.87461 8.08541L6.02931 7.26678C5.1659 6.43065 4.90965 6.32236 4.41621 6.58474C4.03001 6.79028 3.87325 7.05067 3.86914 7.49416C3.86584 7.84816 4.0119 8.04042 5.14061 9.16783C6.90565 10.9305 6.66481 10.9746 9.23787 8.41979C11.1252 6.54599 11.2741 6.36723 11.2741 5.97389C11.2741 5.42246 10.8842 5.03875 10.324 5.03875C9.96051 5.03875 9.75989 5.1973 8.39645 6.56208Z" fill="#5AA907"/>
</svg>
