<svg width="51" height="50" viewBox="0 0 51 50" fill="none" xmlns="http://www.w3.org/2000/svg">
<path d="M25.0806 38.723C24.4099 38.7225 23.7406 38.6623 23.0806 38.543L15.1016 37.093C13.6929 36.838 12.4185 36.0963 11.501 34.9975C10.5835 33.8987 10.0811 32.5125 10.0815 31.081V17.388C10.0813 16.4919 10.2782 15.6067 10.6582 14.7952C11.0382 13.9837 11.592 13.2657 12.2805 12.6922C12.969 12.1186 13.7753 11.7036 14.6421 11.4765C15.5089 11.2494 16.4151 11.2158 17.2964 11.378L22.1406 12.258C23.2114 12.454 24.1855 13.0033 24.9075 13.818L25.0815 14.018L25.2566 13.818C25.9764 13.0047 26.9477 12.4556 28.0156 12.258L32.8665 11.378C33.7479 11.2163 34.6542 11.2509 35.5208 11.4792C36.3874 11.7076 37.1932 12.124 37.8806 12.699C38.5704 13.27 39.1253 13.9864 39.5056 14.7971C39.886 15.6078 40.0824 16.4925 40.0806 17.388V31.081C40.0809 32.5114 39.5791 33.8966 38.6631 34.9952C37.747 36.0938 36.4748 36.8362 35.0676 37.093L27.0815 38.543C26.4212 38.6624 25.7516 38.7226 25.0806 38.723ZM33.9705 13.343C33.7266 13.343 33.4833 13.3651 33.2434 13.409L28.3926 14.297C27.7541 14.4129 27.1765 14.7494 26.7607 15.2476C26.345 15.7458 26.1173 16.3741 26.1174 17.023V36.6C26.1174 36.6 26.6014 36.528 26.7114 36.509L34.6895 35.06C35.6205 34.8913 36.4627 34.401 37.0691 33.6747C37.6755 32.9484 38.0077 32.0322 38.0076 31.086V17.388C38.0073 17.1439 37.9857 16.9003 37.9426 16.66C37.7737 15.7292 37.2832 14.8872 36.5569 14.281C35.8306 13.6747 34.9145 13.3428 33.9685 13.343H33.9705ZM16.1956 13.35C15.1246 13.3508 14.0977 13.7764 13.3401 14.5334C12.5825 15.2904 12.1561 16.317 12.1545 17.388V31.081C12.1541 32.0271 12.486 32.9433 13.0923 33.6696C13.6985 34.3959 14.5405 34.8862 15.4714 35.055L23.4495 36.504C23.5605 36.523 24.0444 36.595 24.0444 36.595V17.023C24.043 16.3756 23.8149 15.7491 23.3997 15.2524C22.9844 14.7557 22.4084 14.4201 21.7715 14.304L16.9226 13.415C16.6827 13.3719 16.4393 13.3501 16.1956 13.35Z" fill="#F9F9F9"/>
</svg>
