<svg width="60" height="60" viewBox="0 0 60 60" fill="none" xmlns="http://www.w3.org/2000/svg">
<path d="M60 30C60 13.4315 46.5685 0 30 0C13.4315 0 0 13.4315 0 30C0 46.5685 13.4315 60 30 60C46.5685 60 60 46.5685 60 30Z" fill="#F3F3F3"/>
<path d="M37.5001 22.5C37.5001 23.9834 37.06 25.4334 36.2359 26.6667C35.4118 27.9001 34.2406 28.8614 32.8702 29.4291C31.4998 29.9967 29.9918 30.1453 28.5369 29.8559C27.0821 29.5665 25.7455 28.8522 24.6966 27.8033C23.6477 26.7544 22.9335 25.4181 22.6441 23.9632C22.3547 22.5083 22.5032 21.0003 23.0709 19.6299C23.6385 18.2594 24.6 17.0881 25.8333 16.264C27.0667 15.4399 28.5167 15 30.0001 15C31.9892 15 33.8968 15.7902 35.3033 17.1967C36.7098 18.6032 37.5001 20.5109 37.5001 22.5Z" fill="#E8E8E8"/>
<path d="M41.25 43.75C41.2509 44.0166 41.1656 44.2765 41.0071 44.4908C40.8485 44.7052 40.6251 44.8627 40.3699 44.94V45H20C19.6685 45 19.3504 44.8683 19.116 44.6339C18.8815 44.3995 18.75 44.0815 18.75 43.75C18.75 40.7663 19.9351 37.9048 22.0449 35.795C24.1547 33.6853 27.0163 32.5 30 32.5C32.9837 32.5 35.845 33.6853 37.9548 35.795C40.0646 37.9048 41.25 40.7663 41.25 43.75Z" fill="#E8E8E8"/>
</svg>
