<svg width="19" height="19" viewBox="0 0 19 19" fill="none" xmlns="http://www.w3.org/2000/svg">
<path fill-rule="evenodd" clip-rule="evenodd" d="M9.36241 5.95267e-06C8.50817 5.95267e-06 7.81567 0.691891 7.81567 1.54613C7.81567 2.15654 7.81567 2.97798 7.81567 4.06176V8.1283L6.81865 7.12092C6.25414 6.55062 5.69374 6.11354 5.52671 6.11354C5.18692 6.11354 3.40081 7.88062 3.40081 8.21671C3.40081 8.33898 4.71659 9.77731 6.32463 11.4133C8.62536 13.7537 9.30864 14.3681 9.53012 14.2965C9.89287 14.1793 15.4681 8.48058 15.4681 8.22705C15.4681 7.89905 13.6799 6.11354 13.3515 6.11354C13.1731 6.11354 12.6349 6.5301 12.0503 7.12092L11.0532 8.1283L10.9091 4.14672V1.54674C10.9091 0.692501 10.2166 5.95267e-06 9.36241 5.95267e-06ZM0.192676 12.4368C-0.0944371 12.7292 -0.048081 17.3934 0.248156 18.0292C0.706861 19.0132 0.580449 18.9999 9.43446 18.9999C18.3859 18.9999 18.1041 19.0324 18.6811 17.9317C18.9712 17.3785 19 17.0996 19 14.8562C19 13.3719 18.9454 12.4235 18.863 12.4754C18.7876 12.5229 18.6845 12.493 18.6336 12.4093C18.5263 12.2326 16.0712 12.2047 15.8047 12.3771C15.6883 12.4524 15.6116 13.0376 15.5839 14.0605L15.5417 15.6285H3.32723L3.28499 14.0605C3.25733 13.0376 3.18066 12.4524 3.06425 12.3771C2.76919 12.1862 0.390168 12.2358 0.192676 12.4368Z" fill="#11664F"/>
</svg>
