<svg width="16" height="16" viewBox="0 0 16 16" fill="none" xmlns="http://www.w3.org/2000/svg">
<path d="M11.5025 0.5C14.045 0.5 15.755 2.285 15.755 4.9325V11.06C15.755 13.715 14.045 15.5 11.5025 15.5H5C2.45825 15.5 0.755005 13.715 0.755005 11.06V4.9325C0.755005 2.285 2.45825 0.5 5 0.5H11.5025ZM8.255 4.3775C7.94 4.3775 7.6925 4.625 7.6925 4.94V9.7025L5.84 7.8425C5.735 7.7375 5.585 7.6775 5.4425 7.6775C5.30076 7.6775 5.1575 7.7375 5.045 7.8425C4.8275 8.06 4.8275 8.42 5.045 8.6375L7.8575 11.465C8.0675 11.675 8.4425 11.675 8.6525 11.465L11.465 8.6375C11.6825 8.42 11.6825 8.06 11.465 7.8425C11.24 7.625 10.8875 7.625 10.6625 7.8425L8.8175 9.7025V4.94C8.8175 4.625 8.5625 4.3775 8.255 4.3775Z" fill="#11664F"/>
</svg>
