<svg width="20" height="20" viewBox="0 0 20 20" fill="none" xmlns="http://www.w3.org/2000/svg">
<path d="M14.3398 0C17.7298 0 19.9998 2.379 19.9998 5.919V14.089C19.9998 17.62 17.7298 20 14.3398 20H5.66976C2.27976 20 -0.000244141 17.62 -0.000244141 14.089V5.919C-0.000244141 2.379 2.27976 0 5.66976 0H14.3398ZM9.64976 4.919C9.23976 4.919 8.89976 5.26 8.89976 5.669V10.72C8.89976 10.98 9.03976 11.23 9.26976 11.36L13.1898 13.7C13.3098 13.78 13.4498 13.81 13.5798 13.81C13.8298 13.81 14.0798 13.68 14.2198 13.44C14.4398 13.089 14.3198 12.629 13.9598 12.41L10.3998 10.29V5.669C10.3998 5.26 10.0698 4.919 9.64976 4.919Z" fill="#FF0000"/>
</svg>
