<svg width="50" height="50" viewBox="0 0 50 50" fill="none" xmlns="http://www.w3.org/2000/svg">
<g id="ExamTime">
<g id="ExamTime_2">
<path d="M16.1022 40C14.4843 39.9987 12.9329 39.3557 11.7885 38.2122C10.644 37.0686 9.9996 35.5179 9.99695 33.9V16.1C9.9996 14.4821 10.644 12.9313 11.7885 11.7878C12.9329 10.6443 14.4843 10.0013 16.1022 9.99998H26.275C27.892 10.0026 29.4422 10.6462 30.5856 11.7896C31.729 12.933 32.3725 14.483 32.3751 16.1V18.642C32.3751 18.9118 32.2678 19.1706 32.077 19.3615C31.8862 19.5523 31.6274 19.6595 31.3575 19.6595C31.0877 19.6595 30.8289 19.5523 30.6381 19.3615C30.4472 19.1706 30.34 18.9118 30.34 18.642V16.1C30.3384 15.0213 29.9091 13.9873 29.1461 13.2249C28.3831 12.4624 27.3488 12.0338 26.2701 12.033H16.097C15.0184 12.0338 13.9841 12.4624 13.2211 13.2249C12.4581 13.9873 12.0286 15.0213 12.027 16.1V33.894C12.0286 34.9728 12.4581 36.0068 13.2211 36.7695C13.9841 37.5321 15.0183 37.9609 16.097 37.962H21.183C21.4526 37.962 21.7111 38.0691 21.9017 38.2597C22.0924 38.4503 22.1996 38.7089 22.1996 38.9785C22.1996 39.2481 22.0924 39.5066 21.9017 39.6973C21.7111 39.8879 21.4526 39.995 21.183 39.995L16.1022 40Z" fill="#F9F9F9"/>
<path d="M16.1022 31.1C15.8324 31.1 15.5737 30.9928 15.3829 30.8021C15.1922 30.6114 15.0851 30.3527 15.0851 30.083C15.0851 29.8133 15.1922 29.5546 15.3829 29.3638C15.5737 29.1731 15.8324 29.066 16.1022 29.066H18.6451C18.9149 29.066 19.1734 29.1731 19.3641 29.3638C19.5549 29.5546 19.662 29.8133 19.662 30.083C19.662 30.3527 19.5549 30.6114 19.3641 30.8021C19.1734 30.9928 18.9149 31.1 18.6451 31.1H16.1022Z" fill="#F9F9F9"/>
<path d="M16.1022 24.744C15.8324 24.744 15.5737 24.6368 15.3829 24.4461C15.1922 24.2554 15.0851 23.9967 15.0851 23.727C15.0851 23.4572 15.1922 23.1986 15.3829 23.0079C15.5737 22.8171 15.8324 22.71 16.1022 22.71H21.1881C21.4578 22.71 21.7164 22.8171 21.9071 23.0079C22.0978 23.1986 22.205 23.4572 22.205 23.727C22.205 23.9967 22.0978 24.2554 21.9071 24.4461C21.7164 24.6368 21.4578 24.744 21.1881 24.744H16.1022Z" fill="#F9F9F9"/>
<path d="M16.1022 18.389C15.8324 18.389 15.5737 18.2818 15.3829 18.0911C15.1922 17.9004 15.0851 17.6417 15.0851 17.372C15.0851 17.1023 15.1922 16.8436 15.3829 16.6528C15.5737 16.4621 15.8324 16.355 16.1022 16.355H26.275C26.5448 16.355 26.8035 16.4621 26.9943 16.6528C27.185 16.8436 27.2921 17.1023 27.2921 17.372C27.2921 17.6417 27.185 17.9004 26.9943 18.0911C26.8035 18.2818 26.5448 18.389 26.275 18.389H16.1022Z" fill="#F9F9F9"/>
<path d="M31.359 40C29.6562 39.9952 27.9931 39.4863 26.5793 38.5373C25.1654 37.5883 24.0642 36.2418 23.4147 34.6677C22.7653 33.0935 22.5965 31.3623 22.9298 29.6925C23.2632 28.0226 24.0837 26.4888 25.2878 25.2847C26.4918 24.0807 28.0256 23.2602 29.6955 22.9268C31.3653 22.5935 33.0967 22.7621 34.6708 23.4116C36.2449 24.061 37.5914 25.1622 38.5404 26.576C39.4894 27.9899 39.9983 29.6532 40.0031 31.356C40.0049 32.4916 39.7825 33.6165 39.3488 34.6661C38.915 35.7157 38.2785 36.6693 37.4755 37.4723C36.6725 38.2754 35.7187 38.912 34.6691 39.3458C33.6195 39.7795 32.4947 40.0018 31.359 40ZM31.359 24.8C30.0564 24.8047 28.7844 25.1957 27.704 25.9234C26.6236 26.651 25.7833 27.6828 25.2892 28.8881C24.7952 30.0934 24.6695 31.4181 24.9284 32.6947C25.1872 33.9714 25.819 35.1426 26.7436 36.0602C27.6681 36.9779 28.8439 37.6008 30.1225 37.8501C31.401 38.0995 32.7248 37.9641 33.9264 37.4611C35.128 36.9581 36.1533 36.1101 36.873 35.0243C37.5926 33.9384 37.9741 32.6636 37.9692 31.361C37.9541 29.6171 37.2513 27.9496 36.0136 26.721C34.7758 25.4924 33.103 24.802 31.359 24.8ZM32.631 33.649C32.4971 33.649 32.3647 33.6225 32.2411 33.571C32.1175 33.5195 32.0053 33.444 31.911 33.349L30.64 32.078C30.545 31.9839 30.4696 31.8719 30.4181 31.7485C30.3666 31.6251 30.34 31.4927 30.34 31.359V28.816C30.34 28.5463 30.4471 28.2876 30.6379 28.0969C30.8286 27.9061 31.0874 27.799 31.3571 27.799C31.6268 27.799 31.8856 27.9061 32.0763 28.0969C32.2671 28.2876 32.3742 28.5463 32.3742 28.816V30.938L33.3481 31.911C33.4902 32.0532 33.5872 32.2344 33.6264 32.4317C33.6656 32.6289 33.6455 32.8334 33.5685 33.0192C33.4916 33.205 33.3612 33.3638 33.194 33.4755C33.0268 33.5873 32.8302 33.6469 32.6291 33.647L32.631 33.649Z" fill="#F9F9F9"/>
</g>
</g>
</svg>
