<svg width="20" height="21" viewBox="0 0 20 21" fill="none" xmlns="http://www.w3.org/2000/svg">
<path fill-rule="evenodd" clip-rule="evenodd" d="M16.5927 0.593636C16.5691 0.644598 16.5157 0.858038 16.4741 1.06802C16.3747 1.56941 16.1927 2.06771 15.9965 2.37566C15.8204 2.652 15.4456 2.98141 15.1202 3.14586C14.8819 3.26623 14.3156 3.43941 13.9283 3.51025C13.6265 3.56545 13.5552 3.60798 13.5552 3.73246C13.5552 3.86571 13.6186 3.89634 14.1463 4.01765C15.1364 4.24525 15.6959 4.59215 16.0459 5.19534C16.2267 5.50695 16.4593 6.21857 16.5204 6.64693C16.5561 6.89689 16.6338 7.00507 16.7776 7.00507C16.9094 7.00507 16.9584 6.92537 17.0184 6.61322C17.2655 5.32826 17.6982 4.65809 18.5027 4.3142C18.7954 4.18906 19.3774 4.02485 19.8264 3.94075C19.9806 3.91186 20.056 3.73728 19.9518 3.65033C19.9158 3.62033 19.6737 3.54718 19.4139 3.48777C17.9411 3.15125 17.394 2.58828 17.0607 1.06621C17.005 0.811974 16.9378 0.580792 16.9114 0.552471C16.8308 0.466189 16.6405 0.490765 16.5927 0.593636ZM8.48344 2.52839C8.45996 2.57931 8.41671 2.81551 8.38731 3.05324C8.28989 3.84043 8.05675 5.17825 7.91064 5.78807C7.31005 8.29489 6.37971 9.53103 4.53459 10.2738C3.59762 10.651 2.58348 10.8965 0.777869 11.183C0.414784 11.2406 0.0883098 11.309 0.0523617 11.3349C-0.0441956 11.4044 -0.00156045 11.5439 0.133885 11.6013C0.199095 11.629 0.572567 11.7014 0.963823 11.7623C2.49238 12.0003 3.74027 12.3156 4.61555 12.685C6.84542 13.6259 7.77144 15.3266 8.33694 19.5192C8.39347 19.938 8.44924 20.3222 8.46091 20.3727C8.48737 20.4874 8.69675 20.5431 8.79165 20.4607C8.83448 20.4235 8.90779 20.0582 9.00136 19.416C9.33562 17.1213 9.68518 15.8389 10.2581 14.8052C11.1969 13.1116 12.7535 12.3313 16.3245 11.764C16.8573 11.6794 17.2368 11.5996 17.2605 11.5671C17.3132 11.4949 17.3126 11.3381 17.2594 11.3096C17.2361 11.297 16.9214 11.2398 16.5599 11.1822C14.3825 10.8356 12.9668 10.4316 11.9901 9.8783C11.599 9.65671 10.9275 9.07994 10.6641 8.73935C9.85824 7.69738 9.37654 6.16238 8.97722 3.3642C8.90955 2.88998 8.84358 2.48706 8.83063 2.46886C8.81769 2.45067 8.74385 2.43576 8.66659 2.43576C8.56515 2.43576 8.51421 2.46149 8.48344 2.52839Z" fill="black"/>
</svg>
