<svg width="50" height="50" viewBox="0 0 50 50" fill="none" xmlns="http://www.w3.org/2000/svg">
<g id="Financial">
<path id="Financial_2" d="M16.7329 39.998C15.1149 39.9967 13.5636 39.3538 12.4189 38.2103C11.2743 37.0668 10.6299 35.516 10.627 33.898V16.098C10.6299 14.48 11.2743 12.9292 12.4189 11.7857C13.5636 10.6422 15.1149 9.99932 16.7329 9.998H22.4749C23.6109 9.99499 24.7364 10.2171 25.7861 10.6516C26.8359 11.086 27.7891 11.7241 28.5908 12.529L33.0229 16.961C33.3604 17.2983 33.6695 17.6629 33.947 18.051C34.1038 18.2706 34.1668 18.5435 34.1223 18.8096C34.0779 19.0757 33.9296 19.3132 33.71 19.47C33.4904 19.6267 33.2175 19.6898 32.9514 19.6454C32.6853 19.601 32.4478 19.4526 32.291 19.233C32.0789 18.9361 31.8427 18.6572 31.585 18.399L27.1519 13.969C26.7376 13.5542 26.2703 13.1961 25.762 12.904L25.3818 12.686V18.642C25.3824 19.0464 25.5435 19.4342 25.8296 19.7201C26.1157 20.006 26.5035 20.1667 26.908 20.167H30.7239C30.9936 20.167 31.2524 20.2741 31.4431 20.4649C31.6338 20.6556 31.741 20.9143 31.741 21.184C31.741 21.4537 31.6338 21.7124 31.4431 21.9032C31.2524 22.0939 30.9936 22.201 30.7239 22.201H26.908C25.9639 22.2005 25.0587 21.8255 24.3909 21.1582C23.7231 20.491 23.3473 19.586 23.3459 18.642V12.084L23.116 12.062C22.905 12.042 22.6909 12.032 22.4749 12.032H16.7329C15.6541 12.0328 14.6197 12.4616 13.8567 13.2243C13.0936 13.9869 12.6642 15.0211 12.6628 16.1V33.9C12.6642 34.9788 13.0936 36.0131 13.8567 36.7758C14.6197 37.5384 15.6541 37.9672 16.7329 37.968H28.1799C28.4497 37.968 28.7084 38.0752 28.8992 38.2659C29.0899 38.4566 29.197 38.7153 29.197 38.985C29.197 39.2547 29.0899 39.5134 28.8992 39.7041C28.7084 39.8948 28.4497 40.002 28.1799 40.002L16.7329 39.998ZM34.5388 39.998C34.2693 39.9975 34.0109 39.8902 33.8203 39.6995C33.6297 39.5089 33.5225 39.2505 33.522 38.981V37.455H32.927C32.3022 37.4544 31.6883 37.2899 31.147 36.9779C30.6056 36.6659 30.1558 36.2174 29.842 35.677C29.7748 35.5616 29.7309 35.434 29.7131 35.3017C29.6953 35.1693 29.7039 35.0347 29.7383 34.9056C29.7727 34.7765 29.8323 34.6556 29.9136 34.5496C29.9949 34.4436 30.0962 34.3547 30.2119 34.288C30.3274 34.2207 30.4549 34.177 30.5874 34.1592C30.7199 34.1414 30.8547 34.1499 30.9839 34.1843C31.113 34.2187 31.234 34.2782 31.3401 34.3595C31.4462 34.4408 31.5353 34.5422 31.6021 34.658C31.7369 34.8895 31.9298 35.0817 32.1619 35.2156C32.3939 35.3494 32.6571 35.4202 32.925 35.421H35.8101C36.2145 35.4207 36.6023 35.26 36.8884 34.9741C37.1745 34.6882 37.3354 34.3005 37.3359 33.896C37.3367 33.6036 37.2331 33.3205 37.0439 33.0974C36.8548 32.8744 36.5926 32.7261 36.304 32.679L32.436 32.035C31.672 31.9098 30.9775 31.5165 30.4771 30.9257C29.9766 30.335 29.7027 29.5852 29.7048 28.811C29.7062 27.8671 30.0819 26.9624 30.7495 26.2952C31.4171 25.628 32.322 25.2528 33.2659 25.252H33.52V23.726C33.52 23.456 33.6272 23.1971 33.8181 23.0062C34.009 22.8153 34.2679 22.708 34.5378 22.708C34.8078 22.708 35.0669 22.8153 35.2578 23.0062C35.4487 23.1971 35.5559 23.456 35.5559 23.726V25.252H36.1509C36.7757 25.253 37.3895 25.4178 37.9307 25.7302C38.4718 26.0425 38.9215 26.4914 39.2349 27.032C39.302 27.1474 39.3458 27.275 39.3635 27.4074C39.3812 27.5397 39.3725 27.6743 39.3381 27.8033C39.3038 27.9323 39.2443 28.0533 39.1631 28.1593C39.0819 28.2653 38.9806 28.3542 38.865 28.421C38.7097 28.5098 38.5339 28.5567 38.355 28.557C38.1767 28.557 38.0016 28.5102 37.8472 28.4212C37.6927 28.3322 37.5642 28.2042 37.4749 28.05C37.34 27.8185 37.1471 27.6263 36.915 27.4924C36.683 27.3586 36.4198 27.2878 36.1519 27.287H33.2668C32.8624 27.2873 32.4746 27.448 32.1885 27.7339C31.9024 28.0198 31.7415 28.4076 31.741 28.812C31.7402 29.1044 31.8436 29.3875 32.0327 29.6105C32.2218 29.8336 32.4843 29.9819 32.7729 30.029L36.6409 30.674C37.405 30.7984 38.0999 31.1911 38.6006 31.7816C39.1013 32.3721 39.3753 33.1218 39.373 33.896C39.3717 34.84 38.9959 35.7449 38.3281 36.4122C37.6603 37.0794 36.7551 37.4544 35.811 37.455H35.5569V38.981C35.5564 39.2507 35.4489 39.5093 35.2581 39.6999C35.0672 39.8905 34.8086 39.9977 34.5388 39.998ZM18.6389 34.914C17.8633 34.9138 17.1197 34.6056 16.571 34.0574C16.0224 33.5091 15.7137 32.7656 15.7129 31.99V29.448C15.7139 28.6725 16.0227 27.9291 16.5713 27.3809C17.1198 26.8327 17.8634 26.5245 18.6389 26.524H25.6389C25.9086 26.524 26.1674 26.6311 26.3582 26.8219C26.5489 27.0126 26.656 27.2713 26.656 27.541C26.656 27.8108 26.5489 28.0694 26.3582 28.2601C26.1674 28.4509 25.9086 28.558 25.6389 28.558H18.6389C18.4028 28.558 18.1763 28.6517 18.0093 28.8186C17.8422 28.9855 17.7483 29.2119 17.748 29.448V31.99C17.7483 32.2261 17.8422 32.4525 18.0093 32.6194C18.1763 32.7863 18.4028 32.88 18.6389 32.88H25.6389C25.9086 32.88 26.1674 32.9871 26.3582 33.1779C26.5489 33.3686 26.656 33.6273 26.656 33.897C26.656 34.1667 26.5489 34.4254 26.3582 34.6161C26.1674 34.8068 25.9086 34.914 25.6389 34.914H18.6389ZM16.731 23.473C16.5948 23.4772 16.4591 23.4541 16.332 23.405C16.205 23.3558 16.089 23.2817 15.9912 23.1868C15.8934 23.092 15.8156 22.9785 15.7625 22.853C15.7093 22.7276 15.6821 22.5927 15.6821 22.4565C15.6821 22.3203 15.7093 22.1854 15.7625 22.06C15.8156 21.9345 15.8934 21.821 15.9912 21.7262C16.089 21.6314 16.205 21.5572 16.332 21.508C16.4591 21.4588 16.5948 21.4357 16.731 21.44H19.2739C19.4101 21.4357 19.5458 21.4588 19.6729 21.508C19.7999 21.5572 19.9158 21.6314 20.0137 21.7262C20.1115 21.821 20.1893 21.9345 20.2424 22.06C20.2956 22.1854 20.3228 22.3203 20.3228 22.4565C20.3228 22.5927 20.2956 22.7276 20.2424 22.853C20.1893 22.9785 20.1115 23.092 20.0137 23.1868C19.9158 23.2817 19.7999 23.3558 19.6729 23.405C19.5458 23.4541 19.4101 23.4772 19.2739 23.473H16.731ZM16.731 18.389C16.4612 18.389 16.2024 18.2819 16.0117 18.0911C15.821 17.9004 15.7139 17.6417 15.7139 17.372C15.7139 17.1023 15.821 16.8436 16.0117 16.6528C16.2024 16.4621 16.4612 16.355 16.731 16.355H19.2739C19.5437 16.355 19.8024 16.4621 19.9932 16.6528C20.1839 16.8436 20.291 17.1023 20.291 17.372C20.291 17.6417 20.1839 17.9004 19.9932 18.0911C19.8024 18.2819 19.5437 18.389 19.2739 18.389H16.731Z" fill="#F9F9F9"/>
</g>
</svg>
