<svg width="20" height="21" viewBox="0 0 20 21" fill="none" xmlns="http://www.w3.org/2000/svg">
<path fill-rule="evenodd" clip-rule="evenodd" d="M2.75212 0.674486C1.79394 0.898844 1.09232 1.46715 0.50505 2.49479C0.0117172 3.35777 0 3.47375 0 7.48495C0 11.3004 0.0307071 11.6484 0.433131 12.3928C0.671313 12.8335 1.05152 13.3603 1.27818 13.5637C1.77515 14.0094 3.03151 14.4753 3.76848 14.4873L4.30465 14.4961L4.37919 11.7417C4.46323 8.6402 4.74364 7.72253 5.97879 6.50819C7.20525 5.30247 8.15313 5.009 11.2121 4.88821C13.8947 4.78244 13.9406 4.77283 14.0073 4.30408C14.196 2.98197 12.7711 1.09997 11.2681 0.686105C10.3909 0.444519 3.77293 0.435505 2.75212 0.674486ZM8.28283 6.86196C7.30485 7.30947 6.68929 7.94368 6.27232 8.93366C6.02606 9.5178 5.96061 10.4974 5.96404 13.5382C5.96889 17.8523 6.12566 18.5322 7.35131 19.5548C8.31495 20.3587 9.17111 20.5039 12.9293 20.4999C17.7297 20.4947 18.4774 20.2651 19.4949 18.4847C19.9871 17.6235 20 17.4989 20 13.5947C20 9.37056 19.8877 8.7043 19.0077 7.70891C18.0695 6.64782 17.3051 6.49217 13.0303 6.49217C9.62687 6.49217 8.98101 6.54245 8.28283 6.86196Z" fill="black"/>
</svg>
