<svg width="50" height="50" viewBox="0 0 50 50" fill="none" xmlns="http://www.w3.org/2000/svg">
<g id="Grades">
<g id="Grades_2">
<path d="M31.3616 22.714C29.6522 22.714 27.9812 23.2209 26.5598 24.1706C25.1385 25.1203 24.0307 26.4702 23.3765 28.0495C22.7223 29.6288 22.5511 31.3666 22.8846 33.0432C23.218 34.7197 24.0413 36.2598 25.25 37.4685C26.4588 38.6773 27.9987 39.5004 29.6753 39.8339C31.3519 40.1674 33.0897 39.9963 34.669 39.3421C36.2483 38.6879 37.5982 37.5801 38.5479 36.1588C39.4976 34.7374 40.0044 33.0664 40.0044 31.357C40.0005 29.0659 39.0888 26.8699 37.4688 25.2498C35.8488 23.6298 33.6527 22.718 31.3616 22.714ZM31.3616 37.966C30.0545 37.966 28.7766 37.5784 27.6897 36.8522C26.6029 36.126 25.7559 35.0938 25.2556 33.8862C24.7554 32.6785 24.6244 31.3497 24.8794 30.0677C25.1344 28.7856 25.764 27.608 26.6883 26.6837C27.6126 25.7595 28.7903 25.13 30.0723 24.875C31.3543 24.62 32.683 24.7508 33.8907 25.2511C35.0983 25.7513 36.1305 26.5984 36.8567 27.6852C37.5829 28.7721 37.9705 30.0499 37.9705 31.357C37.9665 33.1086 37.2689 34.7873 36.0303 36.0259C34.7917 37.2644 33.1132 37.962 31.3616 37.966Z" fill="#F9F9F9"/>
<path d="M31.3555 27.915C30.6831 27.9158 30.0387 28.1832 29.5632 28.6587C29.0878 29.1341 28.8204 29.7786 28.8196 30.451V34.074C28.8196 34.1692 28.8383 34.2635 28.8748 34.3514C28.9112 34.4394 28.9644 34.5193 29.0317 34.5866C29.0991 34.654 29.1791 34.7074 29.2671 34.7438C29.3551 34.7802 29.4492 34.799 29.5444 34.799C29.6396 34.799 29.7341 34.7802 29.822 34.7438C29.91 34.7074 29.9898 34.654 30.0571 34.5866C30.1245 34.5193 30.1779 34.4394 30.2144 34.3514C30.2508 34.2635 30.2695 34.1692 30.2695 34.074V32.987H32.4424V34.074C32.4388 34.1714 32.455 34.2685 32.4897 34.3596C32.5245 34.4506 32.5774 34.5338 32.645 34.604C32.7127 34.6742 32.7936 34.73 32.8833 34.7681C32.973 34.8063 33.0695 34.8259 33.167 34.8259C33.2645 34.8259 33.361 34.8063 33.4507 34.7681C33.5404 34.73 33.6213 34.6742 33.689 34.604C33.7566 34.5338 33.8095 34.4506 33.8442 34.3596C33.879 34.2685 33.8952 34.1714 33.8916 34.074V30.451C33.8908 29.7786 33.6234 29.1341 33.1479 28.6587C32.6725 28.1832 32.0278 27.9158 31.3555 27.915ZM32.4424 31.538H30.2695V30.451C30.2695 30.1628 30.3839 29.8865 30.5876 29.6827C30.7914 29.479 31.0678 29.3645 31.356 29.3645C31.6441 29.3645 31.9205 29.479 32.1243 29.6827C32.328 29.8865 32.4424 30.1628 32.4424 30.451V31.538ZM31.3555 27.915C30.6831 27.9158 30.0387 28.1832 29.5632 28.6587C29.0878 29.1341 28.8204 29.7786 28.8196 30.451V34.074C28.8196 34.1692 28.8383 34.2635 28.8748 34.3514C28.9112 34.4394 28.9644 34.5193 29.0317 34.5866C29.0991 34.654 29.1791 34.7074 29.2671 34.7438C29.3551 34.7802 29.4492 34.799 29.5444 34.799C29.6396 34.799 29.7341 34.7802 29.822 34.7438C29.91 34.7074 29.9898 34.654 30.0571 34.5866C30.1245 34.5193 30.1779 34.4394 30.2144 34.3514C30.2508 34.2635 30.2695 34.1692 30.2695 34.074V32.987H32.4424V34.074C32.4388 34.1714 32.455 34.2685 32.4897 34.3596C32.5245 34.4506 32.5774 34.5338 32.645 34.604C32.7127 34.6742 32.7936 34.73 32.8833 34.7681C32.973 34.8063 33.0695 34.8259 33.167 34.8259C33.2645 34.8259 33.361 34.8063 33.4507 34.7681C33.5404 34.73 33.6213 34.6742 33.689 34.604C33.7566 34.5338 33.8095 34.4506 33.8442 34.3596C33.879 34.2685 33.8952 34.1714 33.8916 34.074V30.451C33.8908 29.7786 33.6234 29.1341 33.1479 28.6587C32.6725 28.1832 32.0278 27.9158 31.3555 27.915ZM32.4424 31.538H30.2695V30.451C30.2695 30.1628 30.3839 29.8865 30.5876 29.6827C30.7914 29.479 31.0678 29.3645 31.356 29.3645C31.6441 29.3645 31.9205 29.479 32.1243 29.6827C32.328 29.8865 32.4424 30.1628 32.4424 30.451V31.538ZM31.3555 27.915C30.6831 27.9158 30.0387 28.1832 29.5632 28.6587C29.0878 29.1341 28.8204 29.7786 28.8196 30.451V34.074C28.8196 34.1692 28.8383 34.2635 28.8748 34.3514C28.9112 34.4394 28.9644 34.5193 29.0317 34.5866C29.0991 34.654 29.1791 34.7074 29.2671 34.7438C29.3551 34.7802 29.4492 34.799 29.5444 34.799C29.6396 34.799 29.7341 34.7802 29.822 34.7438C29.91 34.7074 29.9898 34.654 30.0571 34.5866C30.1245 34.5193 30.1779 34.4394 30.2144 34.3514C30.2508 34.2635 30.2695 34.1692 30.2695 34.074V32.987H32.4424V34.074C32.4388 34.1714 32.455 34.2685 32.4897 34.3596C32.5245 34.4506 32.5774 34.5338 32.645 34.604C32.7127 34.6742 32.7936 34.73 32.8833 34.7681C32.973 34.8063 33.0695 34.8259 33.167 34.8259C33.2645 34.8259 33.361 34.8063 33.4507 34.7681C33.5404 34.73 33.6213 34.6742 33.689 34.604C33.7566 34.5338 33.8095 34.4506 33.8442 34.3596C33.879 34.2685 33.8952 34.1714 33.8916 34.074V30.451C33.8908 29.7786 33.6234 29.1341 33.1479 28.6587C32.6725 28.1832 32.0278 27.9158 31.3555 27.915ZM32.4424 31.538H30.2695V30.451C30.2695 30.1628 30.3839 29.8865 30.5876 29.6827C30.7914 29.479 31.0678 29.3645 31.356 29.3645C31.6441 29.3645 31.9205 29.479 32.1243 29.6827C32.328 29.8865 32.4424 30.1628 32.4424 30.451V31.538Z" fill="#F9F9F9"/>
<path d="M16.0955 40C14.4784 39.9976 12.9281 39.3542 11.7847 38.2107C10.6412 37.0673 9.99799 35.5171 9.99561 33.9V16.1C9.99799 14.4829 10.6412 12.9327 11.7847 11.7893C12.9281 10.6458 14.4784 10.0024 16.0955 10H26.2695C27.8865 10.0026 29.4364 10.6462 30.5798 11.7896C31.7232 12.933 32.3667 14.483 32.3694 16.1V18.642C32.3694 18.9119 32.2624 19.1707 32.0715 19.3615C31.8807 19.5523 31.6219 19.6595 31.3521 19.6595C31.0822 19.6595 30.8234 19.5523 30.6326 19.3615C30.4417 19.1707 30.3345 18.9119 30.3345 18.642V16.1C30.3329 15.0213 29.9034 13.9873 29.1404 13.2249C28.3774 12.4624 27.3431 12.0338 26.2644 12.033H16.0955C15.0169 12.0338 13.9828 12.4625 13.22 13.2249C12.4571 13.9874 12.0279 15.0214 12.0266 16.1V33.894C12.0279 34.9727 12.4569 36.0068 13.2197 36.7694C13.9826 37.532 15.0168 37.9609 16.0955 37.962H21.1826C21.4522 37.962 21.7107 38.0691 21.9014 38.2597C22.092 38.4504 22.199 38.7089 22.199 38.9785C22.199 39.2481 22.092 39.5066 21.9014 39.6973C21.7107 39.8879 21.4522 39.995 21.1826 39.995L16.0955 40Z" fill="#F9F9F9"/>
<path d="M16.0955 31.1C15.8257 31.1 15.5672 30.9928 15.3765 30.8021C15.1857 30.6114 15.0786 30.3527 15.0786 30.083C15.0786 29.8133 15.1857 29.5546 15.3765 29.3639C15.5672 29.1731 15.8257 29.066 16.0955 29.066H18.6394C18.9091 29.066 19.1679 29.1731 19.3586 29.3639C19.5494 29.5546 19.6565 29.8133 19.6565 30.083C19.6565 30.3527 19.5494 30.6114 19.3586 30.8021C19.1679 30.9928 18.9091 31.1 18.6394 31.1H16.0955Z" fill="#F9F9F9"/>
<path d="M16.0955 24.744C15.8257 24.744 15.5672 24.6369 15.3765 24.4461C15.1857 24.2554 15.0786 23.9967 15.0786 23.727C15.0786 23.4573 15.1857 23.1986 15.3765 23.0079C15.5672 22.8171 15.8257 22.71 16.0955 22.71H21.1826C21.4523 22.71 21.7109 22.8171 21.9016 23.0079C22.0923 23.1986 22.1995 23.4573 22.1995 23.727C22.1995 23.9967 22.0923 24.2554 21.9016 24.4461C21.7109 24.6369 21.4523 24.744 21.1826 24.744H16.0955Z" fill="#F9F9F9"/>
<path d="M16.0955 18.389C15.8257 18.389 15.5672 18.2818 15.3765 18.0911C15.1857 17.9004 15.0786 17.6417 15.0786 17.372C15.0786 17.1023 15.1857 16.8436 15.3765 16.6529C15.5672 16.4621 15.8257 16.355 16.0955 16.355H26.2695C26.5393 16.355 26.7978 16.4621 26.9885 16.6529C27.1793 16.8436 27.2864 17.1023 27.2864 17.372C27.2864 17.6417 27.1793 17.9004 26.9885 18.0911C26.7978 18.2818 26.5393 18.389 26.2695 18.389H16.0955Z" fill="#F9F9F9"/>
</g>
</g>
</svg>
