<svg width="50" height="50" viewBox="0 0 50 50" fill="none" xmlns="http://www.w3.org/2000/svg">
<g id="Live">
<path id="Live_2" d="M16.249 34.7475C14.6581 34.7462 13.1327 34.1136 12.0078 32.9886C10.8829 31.8637 10.2503 30.3384 10.249 28.7475V21.2475C10.2503 19.6571 10.883 18.1322 12.0081 17.0081C13.1331 15.8839 14.6586 15.2525 16.249 15.2525H27.501C29.001 15.2643 30.4426 15.8358 31.5432 16.855C32.6438 17.8743 33.3241 19.2678 33.4509 20.7625L33.4949 21.3035L36.074 18.7035C36.1079 18.6692 36.1443 18.6374 36.1829 18.6085C36.5668 18.3169 37.0359 18.1592 37.5181 18.1595C37.8652 18.1605 38.2074 18.2416 38.5181 18.3965C38.8894 18.5807 39.2018 18.8652 39.4197 19.2178C39.6376 19.5704 39.7523 19.977 39.751 20.3915V29.5345C39.7511 29.9488 39.6358 30.3549 39.418 30.7073C39.2001 31.0597 38.8882 31.3444 38.5176 31.5295C38.1469 31.7146 37.7322 31.7926 37.3196 31.755C36.907 31.7174 36.513 31.5655 36.1819 31.3165C36.1437 31.2874 36.1074 31.256 36.073 31.2225L33.4949 28.6495L33.4539 29.1915C33.3387 30.6947 32.6628 32.0997 31.5601 33.1277C30.4573 34.1558 29.0086 34.7318 27.501 34.7415L16.249 34.7475ZM16.249 17.2565C15.1882 17.2565 14.1708 17.6779 13.4207 18.428C12.6705 19.1782 12.249 20.1956 12.249 21.2565V28.7565C12.249 29.8173 12.6705 30.8348 13.4207 31.5849C14.1708 32.335 15.1882 32.7565 16.249 32.7565H27.499C28.5599 32.7565 29.5772 32.335 30.3274 31.5849C31.0775 30.8348 31.499 29.8173 31.499 28.7565V21.2565C31.499 20.1956 31.0775 19.1782 30.3274 18.428C29.5772 17.6779 28.5599 17.2565 27.499 17.2565H16.249ZM33.499 24.1425V25.8345L37.783 30.1105L37.7471 19.8575L33.499 24.1425Z" fill="#F9F9F9"/>
</g>
</svg>
