<?xml version="1.0" encoding="UTF-8"?>
<svg xmlns="http://www.w3.org/2000/svg" viewBox="0 0 646.89 1080">
  <defs>
    <style>
      .cls-1, .cls-2, .cls-3, .cls-4 {
        fill: #eff2fb;
        stroke-width: 0px;
      }

      .cls-5 {
        isolation: isolate;
      }

      .cls-6 {
        mix-blend-mode: multiply;
        opacity: .5;
      }

      .cls-2 {
        opacity: .9;
      }

      .cls-3 {
        opacity: .7;
      }

      .cls-4 {
        opacity: .8;
      }
    </style>
  </defs>
  <g class="cls-5">
    <g id="Layer_2" data-name="Layer 2">
      <g id="Layer_1-2" data-name="Layer 1">
        <g class="cls-6">
          <path class="cls-3" d="m359.98,393.71c79.24,14.39,146.12,33.49,195.31,55.83,58.15,26.41,91.6,57.37,91.6,90.46,0,61.09-114.01,114.89-286.9,146.29-32.3-46.64-70.59-95.96-113.92-146.3,43.32-50.34,81.61-99.65,113.91-146.28Z"/>
          <path class="cls-4" d="m153.11,186.81c66.2-45.85,126.99-79.64,177.6-98.63,59.79-22.4,105.33-24.18,128.7-.82,43.23,43.23.64,161.88-99.42,306.34-55.81-10.14-117.75-17.94-183.97-22.9-4.96-66.24-12.76-128.19-22.9-184Z"/>
          <path class="cls-3" d="m181.1,467.82c-1.02-33.17-2.73-65.57-5.09-97.01,66.22,4.96,128.17,12.76,183.97,22.9-32.3,46.63-70.59,95.94-113.91,146.28-20.56-23.88-42.25-48-64.97-72.16Z"/>
          <path class="cls-4" d="m181.1,467.82c-1.02-33.17-2.73-65.57-5.09-97.01,66.22,4.96,128.17,12.76,183.97,22.9-32.3,46.63-70.59,95.94-113.91,146.28-20.56-23.88-42.25-48-64.97-72.16Z"/>
          <path class="cls-2" d="m153.11,893.18c-13.58,74.78-31.35,138.54-52.09,186.82h-62.77c-21.13,0-38.26-17.13-38.26-38.26v-256.66c2.26-1.93,4.53-3.87,6.8-5.82,50.35,43.33,99.67,81.62,146.31,113.92Z"/>
          <path class="cls-2" d="m6.8,300.72C4.53,298.77,2.27,296.83,0,294.89V38.26C0,17.13,17.13,0,38.26,0h62.76c20.74,48.28,38.51,112.04,52.09,186.81-46.64,32.3-95.96,70.59-146.3,113.91Z"/>
          <path class="cls-4" d="m79,365.72c-24.18-22.74-48.3-44.44-72.2-65,50.35-43.32,99.67-81.61,146.3-113.91,10.14,55.81,17.94,117.76,22.9,184-31.44-2.35-63.84-4.07-97-5.09Z"/>
          <path class="cls-2" d="m79,365.72c-24.18-22.74-48.3-44.44-72.2-65,50.35-43.32,99.67-81.61,146.3-113.91,10.14,55.81,17.94,117.76,22.9,184-31.44-2.35-63.84-4.07-97-5.09Z"/>
          <path class="cls-4" d="m0,785.08v-11.7c2.27,1.97,4.53,3.93,6.8,5.87C4.53,781.21,2.26,783.15,0,785.08Z"/>
          <path class="cls-2" d="m0,785.08v-11.7c2.27,1.97,4.53,3.93,6.8,5.87C4.53,781.21,2.26,783.15,0,785.08Z"/>
          <path class="cls-3" d="m181.1,467.82c-16.24-17.28-33.01-34.58-50.27-51.84-17.26-17.26-34.55-34.02-51.82-50.26,33.17,1.02,65.57,2.73,97,5.09,2.36,31.44,4.07,63.84,5.09,97.01Z"/>
          <path class="cls-4" d="m181.1,467.82c-16.24-17.28-33.01-34.58-50.27-51.84-17.26-17.26-34.55-34.02-51.82-50.26,33.17,1.02,65.57,2.73,97,5.09,2.36,31.44,4.07,63.84,5.09,97.01Z"/>
          <path class="cls-2" d="m181.1,467.82c-16.24-17.28-33.01-34.58-50.27-51.84-17.26-17.26-34.55-34.02-51.82-50.26,33.17,1.02,65.57,2.73,97,5.09,2.36,31.44,4.07,63.84,5.09,97.01Z"/>
          <path class="cls-1" d="m79,365.72c17.27,16.24,34.57,33,51.82,50.26,17.26,17.26,34.03,34.56,50.27,51.84,22.72,24.17,44.42,48.28,64.97,72.16,43.33,50.34,81.62,99.67,113.92,146.3,45.85,66.21,79.64,126.99,98.62,177.58,22.44,59.79,24.21,105.33.81,128.74-43.2,43.2-161.85.62-306.31-99.42-46.64-32.3-95.96-70.59-146.31-113.92C4.53,777.31,2.27,775.35,0,773.38v-478.49c2.27,1.93,4.53,3.87,6.8,5.83,23.9,20.57,48.02,42.27,72.2,65Z"/>
        </g>
      </g>
    </g>
  </g>
</svg>