<svg width="31" height="30" viewBox="0 0 31 30" fill="none" xmlns="http://www.w3.org/2000/svg">
<path fill-rule="evenodd" clip-rule="evenodd" d="M1.21149 12.0191C2.44573 6.18948 6.97796 1.61313 12.7587 0.358858C14.9483 -0.116354 16.6172 -0.119206 18.8221 0.34797C24.7088 1.5955 29.2408 6.12959 30.4877 12.0191C30.9702 14.2982 30.9702 15.6878 30.4877 17.9669C29.2408 23.8563 24.7088 28.3904 18.8221 29.638C16.5441 30.1207 15.1551 30.1207 12.8771 29.638C6.9904 28.3904 2.45843 23.8563 1.21149 17.9669C0.728983 15.6878 0.728983 14.2982 1.21149 12.0191ZM8.59391 21.6331C8.59391 21.1581 14.4342 8.05879 14.761 7.80057C15.2881 7.38421 16.4156 7.38421 16.9227 7.80057C17.2163 8.04142 21.9444 18.5645 23.025 21.3816C23.1307 21.6569 22.8068 21.7355 21.564 21.7355H19.9672L18.7065 18.8837H15.8683C15.7881 18.8837 15.71 18.8836 15.634 18.8836C13.9891 18.8829 13.3224 18.8827 12.9205 19.2089C12.6466 19.4313 12.4957 19.8053 12.2419 20.4342C12.2248 20.4766 12.2072 20.5202 12.1891 20.5649C11.768 21.6056 11.7675 21.6058 10.1808 21.6831C9.30807 21.7254 8.59391 21.7031 8.59391 21.6331ZM14.4244 14.6376C13.7763 16.2035 13.8447 16.2911 15.72 16.2911C17.0393 16.2911 17.4044 16.2074 17.4044 15.9051C17.4044 15.3705 16.1054 12.1716 15.8157 11.9924C15.6858 11.9121 15.4073 12.2631 15.1963 12.7725C15.0351 13.1624 14.7937 13.7455 14.5935 14.2292L14.585 14.2497L14.5841 14.2518L14.4244 14.6376Z" fill="#C4C4C4"/>
</svg>
