<svg width="34" height="38" viewBox="0 0 34 38" fill="none" xmlns="http://www.w3.org/2000/svg">
<path d="M11.3049 7.59263V13.6626C11.3049 13.7386 11.3049 13.8156 11.3049 13.8926C11.3119 13.9926 11.2579 14.1586 11.3389 14.1926C11.4689 14.2456 11.539 14.0796 11.616 13.9986C13.0613 12.5606 14.505 11.1213 15.947 9.68064C16.094 9.53464 16.2469 9.23764 16.4118 9.30464C16.5768 9.37164 16.465 9.68763 16.469 9.89363C16.48 10.4296 16.462 10.9666 16.478 11.5026C16.484 11.6083 16.4661 11.7139 16.4258 11.8117C16.3854 11.9095 16.3235 11.9969 16.2449 12.0676C15.1559 13.1456 14.0769 14.2336 12.9939 15.3186C12.9232 15.379 12.8564 15.4438 12.7939 15.5126C12.7379 15.5836 12.7299 15.6556 12.8559 15.6576H15.9829C16.4669 15.6576 16.468 15.6576 16.469 16.1166C16.469 17.5426 16.469 18.9683 16.469 20.3936C16.469 20.8206 16.469 20.8236 16.05 20.8246C15.05 20.8246 14.057 20.8246 13.061 20.8246C12.961 20.8246 12.818 20.7636 12.769 20.8656C12.72 20.9676 12.8609 21.0426 12.9319 21.1126C14.0019 22.1876 15.07 23.2666 16.155 24.3276C16.2632 24.4212 16.3484 24.5384 16.404 24.6702C16.4597 24.802 16.4844 24.9448 16.4761 25.0876C16.4551 25.7306 16.476 26.3746 16.467 27.0186C16.467 27.0826 16.5121 27.1816 16.4031 27.2066C16.3371 27.2216 16.2959 27.1606 16.2539 27.1196C15.9599 26.8276 15.668 26.5346 15.375 26.2426L11.6999 22.5686C11.6239 22.4936 11.55 22.4146 11.469 22.3446C11.369 22.2566 11.3069 22.2906 11.3039 22.4216C11.3009 22.5526 11.3039 22.6666 11.3039 22.7896V35.0696C11.3039 35.5906 11.304 35.5946 10.823 35.4126C9.24094 34.8221 7.76198 33.9855 6.4409 32.9336C6.33681 32.8598 6.25334 32.7606 6.19823 32.6454C6.14311 32.5303 6.11822 32.403 6.12596 32.2756C6.13696 29.1326 6.13304 25.9906 6.13304 22.8486C6.13304 22.7716 6.13304 22.6946 6.13304 22.6186C6.12404 22.5186 6.18785 22.3726 6.08885 22.3186C5.94685 22.2466 5.88907 22.4186 5.80907 22.4936C4.62307 23.6703 3.4403 24.8503 2.26097 26.0336C2.18497 26.1096 2.10897 26.1856 2.03197 26.2606C1.92197 26.3686 1.85394 26.3356 1.80394 26.1986C1.59927 25.6377 1.43223 25.0638 1.30394 24.4806C1.25694 24.2696 1.43288 24.1806 1.54588 24.0706C2.49688 23.1136 3.45406 22.1636 4.40306 21.2056C4.50306 21.1056 4.71699 21.0256 4.63499 20.8596C4.58599 20.7596 4.38201 20.8246 4.24901 20.8246C3.26801 20.8246 2.28589 20.8136 1.30589 20.8246C1.02889 20.8246 0.934973 20.7556 0.937973 20.4656C0.95064 18.9796 0.95064 17.493 0.937973 16.0056C0.937973 15.7176 1.02692 15.6416 1.30492 15.6456C2.27092 15.6606 3.23706 15.6536 4.20506 15.6456C4.35206 15.6456 4.57089 15.7166 4.62889 15.6006C4.70189 15.4536 4.4899 15.3566 4.3889 15.2546C3.4949 14.3546 2.62007 13.4246 1.68407 12.5646C1.41087 12.3607 1.19714 12.0873 1.06541 11.7728C0.933692 11.4584 0.888763 11.1144 0.935043 10.7766C0.970144 10.3185 0.974737 9.85844 0.948959 9.39964C0.948959 9.34564 0.922018 9.26463 1.00902 9.25363C1.05295 9.25531 1.0945 9.27395 1.12498 9.30564C1.21598 9.38764 1.30092 9.47663 1.38792 9.56263L5.71385 13.8866C5.80085 13.9726 5.88501 14.0626 5.97801 14.1416C6.07101 14.2206 6.12306 14.1796 6.13206 14.0786C6.14306 13.9566 6.1389 13.8336 6.1389 13.7106C6.1389 10.3533 6.1389 6.99664 6.1389 3.64064C6.1389 3.10864 6.06795 3.19563 6.58495 2.98863C7.19795 2.74263 7.76192 2.39964 8.35692 2.11864C9.20292 1.71864 10.057 1.34563 10.938 1.02663C11.302 0.894633 11.3078 0.895634 11.3078 1.28263C11.3058 3.39063 11.3049 5.49396 11.3049 7.59263Z" fill="#ED212E"/>
<path d="M18.3679 6.35864V0.567635C18.3679 0.0676346 18.3679 0.0576357 18.8769 0.0516357C20.4883 0.0560604 22.0857 0.35147 23.592 0.923637C25.02 1.43964 26.378 2.10764 27.747 2.76064C29.5248 3.6799 31.5087 4.12751 33.509 4.06063C33.786 4.04463 33.8809 4.09763 33.8799 4.39563C33.8699 7.81263 33.88 11.2286 33.873 14.6446C33.873 15.0096 33.865 15.0156 33.48 15.0266C31.3024 15.051 29.1352 14.7221 27.063 14.0526C25.1496 13.4491 23.1871 13.0141 21.198 12.7526C20.3914 12.6569 19.5791 12.6192 18.7671 12.6396C18.3731 12.6486 18.3669 12.6396 18.3669 12.2396C18.3662 10.2803 18.3666 8.31997 18.3679 6.35864Z" fill="#ED212E"/>
<path d="M18.362 30.7306C18.362 28.464 18.362 26.1973 18.362 23.9306C18.362 23.4756 18.3619 23.4746 18.8039 23.4716C21.1503 23.4825 23.487 23.7725 25.7648 24.3356C28.1118 24.8727 30.5187 25.1033 32.925 25.0216C32.9865 25.0213 33.0478 25.017 33.1088 25.0086C33.3668 24.9676 33.3879 25.0836 33.3249 25.2976C33.0891 26.1222 32.7882 26.9267 32.425 27.7036C31.6092 29.4775 30.4485 31.0713 29.0109 32.3924C27.5733 33.7135 25.8873 34.7354 24.0509 35.3986C22.2638 36.0853 20.5205 36.8811 18.831 37.7816C18.764 37.8176 18.6978 37.8566 18.6308 37.8946C18.4308 38.0056 18.359 37.9426 18.361 37.7226C18.361 36.9716 18.361 36.2226 18.361 35.4696L18.362 30.7306Z" fill="#2C292A"/>
<path d="M12.9388 26.6976C12.9388 26.5906 12.9389 26.4836 12.9439 26.3766C12.9499 26.2476 13.0158 26.2156 13.1158 26.2956C13.1973 26.3656 13.2747 26.44 13.3478 26.5186C14.3008 27.4706 15.2478 28.4276 16.2108 29.3706C16.2998 29.4514 16.3699 29.5508 16.4159 29.6618C16.4619 29.7728 16.4827 29.8926 16.4769 30.0126C16.4679 32.5226 16.4718 35.0336 16.4718 37.5436C16.4718 37.6056 16.4718 37.6666 16.4718 37.7276C16.4828 37.9726 16.3718 37.9766 16.1918 37.8806C15.1918 37.3416 14.1819 36.8376 13.1449 36.3806C12.9149 36.2806 12.9388 36.1086 12.9388 35.9266V26.6976Z" fill="#2D3F94"/>
<path d="M12.9388 5.33564C12.9388 3.83497 12.9388 2.33497 12.9388 0.835636C12.9388 0.404636 12.9387 0.399637 13.3387 0.319637C14.2077 0.134841 15.0944 0.0463069 15.9828 0.0556371C16.4728 0.0656371 16.475 0.0686361 16.475 0.536636C16.475 2.52764 16.4749 4.51863 16.4799 6.50963C16.4865 6.6148 16.47 6.72015 16.4313 6.81816C16.3926 6.91618 16.3325 7.00443 16.2557 7.07663C15.2627 8.05363 14.2808 9.04264 13.2948 10.0276C13.2427 10.0839 13.1873 10.137 13.1288 10.1866C13.0348 10.2606 12.9589 10.2516 12.9489 10.1156C12.9389 9.97964 12.9427 9.87164 12.9427 9.74864L12.9388 5.33564Z" fill="#2D3F94"/>
<path d="M4.49595 6.99364C4.49595 7.99364 4.49595 8.98463 4.49595 9.98063C4.49595 10.0626 4.54494 10.1806 4.43394 10.2216C4.32294 10.2626 4.27494 10.1526 4.21494 10.0926C3.18494 9.06597 2.15486 8.0383 1.12486 7.00963C1.0643 6.95258 1.01677 6.88308 0.985696 6.80591C0.95462 6.72873 0.940804 6.64573 0.944925 6.56264C0.951925 5.82764 0.954925 5.09264 0.944925 4.36264C0.944925 4.12364 1.01087 4.04064 1.25987 4.06264C2.23923 4.13371 3.22368 4.04179 4.17295 3.79064C4.46095 3.71664 4.50579 3.80164 4.50279 4.06064C4.48979 5.03364 4.49595 6.01364 4.49595 6.99364Z" fill="#2D3F94"/>
<path d="M4.49585 28.5866C4.49585 29.2596 4.49585 29.9326 4.49585 30.6056C4.49585 30.6766 4.52966 30.7726 4.45166 30.8116C4.33666 30.8696 4.29268 30.7496 4.24268 30.6866C3.64918 29.9273 3.12633 29.1152 2.68067 28.2606C2.61367 28.1316 2.57064 28.0246 2.70264 27.8966C3.22864 27.3836 3.74367 26.8606 4.26367 26.3426C4.31467 26.2926 4.36386 26.2086 4.45386 26.2666C4.54386 26.3246 4.49485 26.4046 4.49585 26.4756C4.49685 27.1796 4.49585 27.8826 4.49585 28.5866Z" fill="#2D3F94"/>
</svg>
