<svg width="51" height="50" viewBox="0 0 51 50" fill="none" xmlns="http://www.w3.org/2000/svg">
<g clip-path="url(#clip0_2526_4605)">
<path fill-rule="evenodd" clip-rule="evenodd" d="M1.30235 20.0318C3.35943 10.3158 10.9131 2.68855 20.5477 0.598098C24.1971 -0.193923 26.9785 -0.198676 30.6534 0.57995C40.4646 2.65917 48.0178 10.216 50.0961 20.0318C50.9003 23.8303 50.9003 26.1463 50.0961 29.9448C48.0178 39.7606 40.4646 47.3174 30.6534 49.3966C26.8567 50.2011 24.5418 50.2011 20.745 49.3966C10.9339 47.3174 3.38059 39.7606 1.30235 29.9448C0.498175 26.1463 0.498175 23.8303 1.30235 20.0318ZM13.6064 36.0551C13.6064 35.2635 23.3403 13.4313 23.8849 13.0009C24.7633 12.307 26.6425 12.307 27.4877 13.0009C27.977 13.4024 35.8572 30.9409 37.6582 35.636C37.8344 36.0948 37.2945 36.2258 35.2232 36.2258H32.5619L30.4608 31.4728H25.7303C25.5966 31.4728 25.4665 31.4727 25.3399 31.4727C22.5983 31.4716 21.4871 31.4711 20.8173 32.0149C20.3608 32.3855 20.1093 33.0088 19.6864 34.057C19.6579 34.1277 19.6286 34.2003 19.5984 34.2749C18.8966 36.0093 18.8957 36.0097 16.2513 36.1385C14.7967 36.2089 13.6064 36.1718 13.6064 36.0551ZM23.3238 24.396C22.2437 27.0058 22.3577 27.1519 25.4833 27.1519C27.682 27.1519 28.2905 27.0123 28.2905 26.5085C28.2905 25.6175 26.1255 20.286 25.6426 19.9874C25.4263 19.8535 24.962 20.4385 24.6104 21.2876C24.3417 21.9374 23.9394 22.9092 23.6056 23.7153L23.5915 23.7495L23.59 23.753L23.3238 24.396Z" fill="#75D00F"/>
</g>
<defs>
<clipPath id="clip0_2526_4605">
<rect width="50" height="50" fill="white" transform="translate(0.699219)"/>
</clipPath>
</defs>
</svg>
