<svg width="51" height="50" viewBox="0 0 51 50" fill="none" xmlns="http://www.w3.org/2000/svg">
<g clip-path="url(#clip0_2526_4634)">
<path d="M47.4267 44.3146C48.9743 44.3146 50.2329 45.5896 50.2329 47.1573C50.2329 48.7279 48.9743 50 47.4267 50H31.5654C30.0179 50 28.7592 48.7279 28.7592 47.1573C28.7592 45.5896 30.0179 44.3146 31.5654 44.3146H47.4267ZM36.427 1.94184L40.5242 5.19662C42.2044 6.51048 43.3245 8.24238 43.7077 10.0639C44.1498 12.0675 43.6782 14.0353 42.3517 15.7373L17.9451 47.2997C16.825 48.733 15.1743 49.5393 13.4057 49.5691L3.67845 49.6886C3.14787 49.6886 2.70572 49.3302 2.58782 48.8226L0.377073 39.2374C-0.00612329 37.4757 0.377073 35.6542 1.49718 34.2508L18.7999 11.8555C19.0947 11.4972 19.6253 11.4404 19.979 11.7062L27.2597 17.4991C27.7314 17.8873 28.3798 18.0963 29.0578 18.0067C30.5022 17.8276 31.4749 16.5137 31.3275 15.1103C31.2391 14.3936 30.8854 13.7964 30.4137 13.3485C30.2663 13.2291 23.3393 7.67503 23.3393 7.67503C22.8972 7.31671 22.8088 6.65978 23.1625 6.21486L25.9038 2.65849C28.4388 -0.596287 32.8603 -0.894891 36.427 1.94184Z" fill="#75D00F"/>
</g>
<defs>
<clipPath id="clip0_2526_4634">
<rect width="50" height="50" fill="white" transform="translate(0.23291)"/>
</clipPath>
</defs>
</svg>
