<svg width="51" height="50" viewBox="0 0 51 50" fill="none" xmlns="http://www.w3.org/2000/svg">
<path fill-rule="evenodd" clip-rule="evenodd" d="M30.1866 0.570392C25.7135 1.76694 21.7662 5.02736 19.825 9.12845C15.1594 18.9877 20.8546 29.9675 31.7459 32.1093C36.4582 33.0362 42.0746 31.2193 45.6961 27.5967C52.0323 21.2593 52.0594 11.1735 45.7569 4.87372C41.481 0.599394 35.8732 -0.950667 30.1866 0.570392ZM30.1753 12.2995L29.2433 13.2915L30.6904 14.7377L32.1372 16.1839L30.6853 17.6701L29.2339 19.1562L30.2937 20.2152L31.353 21.2746L32.8398 19.8237L34.3265 18.3724L35.7838 19.8296L37.2415 21.2867L38.3072 20.2215L39.3728 19.1562L37.9214 17.6701L36.4695 16.1839L37.9272 14.7271L39.385 13.2699L38.3193 12.2047L37.2537 11.1394L35.7595 12.5978L34.2657 14.0561L32.9335 12.682C32.2007 11.9264 31.4899 11.3079 31.3542 11.3079C31.2186 11.3079 30.6881 11.7543 30.1753 12.2995ZM11.3673 18.6236C3.60043 21.3326 -1.05931 29.7394 0.921813 37.4689C1.80789 40.9269 2.90411 42.8755 5.32592 45.2964C11.6312 51.599 21.8207 51.5633 28.0302 45.2161C30.2478 42.9496 32.0458 39.5888 32.392 37.064L32.6257 35.3596L30.5019 34.8846C28.1287 34.3535 23.7732 32.4123 23.3235 31.6853C23.129 31.3702 21.7407 32.4981 19.1616 35.066L15.2919 38.9198L12.7466 36.3982L10.2009 33.8761L11.2536 32.778L12.3059 31.6798L13.8044 33.1424L15.3029 34.6051L17.9059 32.0031L20.5092 29.4011L19.4428 28.1344C17.9074 26.3104 16.245 22.8293 15.6648 20.2242C15.21 18.1807 15.0684 17.9722 14.1475 17.9895C13.5888 17.9997 12.3377 18.285 11.3673 18.6236Z" fill="#75D00F"/>
</svg>
