<svg width="15" height="15" viewBox="0 0 15 15" fill="none" xmlns="http://www.w3.org/2000/svg">
<path id="Vector" fill-rule="evenodd" clip-rule="evenodd" d="M6.34603 0.0864229C3.72089 0.460283 1.17373 2.52157 0.323224 4.96037C-0.0399639 6.00207 -0.0628524 5.98149 1.41606 5.94337L2.71101 5.90996L3.01788 5.32176C3.40105 4.58757 4.5003 3.4961 5.21287 3.14213C5.91975 2.7912 6.8296 2.56039 7.51322 2.55863C8.63827 2.55581 10.2913 3.16377 10.9168 3.81056L11.1889 4.09195L10.4874 4.78062C9.35265 5.89455 9.37906 5.90996 12.4147 5.90996H14.9562L14.9889 3.42352C15.0281 0.429579 15.0258 0.425697 13.866 1.50763L13.0992 2.22289L12.3942 1.66504C10.7042 0.327938 8.56706 -0.229911 6.34603 0.0864229ZM0.0830766 9.10354C0.0374208 9.14789 0 10.2815 0 11.6226C0 14.5566 0.00205877 14.56 1.15072 13.4886L1.91754 12.7733L2.6226 13.3312C4.53664 14.8456 7.24886 15.3856 9.58759 14.7181C11.8537 14.0712 13.9597 12.1399 14.6935 10.0358C15.0567 8.99413 15.0796 9.01472 13.6007 9.05284L12.3057 9.08625L11.9989 9.67445C11.6157 10.4086 10.5165 11.5001 9.80388 11.8541C9.09701 12.205 8.18716 12.4358 7.50353 12.4376C6.37849 12.4404 4.72543 11.8324 4.09994 11.1857L3.82782 10.9043L4.52937 10.2156C5.65647 9.10919 5.62947 9.09248 2.65494 9.05448C1.28623 9.03707 0.128853 9.05907 0.0830766 9.10354Z" fill="#FFB70A"/>
</svg>
