<svg width="50" height="50" viewBox="0 0 50 50" fill="none" xmlns="http://www.w3.org/2000/svg">
<g id="Schedule">
<path id="Schedule_2" d="M31.355 39.9967C29.6522 39.992 27.9888 39.483 26.575 38.534C25.1611 37.585 24.0601 36.2385 23.4106 34.6644C22.7612 33.0903 22.5924 31.3591 22.9258 29.6892C23.2592 28.0193 24.0796 26.4856 25.2837 25.2815C26.4878 24.0774 28.0215 23.257 29.6914 22.9236C31.3613 22.5902 33.0924 22.7589 34.6665 23.4083C36.2406 24.0578 37.5871 25.1589 38.5361 26.5728C39.4851 27.9867 39.9943 29.6499 39.999 31.3527C40.0009 32.4884 39.7785 33.6133 39.3447 34.6629C38.911 35.7124 38.2742 36.6661 37.4712 37.4691C36.6682 38.2721 35.7146 38.9088 34.665 39.3425C33.6155 39.7763 32.4906 39.9986 31.355 39.9967ZM31.355 24.7967C30.0524 24.8015 28.7804 25.1925 27.7 25.9201C26.6195 26.6478 25.7792 27.6795 25.2852 28.8848C24.7911 30.0901 24.6655 31.4148 24.9243 32.6915C25.1832 33.9681 25.8147 35.1393 26.7393 36.057C27.6638 36.9747 28.8399 37.5976 30.1184 37.8469C31.3969 38.0963 32.7205 37.9609 33.9221 37.4579C35.1237 36.9549 36.1493 36.1068 36.8689 35.021C37.5885 33.9352 37.9698 32.6604 37.9648 31.3577C37.9498 29.6138 37.247 27.9463 36.0093 26.7177C34.7715 25.4891 33.099 24.7988 31.355 24.7967ZM16.1011 39.9967C14.484 39.9944 12.9337 39.3509 11.7903 38.2075C10.6468 37.064 10.0034 35.5138 10.001 33.8967V18.6408C10.0036 17.0238 10.6471 15.4737 11.7905 14.3303C12.9339 13.1869 14.4841 12.5434 16.1011 12.5408H17.626V11.0158C17.626 10.7459 17.7333 10.4871 17.9241 10.2963C18.1149 10.1055 18.3737 9.99825 18.6436 9.99825C18.9134 9.99825 19.1722 10.1055 19.363 10.2963C19.5539 10.4871 19.6609 10.7459 19.6609 11.0158V12.5408H30.3379V11.0158C30.3379 10.746 30.445 10.4873 30.6357 10.2966C30.8265 10.1059 31.0853 9.99876 31.355 9.99876C31.6247 9.99876 31.8832 10.1059 32.074 10.2966C32.2647 10.4873 32.3721 10.746 32.3721 11.0158V12.5408H33.8979C35.515 12.5431 37.0653 13.1866 38.2087 14.33C39.3522 15.4735 39.9957 17.0237 39.998 18.6408V21.1828C39.998 21.4525 39.8909 21.7111 39.7002 21.9019C39.5095 22.0926 39.2507 22.1998 38.981 22.1998C38.7112 22.1998 38.4524 22.0926 38.2617 21.9019C38.071 21.7111 37.9639 21.4525 37.9639 21.1828V18.6408C37.9628 17.5624 37.5342 16.5284 36.7717 15.7658C36.0093 15.0031 34.9754 14.5741 33.897 14.5727H16.0969C15.0184 14.5741 13.9845 15.0031 13.2219 15.7657C12.4593 16.5283 12.0304 17.5623 12.0291 18.6408V20.1658H23.729C23.9987 20.1658 24.2573 20.2729 24.448 20.4636C24.6387 20.6543 24.7458 20.913 24.7458 21.1828C24.7458 21.4525 24.6387 21.7111 24.448 21.9019C24.2573 22.0926 23.9987 22.1998 23.729 22.1998H12.0291V33.8998C12.0304 34.9783 12.4593 36.0122 13.2219 36.7748C13.9845 37.5374 15.0184 37.9664 16.0969 37.9678H21.1819C21.4516 37.9678 21.7104 38.0749 21.9011 38.2656C22.0918 38.4563 22.199 38.715 22.199 38.9848C22.199 39.2545 22.0918 39.5131 21.9011 39.7039C21.7104 39.8946 21.4516 40.0018 21.1819 40.0018L16.1011 39.9967ZM32.626 33.6408C32.4923 33.6407 32.36 33.6141 32.2366 33.5626C32.1132 33.5111 32.0011 33.4357 31.907 33.3407L30.636 32.0697C30.5409 31.9757 30.4653 31.8637 30.4138 31.7403C30.3623 31.6169 30.3359 31.4845 30.3359 31.3508V28.8078C30.3359 28.538 30.4431 28.2793 30.6338 28.0886C30.8245 27.8979 31.0833 27.7908 31.353 27.7908C31.6228 27.7908 31.8813 27.8979 32.072 28.0886C32.2627 28.2793 32.3699 28.538 32.3699 28.8078V30.9298L33.343 31.9028C33.4852 32.045 33.5819 32.2262 33.6211 32.4234C33.6603 32.6207 33.6402 32.8251 33.5632 33.0109C33.4863 33.1967 33.3562 33.3555 33.189 33.4673C33.0218 33.579 32.8251 33.6387 32.624 33.6387L32.626 33.6408Z" fill="#F9F9F9"/>
</g>
</svg>
