<svg width="14" height="14" viewBox="0 0 14 14" fill="none" xmlns="http://www.w3.org/2000/svg">
<path d="M4.455 7.91868C5.33626 7.91868 6.0425 8.63181 6.0425 9.51931V11.6499C6.0425 12.5312 5.33626 13.2499 4.455 13.2499H2.3425C1.4675 13.2499 0.755005 12.5312 0.755005 11.6499V9.51931C0.755005 8.63181 1.4675 7.91868 2.3425 7.91868H4.455ZM11.6676 7.91868C12.5426 7.91868 13.2551 8.63181 13.2551 9.51931V11.6499C13.2551 12.5312 12.5426 13.2499 11.6676 13.2499H9.55507C8.67382 13.2499 7.96757 12.5312 7.96757 11.6499V9.51931C7.96757 8.63181 8.67382 7.91868 9.55507 7.91868H11.6676ZM4.455 0.750122C5.33626 0.750122 6.0425 1.46887 6.0425 2.35075V4.48137C6.0425 5.36887 5.33626 6.08137 4.455 6.08137H2.3425C1.4675 6.08137 0.755005 5.36887 0.755005 4.48137V2.35075C0.755005 1.46887 1.4675 0.750122 2.3425 0.750122H4.455ZM11.6676 0.750122C12.5426 0.750122 13.2551 1.46887 13.2551 2.35075V4.48137C13.2551 5.36887 12.5426 6.08137 11.6676 6.08137H9.55507C8.67382 6.08137 7.96757 5.36887 7.96757 4.48137V2.35075C7.96757 1.46887 8.67382 0.750122 9.55507 0.750122H11.6676Z" fill="#11664F"/>
</svg>
