<svg width="21" height="21" viewBox="0 0 21 21" fill="none" xmlns="http://www.w3.org/2000/svg">
<path fill-rule="evenodd" clip-rule="evenodd" d="M20.9744 10.6612C21.008 10.5566 21.0088 10.4458 20.9752 10.3412C20.1754 7.86462 6.77884 1.19226 2.60749 0.133839C1.52081 -0.142001 0.746358 0.00912064 0.309538 0.581781C-0.956633 2.23929 1.96649 7.16681 3.66119 9.73787L11.949 9.7385C12.4292 9.73849 12.8185 10.1066 12.8185 10.5607C12.8185 11.0147 12.4292 11.3828 11.949 11.3828L3.58165 11.3814C1.87698 13.9867 -0.937379 18.788 0.309077 20.4192C0.355788 20.4804 0.406597 20.5377 0.461504 20.5896C0.91551 21.0189 1.63669 21.1119 2.60619 20.8662C6.77513 19.8099 20.1728 13.1409 20.9744 10.6612Z" fill="black"/>
</svg>
