<svg width="31" height="30" viewBox="0 0 31 30" fill="none" xmlns="http://www.w3.org/2000/svg">
<path d="M29.1659 26.5888C30.0944 26.5888 30.8496 27.3538 30.8496 28.2944C30.8496 29.2368 30.0944 30 29.1659 30H19.6491C18.7206 30 17.9654 29.2368 17.9654 28.2944C17.9654 27.3538 18.7206 26.5888 19.6491 26.5888H29.1659ZM22.566 1.16511L25.0244 3.11797C26.0325 3.90629 26.7045 4.94543 26.9345 6.03832C27.1998 7.24049 26.9168 8.42117 26.1209 9.4424L11.4769 28.3798C10.8049 29.2398 9.81446 29.7236 8.7533 29.7415L2.91693 29.8131C2.59859 29.8131 2.3333 29.5981 2.26255 29.2936L0.936107 23.5425C0.706189 22.4854 0.936107 21.3925 1.60817 20.5505L11.9898 7.11329C12.1667 6.89829 12.485 6.86425 12.6973 7.02371L17.0657 10.4995C17.3487 10.7324 17.7378 10.8578 18.1445 10.804C19.0112 10.6965 19.5948 9.90822 19.5064 9.06616C19.4533 8.63617 19.2411 8.27784 18.9581 8.0091C18.8697 7.93744 14.7135 4.60502 14.7135 4.60502C14.4482 4.39002 14.3951 3.99587 14.6074 3.72892L16.2521 1.5951C17.7731 -0.357772 20.426 -0.536934 22.566 1.16511Z" fill="#C4C4C4"/>
</svg>
