<svg width="18" height="21" viewBox="0 0 18 21" fill="none" xmlns="http://www.w3.org/2000/svg">
<path d="M9.27273 7.24268L10.4948 10H8.0508L9.27273 7.24268ZM0 3V18C0 19.3807 1.22104 20.5 2.72727 20.5H17.1818C17.6337 20.5 18 20.1642 18 19.75C18 19.3358 17.6337 19 17.1818 19H2.72727C2.12479 19 1.63636 18.5523 1.63636 18H17.1818C17.6337 18 18 17.6642 18 17.25V3C18 1.61929 16.7789 0.5 15.2727 0.5H2.72727C1.22104 0.5 0 1.61929 0 3ZM9.27273 4.5C9.60567 4.5 9.90545 4.68495 10.0308 4.96772L13.5763 12.9677C13.7463 13.3515 13.5448 13.7889 13.1261 13.9448C12.7075 14.1007 12.2303 13.916 12.0602 13.5323L11.1596 11.5H7.386L6.4853 13.5323C6.31523 13.916 5.83799 14.1007 5.41934 13.9448C5.00071 13.7889 4.79919 13.3515 4.96928 12.9677L8.51476 4.96772C8.64 4.68495 8.93978 4.5 9.27273 4.5Z" fill="black"/>
</svg>
