<svg width="25" height="24" viewBox="0 0 25 24" fill="none" xmlns="http://www.w3.org/2000/svg">
<g id="Switch">
<path id="Rectangle 247" d="M9.35028 23.18H15.6883C20.1126 23.18 23.6993 19.5933 23.6993 15.169V8.83099C23.6993 4.40664 20.1126 0.819992 15.6883 0.819992H9.35028C4.92593 0.819992 1.33928 4.40664 1.33928 8.83099V15.169C1.33928 19.5933 4.92593 23.18 9.35028 23.18Z" fill="#EFF2FB" stroke="#D2DFFF" stroke-width="0.798" stroke-miterlimit="10"/>
<path id="Path 2764" d="M13.7293 8.68402C13.8229 8.68411 13.9142 8.71279 13.991 8.76621C14.0678 8.81962 14.1264 8.89524 14.159 8.98291C14.1916 9.07059 14.1966 9.16614 14.1734 9.25677C14.1502 9.3474 14.1001 9.42879 14.0294 9.49002L11.1292 12L14.0294 14.51C14.1164 14.591 14.1686 14.7025 14.1751 14.8212C14.1816 14.9399 14.1418 15.0565 14.064 15.1464C13.9863 15.2364 13.8768 15.2926 13.7584 15.3034C13.64 15.3141 13.5219 15.2785 13.4293 15.204L10.1292 12.347C10.0796 12.3038 10.0398 12.2505 10.0125 12.1907C9.98525 12.1308 9.97125 12.0658 9.97125 12C9.97125 11.9342 9.98525 11.8692 10.0125 11.8094C10.0398 11.7495 10.0796 11.6962 10.1292 11.653L13.4293 8.79602C13.5124 8.72357 13.619 8.68377 13.7293 8.68402Z" fill="#35383F"/>
</g>
</svg>
