<svg width="31" height="30" viewBox="0 0 31 30" fill="none" xmlns="http://www.w3.org/2000/svg">
<path fill-rule="evenodd" clip-rule="evenodd" d="M18.6819 0.342235C15.9981 1.06016 13.6297 3.01641 12.465 5.47707C9.66562 11.3926 13.0827 17.9805 19.6175 19.2656C22.4449 19.8217 25.8147 18.7316 27.9876 16.558C31.7894 12.7556 31.8056 6.70411 28.0241 2.92423C25.4585 0.359636 22.0939 -0.5704 18.6819 0.342235ZM18.6751 7.37971L18.116 7.97488L18.9842 8.8426L19.8523 9.71033L18.9812 10.602L18.1103 11.4937L18.7462 12.1291L19.3818 12.7647L20.2738 11.8942L21.1659 11.0234L22.0403 11.8977L22.9149 12.772L23.5543 12.1329L24.1937 11.4937L23.3228 10.602L22.4517 9.71033L23.3263 8.83626L24.2009 7.96195L23.5616 7.3228L22.9222 6.68365L22.0257 7.55866L21.1294 8.43367L20.33 7.60922C19.8904 7.15584 19.4639 6.78477 19.3825 6.78477C19.3011 6.78477 18.9828 7.05261 18.6751 7.37971ZM7.39036 11.1742C2.73023 12.7996 -0.0656164 17.8436 1.12306 22.4813C1.6547 24.5561 2.31244 25.7253 3.76553 27.1779C7.54868 30.9594 13.6624 30.938 17.3881 27.1296C18.7186 25.7697 19.7975 23.7533 20.0052 22.2384L20.1454 21.2157L18.8711 20.9307C17.4472 20.6121 14.8339 19.4474 14.564 19.0112C14.4474 18.8221 13.6144 19.4989 12.067 21.0396L9.74513 23.3519L8.21794 21.8389L6.69052 20.3257L7.32214 19.6668L7.95353 19.0079L8.85262 19.8855L9.75171 20.7631L11.3135 19.2019L12.8755 17.6407L12.2356 16.8807C11.3144 15.7863 10.317 13.6976 9.96884 12.1345C9.69596 10.9084 9.61104 10.7833 9.05846 10.7937C8.72324 10.7998 7.97258 10.971 7.39036 11.1742Z" fill="#C4C4C4"/>
</svg>
