<svg width="11" height="10" viewBox="0 0 11 10" fill="none" xmlns="http://www.w3.org/2000/svg">
<path id="Vector" fill-rule="evenodd" clip-rule="evenodd" d="M5.07492 0.0334307C4.47692 0.106597 3.64117 0.402997 3.11206 0.729572C0.478428 2.35509 -0.0989336 5.87212 1.8755 8.262C2.31601 8.7952 2.80868 9.17787 3.48392 9.5114C4.35165 9.93999 4.63349 10.0008 5.74752 9.99999C6.66597 9.9993 6.70866 9.99384 7.23749 9.81096C7.99966 9.54737 8.55376 9.21448 9.1157 8.68249C9.85668 7.98112 10.3108 7.2256 10.5681 6.266C10.7427 5.61486 10.743 4.44771 10.5688 3.79456C10.2908 2.75293 9.6435 1.74556 8.83949 1.10305C7.81783 0.286724 6.36924 -0.124856 5.07492 0.0334307ZM5.27595 3.63121L5.26042 4.76106L4.45847 5.26817C4.01744 5.54704 3.64764 5.80217 3.6367 5.83505C3.62575 5.86798 3.7014 6.03012 3.80478 6.19536C3.90816 6.36066 3.99727 6.50314 4.00277 6.51205C4.00827 6.5209 4.49331 6.22685 5.0807 5.85861L6.14867 5.18902V3.84519V2.50136H5.72007H5.29148L5.27595 3.63121Z" fill="#CCCCCC"/>
</svg>
