<svg width="19" height="15" viewBox="0 0 19 15" fill="none" xmlns="http://www.w3.org/2000/svg">
<path fill-rule="evenodd" clip-rule="evenodd" d="M7.22658 0.554915C4.50184 1.00761 2.56628 2.87048 2.18832 5.40358C2.12421 5.83346 2.12059 6.32707 2.17882 6.71729C2.28598 7.43633 2.25202 7.52498 1.61471 8.18916C0.942097 8.89029 0.70392 9.54648 0.699481 10.7113C0.69628 11.5597 0.728904 11.7395 0.974205 12.2276C1.36353 13.0022 2.18285 13.7777 3.01115 14.1557C3.45854 14.3598 3.94411 14.4668 4.43585 14.4696L8.68403 14.4937C12.0972 14.5131 13.8553 14.4878 14.2378 14.4138C15.2417 14.2196 16.3366 13.6285 17.1115 12.8626C17.897 12.0861 18.3267 11.3295 18.5567 10.3178C18.7468 9.48093 18.7468 9.05393 18.5567 8.21707C18.1143 6.26989 16.563 4.73574 14.4654 4.1711C13.8214 3.99764 13.7431 3.93094 13.2331 3.12103C12.8161 2.45878 11.9261 1.65725 11.155 1.24951C10.0616 0.671194 8.34901 0.368369 7.22658 0.554915ZM8.49654 5.43938C8.3517 5.4647 7.68135 5.99892 6.92212 6.694C5.76427 7.75398 5.59981 7.94351 5.59981 8.21804C5.59981 8.56427 5.98407 8.93053 6.34738 8.93053C6.4596 8.93053 6.88547 8.62819 7.29627 8.25673C7.70624 7.88614 8.07295 7.58293 8.11125 7.58293C8.14955 7.58293 8.18083 8.42008 8.18083 9.44319C8.18083 11.2632 8.186 11.3079 8.41973 11.5127C8.72977 11.7842 9.11991 11.7789 9.40176 11.4992C9.61609 11.2864 9.62621 11.1932 9.62621 9.42972C9.62621 8.41392 9.65749 7.58293 9.69579 7.58293C9.73409 7.58293 10.1008 7.88614 10.5108 8.25673C10.9216 8.62819 11.3474 8.93053 11.4597 8.93053C11.823 8.93053 12.2072 8.56427 12.2072 8.21804C12.2072 7.94351 12.0436 7.75485 10.8909 6.70093C9.89876 5.7938 9.48879 5.48154 9.22615 5.43322C9.03453 5.3979 8.8487 5.37489 8.81318 5.38211C8.77767 5.38933 8.6352 5.41513 8.49654 5.43938Z" fill="#11664F"/>
</svg>
