<svg width="15" height="15" viewBox="0 0 15 15" fill="none" xmlns="http://www.w3.org/2000/svg">
<path id="Vector" d="M10.755 0C13.2975 0 15 1.785 15 4.44V10.5682C15 13.2157 13.2975 15 10.755 15H4.2525C1.71 15 0 13.2157 0 10.5682V4.44C0 1.785 1.71 0 4.2525 0H10.755ZM9.7575 5.22825C9.5025 4.9725 9.09 4.9725 8.8275 5.22825L7.5 6.5625L6.165 5.22825C5.9025 4.9725 5.49 4.9725 5.235 5.22825C4.98 5.48325 4.98 5.90325 5.235 6.1575L6.57 7.49325L5.235 8.82075C4.98 9.08325 4.98 9.49575 5.235 9.75C5.3625 9.8775 5.535 9.94575 5.7 9.94575C5.8725 9.94575 6.0375 9.8775 6.165 9.75L7.5 8.42325L8.835 9.75C8.9625 9.88575 9.1275 9.94575 9.2925 9.94575C9.465 9.94575 9.63 9.8775 9.7575 9.75C10.0125 9.49575 10.0125 9.08325 9.7575 8.82825L8.4225 7.49325L9.7575 6.1575C10.0125 5.90325 10.0125 5.48325 9.7575 5.22825Z" fill="#E01E3F"/>
</svg>
