<svg width="19" height="19" viewBox="0 0 19 19" fill="none" xmlns="http://www.w3.org/2000/svg">
<path fill-rule="evenodd" clip-rule="evenodd" d="M5.92057 0.161549C4.42564 0.500464 3.41876 1.07014 2.25272 2.23675C1.04514 3.44507 0.509311 4.42472 0.166139 6.05061C-0.634845 9.84585 1.52156 13.5 5.31626 14.7784C6.51848 15.1834 8.81691 15.1542 9.9962 14.7189C10.4822 14.5396 11.1435 14.2182 11.4658 14.0047L12.0518 13.6167L12.7782 14.3328C13.1778 14.7265 13.5068 15.1518 13.5095 15.2777C13.5159 15.5865 13.6329 15.7187 15.4619 17.4807C17.3134 19.2645 17.5313 19.334 18.4354 18.4294C19.0749 17.7896 19.1578 17.3554 18.7518 16.7731C18.2712 16.084 15.4995 13.4957 15.2419 13.4957C14.983 13.4957 13.6536 12.3659 13.6536 12.1459C13.6536 12.0799 13.8539 11.7028 14.0986 11.3082C14.7562 10.2479 15.2022 8.3223 15.092 7.01923C14.9919 5.83743 14.6035 4.58859 14.0322 3.61341C13.5479 2.78646 12.2844 1.51154 11.484 1.04213C9.90583 0.116708 7.67588 -0.236209 5.92057 0.161549ZM5.61402 2.64523C4.44857 3.10258 3.09226 4.48758 2.6477 5.6746C2.1881 6.90155 2.25197 8.59463 2.80239 9.77137C3.29012 10.8143 4.27006 11.7961 5.31626 12.2899C6.01838 12.6212 6.33684 12.6763 7.54948 12.6763C8.76212 12.6763 9.08058 12.6212 9.78271 12.2899C10.827 11.797 11.8071 10.8163 12.2997 9.77137C12.6308 9.06881 12.6859 8.75015 12.6859 7.53677C12.6859 6.32338 12.6308 6.00473 12.2997 5.30217C11.8065 4.25578 10.8255 3.27524 9.78271 2.78601C8.63587 2.24807 6.78557 2.1855 5.61402 2.64523ZM7.10522 4.85063C6.96899 4.93674 6.85465 5.32198 6.80745 5.85397L6.73063 6.71741L5.86771 6.79428C4.93676 6.87711 4.69289 7.07212 4.75661 7.68231C4.805 8.14547 5.33635 8.42554 6.17233 8.42837L6.80507 8.43061V9.22017C6.80507 10.1051 6.97778 10.3673 7.56109 10.3673C8.09796 10.3673 8.32501 10.051 8.40793 9.18784L8.47731 8.46517L9.19954 8.39575C10.0622 8.31277 10.3782 8.08558 10.3782 7.54839C10.3782 6.96724 10.1166 6.7919 9.25031 6.7919H8.47969L8.40987 5.9502C8.32054 4.87149 7.78531 4.4204 7.10522 4.85063Z" fill="#11664F"/>
</svg>
