<svg width="19" height="19" viewBox="0 0 19 19" fill="none" xmlns="http://www.w3.org/2000/svg">
<path fill-rule="evenodd" clip-rule="evenodd" d="M5.92066 0.161564C4.42572 0.50051 3.41881 1.07024 2.25275 2.23695C1.04515 3.44539 0.50932 4.42512 0.166142 6.05117C-0.634855 9.84676 1.52158 13.5013 5.31634 14.7797C6.51858 15.1848 8.81706 15.1556 9.99637 14.7203C10.4823 14.5409 11.1437 14.2195 11.466 14.006L12.052 13.6179L12.7784 14.3341C13.178 14.7279 13.505 15.1558 13.505 15.2848C13.505 15.5808 13.9738 16.1041 15.6888 17.7219C17.3014 19.2431 17.558 19.3092 18.4357 18.4311C19.0756 17.7906 19.1571 17.3618 18.7521 16.7636C18.3123 16.1136 15.4932 13.4969 15.2328 13.4969C14.9807 13.4969 13.6539 12.3626 13.6539 12.147C13.6539 12.081 13.8541 11.7039 14.0989 11.3092C14.7565 10.2489 15.2024 8.32307 15.0922 7.01988C14.9922 5.83797 14.6037 4.58901 14.0325 3.61374C13.5482 2.78671 12.2846 1.51168 11.4842 1.04223C9.906 0.116719 7.67601 -0.236231 5.92066 0.161564ZM5.61411 2.64548C4.44865 3.10287 3.09231 4.488 2.64774 5.67512C2.18814 6.90218 2.25201 8.59542 2.80243 9.77227C3.29018 10.8153 4.27013 11.7971 5.31634 12.291C6.01848 12.6224 6.33695 12.6775 7.54961 12.6775C8.76227 12.6775 9.08073 12.6224 9.78287 12.291C10.8271 11.798 11.8072 10.8173 12.2999 9.77227C12.631 9.06964 12.6861 8.75096 12.6861 7.53746C12.6861 6.32396 12.631 6.00528 12.2999 5.30266C11.8067 4.25617 10.8257 3.27554 9.78287 2.78627C8.63601 2.24828 6.78568 2.1857 5.61411 2.64548ZM4.94666 7.03478C4.60215 7.37954 4.71828 8.01318 5.16746 8.23949C5.67709 8.49619 9.42212 8.49619 9.93175 8.23949C10.3506 8.02852 10.5096 7.35361 10.2221 7.00707C9.94381 6.67155 5.28523 6.69598 4.94666 7.03478Z" fill="#11664F"/>
</svg>
