<?xml version="1.0" encoding="UTF-8"?>
<svg id="Layer_2" data-name="Layer 2" xmlns="http://www.w3.org/2000/svg" viewBox="0 0 29.5 19.49">
  <defs>
    <style>
      .cls-1 {
        fill: #f9f9f9;
        stroke-width: 0px;
      }
    </style>
  </defs>
  <g id="_" data-name="#">
    <path class="cls-1" d="m6,19.49c-3.31,0-6-2.69-6-6v-7.5C0,2.69,2.69,0,6,0h11.25c3.08,0,5.7,2.42,5.95,5.51l.04.54,2.58-2.6s.07-.07.11-.1c.39-.29.85-.45,1.34-.45.34,0,.69.08,1,.24.76.38,1.23,1.15,1.23,2v9.14c0,.85-.47,1.61-1.23,1.99-.32.16-.65.24-1,.24-.48,0-.94-.15-1.34-.45-.04-.03-.07-.06-.11-.09l-2.58-2.57-.04.54c-.23,3.11-2.85,5.55-5.95,5.55H6ZM6,2c-2.21,0-4,1.79-4,4v7.5c0,2.2,1.79,4,4,4h11.25c2.21,0,4-1.79,4-4v-7.5c0-2.2-1.79-4-4-4H6Zm17.25,6.89v1.69l4.28,4.28-.04-10.25-4.25,4.29Z"/>
  </g>
</svg>