<?xml version="1.0" encoding="UTF-8"?>
<svg id="Layer_2" data-name="Layer 2" xmlns="http://www.w3.org/2000/svg" viewBox="0 0 30.01 30">
  <defs>
    <style>
      .cls-1 {
        fill: #f9f9f9;
        stroke-width: 0px;
      }
    </style>
  </defs>
  <g id="_" data-name="#">
    <g>
      <path class="cls-1" d="m6.1,30c-3.37,0-6.1-2.74-6.1-6.1V6.1C0,2.74,2.74,0,6.1,0h10.17c3.37,0,6.1,2.74,6.1,6.1v2.54c0,.56-.46,1.02-1.02,1.02s-1.02-.46-1.02-1.02v-2.54c0-2.24-1.83-4.07-4.07-4.07H6.1c-2.24,0-4.07,1.82-4.07,4.07v17.79c0,2.24,1.83,4.07,4.07,4.07h5.09c.56,0,1.02.46,1.02,1.02s-.46,1.02-1.02,1.02h-5.09Z"/>
      <path class="cls-1" d="m6.1,21.1c-.56,0-1.02-.46-1.02-1.02s.46-1.02,1.02-1.02h2.54c.56,0,1.02.46,1.02,1.02s-.46,1.02-1.02,1.02h-2.54Z"/>
      <path class="cls-1" d="m6.1,14.74c-.56,0-1.02-.46-1.02-1.02s.46-1.02,1.02-1.02h5.09c.56,0,1.02.46,1.02,1.02s-.46,1.02-1.02,1.02h-5.09Z"/>
      <path class="cls-1" d="m6.1,8.39c-.56,0-1.02-.46-1.02-1.02s.46-1.02,1.02-1.02h10.17c.56,0,1.02.46,1.02,1.02s-.46,1.02-1.02,1.02H6.1Z"/>
      <path class="cls-1" d="m21.36,30c-4.77,0-8.64-3.86-8.64-8.59s3.88-8.64,8.64-8.64,8.64,3.86,8.64,8.59-3.88,8.64-8.64,8.64Zm0-15.2c-3.64,0-6.61,2.97-6.61,6.61s2.97,6.56,6.61,6.56,6.61-2.97,6.61-6.61-2.97-6.56-6.61-6.56Zm1.27,8.85c-.27,0-.53-.11-.72-.3l-1.27-1.27c-.19-.19-.3-.45-.3-.72v-2.54c0-.56.46-1.02,1.02-1.02s1.02.46,1.02,1.02v2.12l.97.97c.19.19.3.45.3.72s-.11.53-.3.72c-.19.19-.45.3-.72.3Z"/>
    </g>
  </g>
</svg>