<?xml version="1.0" encoding="UTF-8"?>
<svg id="Layer_2" data-name="Layer 2" xmlns="http://www.w3.org/2000/svg" viewBox="0 0 28.75 30">
  <defs>
    <style>
      .cls-1 {
        fill: #f9f9f9;
        stroke-width: 0px;
      }
    </style>
  </defs>
  <g id="_" data-name="#">
    <path class="cls-1" d="m6.11,30c-3.37,0-6.11-2.74-6.11-6.1V6.1C0,2.74,2.74,0,6.11,0h5.74c2.31,0,4.48.9,6.12,2.53l4.43,4.43c.34.34.65.7.92,1.09.16.22.22.49.18.76-.04.27-.19.5-.41.66-.17.12-.38.19-.59.19-.33,0-.64-.16-.83-.43-.22-.3-.45-.58-.71-.83l-4.43-4.43c-.42-.42-.88-.77-1.39-1.06l-.38-.22v5.96c0,.84.68,1.53,1.53,1.53h3.82c.56,0,1.02.46,1.02,1.02s-.46,1.02-1.02,1.02h-3.82c-1.96,0-3.56-1.6-3.56-3.56V2.09l-.23-.02c-.21-.02-.43-.03-.64-.03h-5.74c-2.24,0-4.07,1.82-4.07,4.07v17.8c0,2.24,1.83,4.07,4.07,4.07h11.45c.56,0,1.02.46,1.02,1.02s-.46,1.02-1.02,1.02H6.11Zm17.81,0c-.56,0-1.02-.46-1.02-1.02v-1.53h-.6c-1.27,0-2.45-.68-3.08-1.78-.14-.23-.17-.51-.1-.77.07-.26.24-.48.47-.62.16-.09.33-.14.51-.14.36,0,.7.19.88.51.27.47.78.76,1.32.76h2.88c.84,0,1.53-.68,1.53-1.53,0-.61-.43-1.12-1.03-1.22l-3.87-.64c-1.58-.26-2.73-1.62-2.73-3.22,0-1.96,1.6-3.56,3.56-3.56h.25v-1.53c0-.56.46-1.02,1.02-1.02s1.02.46,1.02,1.02v1.53h.6c1.27,0,2.45.68,3.08,1.78.14.23.17.51.1.77-.07.26-.24.48-.47.62-.16.09-.33.14-.51.14-.36,0-.7-.19-.88-.51-.27-.47-.78-.76-1.32-.76h-2.88c-.84,0-1.53.68-1.53,1.53,0,.61.43,1.12,1.03,1.22l3.87.64c1.58.26,2.73,1.62,2.73,3.22,0,1.96-1.6,3.56-3.56,3.56h-.25v1.53c0,.56-.46,1.02-1.02,1.02Zm-15.9-5.08c-1.61,0-2.93-1.31-2.93-2.92v-2.54c0-1.61,1.31-2.92,2.93-2.92h7c.56,0,1.02.46,1.02,1.02s-.46,1.02-1.02,1.02h-7c-.49,0-.89.4-.89.89v2.54c0,.49.4.89.89.89h7c.56,0,1.02.46,1.02,1.02s-.46,1.02-1.02,1.02h-7Zm-1.91-11.44c-.56,0-1.02-.46-1.02-1.02s.46-1.02,1.02-1.02h2.54c.56,0,1.02.46,1.02,1.02s-.46,1.02-1.02,1.02h-2.54Zm0-5.08c-.56,0-1.02-.46-1.02-1.02s.46-1.02,1.02-1.02h2.54c.56,0,1.02.46,1.02,1.02s-.46,1.02-1.02,1.02h-2.54Z"/>
  </g>
</svg>