<?xml version="1.0" encoding="UTF-8"?>
<svg id="Layer_2" data-name="Layer 2" xmlns="http://www.w3.org/2000/svg" viewBox="0 0 30 27.45">
  <defs>
    <style>
      .cls-1 {
        fill: #f9f9f9;
        stroke-width: 0px;
      }
    </style>
  </defs>
  <g id="_" data-name="#">
    <path class="cls-1" d="m15,27.45c-.67,0-1.34-.06-2-.18l-7.98-1.45c-2.91-.53-5.02-3.06-5.02-6.01V6.11c0-.37.03-.74.1-1.1C.63,2.11,3.16,0,6.11,0c.37,0,.74.03,1.11.1l4.84.88c1.07.19,2.05.75,2.77,1.56l.17.2.17-.2c.72-.81,1.7-1.37,2.76-1.56L22.78.1c.36-.07.73-.1,1.1-.1,1.43,0,2.82.5,3.92,1.42,1.4,1.16,2.2,2.87,2.2,4.69v13.69c0,2.95-2.11,5.48-5.01,6.01l-7.99,1.45c-.66.12-1.33.18-2,.18ZM23.89,2.07c-.24,0-.49.02-.73.07l-4.85.89c-1.32.24-2.28,1.39-2.28,2.73v19.57s.48-.07.59-.09l7.98-1.45c1.92-.35,3.32-2.02,3.32-3.97V6.11c0-.24-.02-.49-.06-.73-.35-1.92-2.02-3.32-3.97-3.32Zm-17.78,0c-2.23,0-4.04,1.81-4.04,4.04v13.69c0,1.95,1.39,3.62,3.32,3.97l7.98,1.45c.11.02.59.09.59.09V5.75c0-1.34-.96-2.48-2.27-2.72l-4.85-.89c-.24-.04-.48-.07-.73-.07h0Z"/>
  </g>
</svg>