<?xml version="1.0" encoding="UTF-8"?>
<svg id="Layer_2" data-name="Layer 2" xmlns="http://www.w3.org/2000/svg" viewBox="0 0 30.01 30">
  <defs>
    <style>
      .cls-1 {
        fill: #f9f9f9;
        stroke-width: 0px;
      }
    </style>
  </defs>
  <g id="_" data-name="#">
    <g>
      <path class="cls-1" d="m21.37,12.71c-4.77,0-8.65,3.87-8.65,8.64s3.88,8.64,8.65,8.64,8.64-3.88,8.64-8.64-3.87-8.64-8.64-8.64Zm0,15.25c-3.65,0-6.62-2.97-6.62-6.61s2.97-6.61,6.62-6.61,6.61,2.96,6.61,6.61-2.97,6.61-6.61,6.61Z"/>
      <path class="cls-1" d="m21.36,17.92c-1.4,0-2.54,1.14-2.54,2.54v3.62c0,.4.33.72.72.72s.72-.33.72-.72v-1.09h2.17v1.09c0,.4.33.72.72.72s.72-.33.72-.72v-3.62c0-1.4-1.14-2.54-2.54-2.54Zm1.09,3.62h-2.17v-1.09c0-.6.49-1.09,1.09-1.09s1.09.49,1.09,1.09v1.09Zm-1.09-3.62c-1.4,0-2.54,1.14-2.54,2.54v3.62c0,.4.33.72.72.72s.72-.33.72-.72v-1.09h2.17v1.09c0,.4.33.72.72.72s.72-.33.72-.72v-3.62c0-1.4-1.14-2.54-2.54-2.54Zm1.09,3.62h-2.17v-1.09c0-.6.49-1.09,1.09-1.09s1.09.49,1.09,1.09v1.09Zm-1.09-3.62c-1.4,0-2.54,1.14-2.54,2.54v3.62c0,.4.33.72.72.72s.72-.33.72-.72v-1.09h2.17v1.09c0,.4.33.72.72.72s.72-.33.72-.72v-3.62c0-1.4-1.14-2.54-2.54-2.54Zm1.09,3.62h-2.17v-1.09c0-.6.49-1.09,1.09-1.09s1.09.49,1.09,1.09v1.09Z"/>
      <path class="cls-1" d="m6.1,30c-3.37,0-6.1-2.74-6.1-6.1V6.1C0,2.74,2.74,0,6.1,0h10.17c3.37,0,6.1,2.74,6.1,6.1v2.54c0,.56-.46,1.02-1.02,1.02s-1.02-.46-1.02-1.02v-2.54c0-2.24-1.83-4.07-4.07-4.07H6.1c-2.24,0-4.07,1.82-4.07,4.07v17.79c0,2.24,1.83,4.07,4.07,4.07h5.09c.56,0,1.02.46,1.02,1.02s-.46,1.02-1.02,1.02h-5.09Z"/>
      <path class="cls-1" d="m6.1,21.1c-.56,0-1.02-.46-1.02-1.02s.46-1.02,1.02-1.02h2.54c.56,0,1.02.46,1.02,1.02s-.46,1.02-1.02,1.02h-2.54Z"/>
      <path class="cls-1" d="m6.1,14.74c-.56,0-1.02-.46-1.02-1.02s.46-1.02,1.02-1.02h5.09c.56,0,1.02.46,1.02,1.02s-.46,1.02-1.02,1.02h-5.09Z"/>
      <path class="cls-1" d="m6.1,8.39c-.56,0-1.02-.46-1.02-1.02s.46-1.02,1.02-1.02h10.17c.56,0,1.02.46,1.02,1.02s-.46,1.02-1.02,1.02H6.1Z"/>
    </g>
  </g>
</svg>