<?xml version="1.0" encoding="UTF-8"?>
<svg id="Layer_2" data-name="Layer 2" xmlns="http://www.w3.org/2000/svg" viewBox="0 0 31.58 28.73">
  <defs>
    <style>
      .cls-1 {
        fill: #f9f9f9;
        stroke-width: 0px;
      }
    </style>
  </defs>
  <g id="_" data-name="#">
    <g>
      <g>
        <path class="cls-1" d="m22.93,11.44c-4.77,0-8.65,3.88-8.65,8.64s3.88,8.65,8.65,8.65,8.65-3.88,8.65-8.65-3.88-8.64-8.65-8.64Zm0,15.25c-3.65,0-6.61-2.96-6.61-6.61s2.96-6.61,6.61-6.61,6.62,2.97,6.62,6.61-2.97,6.61-6.62,6.61Z"/>
        <path class="cls-1" d="m25.71,22.79c.26.81-.66,1.48-1.35.98l-.9-.66c-.31-.22-.73-.22-1.03,0l-.9.66c-.69.5-1.62-.17-1.35-.98l.35-1.06c.12-.36-.01-.76-.32-.98l-.9-.66c-.69-.5-.34-1.59.52-1.59h1.12c.38,0,.72-.25.84-.61l.35-1.06c.26-.81,1.41-.81,1.67,0l.35,1.06c.12.36.46.61.84.61h1.12c.85,0,1.21,1.09.52,1.59l-.9.66c-.31.22-.44.62-.32.98l.35,1.06"/>
      </g>
      <path class="cls-1" d="m27.8,1.43c-1.1-.92-2.49-1.43-3.91-1.43-.37,0-.74.04-1.1.1l-4.85.88c-1.07.2-2.05.75-2.76,1.57l-.18.19-.17-.19c-.72-.82-1.7-1.37-2.77-1.57L7.22.1c-.37-.06-.74-.1-1.11-.1C3.16,0,.63,2.11.1,5.02c-.06.36-.1.73-.1,1.09v13.7c0,2.95,2.11,5.48,5.02,6.01l6.53,1.19c.84.15,1.49-.72,1.1-1.47,0,0,0-.02-.01-.03-.15-.28-.41-.49-.73-.55l-6.51-1.18c-1.92-.35-3.31-2.02-3.31-3.97V6c0-1.47,1.11-3.15,2.5-3.65.75-.27,1.51-.34,2.26-.21l4.85.89c1.32.24,2.27,1.38,2.28,2.72v4.48c0,.85.98,1.34,1.65.8,0,0,.01-.01.02-.02.25-.2.4-.49.4-.8v-4.77c0-1.16.83-2.16,1.97-2.36l5.15-.93c.25-.05.49-.07.73-.07,1.95,0,3.62,1.39,3.97,3.32.05.24.07.48.07.72v2.84c0,.38.22.72.55.9,0,0,.01,0,.02.01.67.37,1.49-.14,1.49-.9v-2.85c0-1.81-.8-3.52-2.2-4.68Z"/>
      <path class="cls-1" d="m5.62,8.4c-.56-.1-1.02-.63-1.02-1.19s.46-.94,1.02-.84l5.09.88c.56.1,1.02.63,1.02,1.19s-.46.94-1.02.84l-5.09-.88Z"/>
      <path class="cls-1" d="m5.62,13.79c-.56-.1-1.02-.63-1.02-1.19s.46-.94,1.02-.84l5.09.88c.56.1,1.02.63,1.02,1.19s-.46.94-1.02.84l-5.09-.88Z"/>
      <path class="cls-1" d="m5.62,19.18c-.56-.1-1.02-.63-1.02-1.19s.46-.94,1.02-.84l5.09.88c.56.1,1.02.63,1.02,1.19s-.46.94-1.02.84l-5.09-.88Z"/>
    </g>
  </g>
</svg>