<?xml version="1.0" encoding="UTF-8"?>
<svg id="Layer_2" data-name="Layer 2" xmlns="http://www.w3.org/2000/svg" viewBox="0 0 30 30">
  <defs>
    <style>
      .cls-1, .cls-2, .cls-3, .cls-4 {
        fill: #eff2fb;
        stroke-width: 0px;
      }

      .cls-2 {
        opacity: .9;
      }

      .cls-3 {
        opacity: .7;
      }

      .cls-4 {
        opacity: .8;
      }
    </style>
  </defs>
  <g id="_" data-name="#">
    <g>
      <path class="cls-3" d="m2.15,12.88c2.63-1.19,7.4-1.99,12.85-1.99,8.28,0,15,1.84,15,4.11s-6.72,4.11-15,4.11C6.72,19.11,0,17.27,0,15c0-.78.78-1.5,2.15-2.12"/>
      <path class="cls-4" d="m25.61,25.61c-1.6,1.6-7.65-1.84-13.51-7.7C6.24,12.05,2.79,6,4.39,4.39c.55-.55,1.61-.51,3.02.02,2.7,1.01,6.64,3.83,10.5,7.68,5.86,5.86,9.31,11.91,7.7,13.51Z"/>
      <path class="cls-2" d="m17.12,2.15c1.19,2.63,1.99,7.4,1.99,12.85,0,8.28-1.84,15-4.11,15-2.27,0-4.11-6.72-4.11-15C10.89,6.72,12.73,0,15,0c.78,0,1.5.78,2.12,2.15"/>
      <path class="cls-1" d="m4.41,22.59c1.01-2.7,3.83-6.64,7.68-10.5,5.86-5.86,11.91-9.31,13.51-7.7s-1.84,7.65-7.7,13.51-11.91,9.31-13.51,7.7c-.55-.55-.51-1.62.02-3.02"/>
    </g>
  </g>
</svg>