<?xml version="1.0" encoding="UTF-8"?>
<svg id="Layer_2" data-name="Layer 2" xmlns="http://www.w3.org/2000/svg" viewBox="0 0 32.62 37.5">
  <defs>
    <style>
      .cls-1 {
        fill: #ed212e;
      }

      .cls-1, .cls-2, .cls-3 {
        stroke-width: 0px;
      }

      .cls-2 {
        fill: #2c2a2b;
      }

      .cls-3 {
        fill: #2d3f94;
      }
    </style>
  </defs>
  <g id="_" data-name="#">
    <g>
      <path class="cls-1" d="m3.8,20.56c-1.18,0-2.24-.01-3.3,0-.36,0-.5-.06-.49-.46.03-1.43.02-2.85,0-4.28,0-.29.07-.39.38-.39,1.09.02,2.18,0,3.28,0,.02-.23-.16-.3-.27-.41-1.13-1.14-2.26-2.28-3.41-3.4.05-.83.02-1.63.02-2.64,1.73,1.73,3.38,3.38,5.04,5.04.38-.44-.56-.85,1.4-1.01-.82-9.14-1.96-9.63-.86-10.11,1.23-.54,2.41-1.21,3.67-1.69,1.01-.39,1-.4,1,.66,0,3.88,0,7.77,0,11.65,0,.16-.04.33.05.51,1.65-1.66,3.29-3.31,4.94-4.96.04.02.08.03.12.05,0,.82,0,1.64,0,2.47,0,.16-.17.24-.27.35-1.14,1.13-2.27,2.27-3.52,3.5h.96c.82,0,1.64,0,2.46,0,.28,0,.4.06.4.37-.02,1.59-.01,3.17,0,4.76-1.22-.03-2.44-.01-3.66-.01-.05.19.11.25.19.33,1.16,1.16,2.31,2.34,3.49,3.47-.07.84-.04,1.64-.04,2.62-1.72-1.73-3.35-3.37-4.99-5.02-.04.02-.08.04-.13.06,0,.16,0,.31,0,.47,0,4.06,0,8.13,0,12.19,0,.44-.12.45-.48.32-1.52-.59-2.94-1.36-4.23-2.37-.3-.24-.43-.47-.43-.87.02-3.08.01-6.16.01-9.24,0-.16,0-.32,0-.54-1.39,1.4-2.73,2.76-4.14,4.18-.34-.73-.49-1.36-.63-1.98-.05-.21.13-.29.24-.41.93-.94,1.87-1.87,2.8-2.8.1-.11.2-.22.39-.41Z"/>
      <path class="cls-1" d="m17.26,6.26c0-1.9.02-3.79-.01-5.69C17.24.08,17.43,0,17.84,0c1.82,0,3.54.45,5.22,1.1,1.1.43,2.17.94,3.23,1.46,1.87.92,3.83,1.52,5.95,1.41.76-.04.15.45-.1,5.17-.08,1.53.02,3.08.36,4.57.23,1.01.11,1.11-.29,1.12-1.98.06-3.9-.26-5.79-.81-2.35-.68-4.7-1.33-7.15-1.51-.54-.04-1.09-.05-1.64-.04-.31,0-.38-.09-.38-.38.01-1.94,0-3.88,0-5.82Z"/>
      <path class="cls-2" d="m17.26,30.34c0-2.23,0-4.46,0-6.69,0-.78.39-.44,3.13-.22,1.55.12,3.1.36,4.61.7,2.21.49,4.45.67,6.7.57.52-.02.41.19.32.49-1.48,4.71-4.48,8-9.1,9.79-1.78.69-3.52,1.48-5.21,2.38-.44.24-.44.24-.44-.28,0-2.24,0-4.49,0-6.73Z"/>
      <path class="cls-3" d="m11.94,25.82c1.16,1.17,2.25,2.26,3.34,3.35.13.13.11.28.11.42,0,2.51,0,5.03,0,7.54,0,.37-.08.4-.4.24-.91-.47-1.84-.92-2.77-1.37-.32-.15-.48-.28-.2-1.12.56-1.68.77-3.45.51-5.2-.65-4.36-.72-3.19-.6-3.87Z"/>
      <path class="cls-3" d="m11.96,10.11c-.1-.17-.07-.31-.07-.44,0-2.95,0-5.91-.01-8.86,0-.37.12-.49.47-.55C13.18.1,14.02,0,14.88,0c.36,0,.53.07.52.5-.03,1.95-.01,3.91-.01,5.86,0,.37-.02.66-1.04.93s-1.84,1.1-2.04,2.15c-.11.55-.14.51-.34.66Z"/>
      <path class="cls-3" d="m3.54,10.08c-.19-.01-.25-.11-.32-.19-.99-.98-1.97-1.97-2.96-2.95-.15-.15-.24-.29-.24-.51.01-.71.01-1.42,0-2.13,0-.23.03-.36.32-.34.97.08,1.93-.03,2.88-.26.18-.04.32-.1.32.19,0,2.05,0,4.11,0,6.2Z"/>
      <path class="cls-3" d="m3.49,30.56c-.75-.89-1.3-1.78-1.79-2.72-.06-.12-.02-.2.06-.28.55-.56,1.1-1.11,1.73-1.75v4.74Z"/>
    </g>
  </g>
</svg>