<?xml version="1.0" encoding="UTF-8"?>
<svg id="Layer_2" data-name="Layer 2" xmlns="http://www.w3.org/2000/svg" viewBox="0 0 312.44 108.97">
  <defs>
    <style>
      .cls-1 {
        fill: #ed212e;
      }

      .cls-1, .cls-2, .cls-3 {
        stroke-width: 0px;
      }

      .cls-2 {
        fill: #2c2a2b;
      }

      .cls-3 {
        fill: #2d3f94;
      }
    </style>
  </defs>
  <g id="Login">
    <g>
      <path class="cls-2" d="m228.48,41.07c1.45,0,2.9-.03,4.35.01.69.02.92-.21.9-.9-.04-1.54-.05-3.08,0-4.61.03-1.34-.51-2.09-1.9-2.11-.47,0-.86-.02-.84-.68.01-.69.44-.62.89-.62,2.2,0,4.39,0,6.59,0,.45,0,1.01-.17,1.02.63,0,.69-.45.6-.88.67-1.77.26-2,.49-2,2.27-.02,4.57-.02,9.14,0,13.71,0,1.72.22,1.94,1.92,2.18.51.07.98.07.91.79-.06.71-.59.52-.99.52-2.28.01-4.57,0-6.85,0-.37,0-.81.12-.84-.53-.02-.59.24-.71.77-.79,2.09-.3,2.19-.43,2.2-2.6,0-1.76-.02-3.52.01-5.27,0-.61-.07-.95-.83-.94-2.99.04-5.98.04-8.96,0-.74,0-.87.3-.86.95.03,1.98.04,3.95.01,5.93-.02,1.25.54,1.87,1.78,1.94.5.03,1.13-.08,1.06.77-.07.81-.68.53-1.1.54-2.15.02-4.31.02-6.46,0-.4,0-.92.19-.98-.53-.06-.73.41-.77.92-.77,1.41,0,1.91-.78,1.9-2.1-.02-4.66-.02-9.31,0-13.97,0-1.35-.56-2.06-1.92-2.1-.49-.01-.99.01-.94-.74.05-.7.55-.56.96-.56,2.15,0,4.31-.01,6.46,0,.4,0,.91-.17.97.54.06.74-.42.73-.92.76-1.16.06-1.75.64-1.73,1.85.02,1.63.02,3.25-.02,4.88-.02.71.26.91.93.89,1.49-.04,2.99-.01,4.48-.01Z"/>
      <path class="cls-2" d="m141.31,67.23c.02,4.5-.14,8.66.19,12.81.1,1.2.91,1.61,1.98,1.7.51.04,1.12-.03,1.03.81-.09.81-.71.5-1.12.5-1.93.03-3.87.02-5.8,0-.4,0-.92.17-.94-.56-.02-.63.35-.72.83-.74,1.51-.08,2.04-1,2.05-2.37.03-4.35.09-8.7.07-13.05,0-1.58-.75-2.33-2.38-2.67-.48-.1-1.13.02-1.04-.82.1-.89.78-.47,1.22-.55,2.54-.46,4.25.52,5.85,2.62,3.35,4.39,7.02,8.54,10.81,13.09,0-1.15,0-1.95,0-2.75-.02-2.9,0-5.8-.07-8.7-.06-2.28-.28-2.5-2.48-2.93-.46-.09-.71-.17-.71-.71,0-.57.31-.63.76-.62,2.07.01,4.13,0,6.2,0,.4,0,.81-.05.83.55.02.48-.15.66-.65.77-1.92.43-2.07.58-2.09,2.54-.07,5.27-.07,10.55-.13,15.82,0,.45.36,1.12-.37,1.35-.66.21-1.03-.26-1.41-.73-3.97-4.87-7.95-9.73-11.93-14.6-.14-.17-.29-.32-.69-.76Z"/>
      <path class="cls-2" d="m136.96,32.15c1.43.04,3.1-.07,4.77.13,2.66.33,4.36,1.62,4.88,3.74.62,2.55-.22,4.89-2.54,6.23-1.15.67-1.05,1.15-.42,2.08,1.24,1.81,2.38,3.69,3.76,5.41.69.86,1.42,1.69,2.49,2.09.45.17.61.39.54.88-.09.59-.51.49-.89.49-2.2-.01-4.05-.78-5.32-2.64-1.14-1.67-2.21-3.38-3.3-5.08-.39-.6-.8-1.13-1.54-1.35-1.76-.51-2.16-.23-2.16,1.57,0,1.27.02,2.55,0,3.82-.01,1.3.51,2.1,1.92,2.1.52,0,.97.05.91.78-.06.74-.59.52-.97.53-2.2.02-4.39.01-6.59,0-.4,0-.91.17-.95-.56-.04-.75.45-.74.94-.75,1.39-.02,1.93-.77,1.93-2.1-.02-4.7-.02-9.4,0-14.1,0-1.31-.58-1.96-1.88-1.97-.52,0-.98-.04-.9-.77.07-.71.59-.52.99-.52,1.36-.02,2.72,0,4.32,0Zm.28,6.26s0,0,0,0c0,1.01.07,2.03-.02,3.03-.1,1.05.34,1.34,1.28,1.2.26-.04.53,0,.79-.02,2.94-.15,4.74-2.26,4.42-5.2-.29-2.69-2.41-4.19-5.28-3.83-.81.1-1.18.47-1.18,1.26,0,1.19,0,2.37,0,3.56Z"/>
      <path class="cls-2" d="m225.18,62.27c1.5.03,3.21-.07,4.92.15,2.66.34,4.38,1.7,4.87,3.93.55,2.51-.33,4.79-2.62,6.08-1.09.61-1.04,1.07-.43,1.96,1.28,1.89,2.47,3.85,3.92,5.62.64.79,1.33,1.54,2.3,1.93.47.19.73.41.64.96-.11.63-.58.42-.93.42-2.21,0-4.05-.79-5.31-2.65-1.11-1.63-2.15-3.32-3.23-4.97-.26-.4-.54-.83-.91-1.1-.75-.55-1.71-.67-2.52-.36-.68.25-.27,1.1-.29,1.67-.06,1.27-.01,2.55,0,3.82,0,1.23.48,2.02,1.85,2.03.46,0,1.01-.05,1,.71-.01.82-.61.6-1.04.6-2.2.02-4.39,0-6.59,0-.43,0-.9.09-.9-.61,0-.65.42-.64.87-.71,1.76-.25,1.98-.47,1.98-2.27.02-4.57.02-9.14,0-13.71,0-1.74-.16-1.88-1.92-2.16-.46-.07-.85-.06-.83-.72.01-.71.48-.61.9-.61,1.36,0,2.72,0,4.3,0Zm.38,6.26h0c0,.75,0,1.49,0,2.24q0,2.08,2.03,1.97c2.93-.16,4.71-2.17,4.46-5.04-.25-2.79-2.31-4.33-5.28-3.98-.8.09-1.2.44-1.2,1.25,0,1.19,0,2.37,0,3.56Z"/>
      <path class="cls-2" d="m122.82,41.67c.53.2.89.32,1.25.47,1.79.73,3.04,1.94,3.26,3.94.23,2.1-.53,3.8-2.23,5.04-1.81,1.32-3.92,1.73-6.1,1.79-2.33.06-4.66.03-6.98.01-.38,0-.92.21-.98-.52-.06-.73.4-.72.91-.79,1.8-.24,1.99-.44,2-2.24.01-4.61-.02-9.22.02-13.83.01-1.35-.47-2.1-1.87-2.1-.49,0-.85-.07-.82-.71.03-.59.39-.59.8-.59,2.98.03,5.98-.05,8.95.13,2.92.17,4.39,1.38,4.89,3.58.52,2.28-.26,3.86-2.7,5.43-.1.07-.18.17-.41.38Zm-5.96,4.64s.02,0,.03,0c0,1.1-.04,2.19.01,3.29.03.66.17,1.32.86,1.67,2.08,1.05,5.54-.51,6.14-2.78.91-3.4-.98-5.67-4.9-5.87q-2.15-.11-2.15,1.98c0,.57,0,1.14,0,1.71Zm0-8.9c0,.44,0,.88,0,1.32q0,2.73,2.77,2.35c1.55-.21,2.78-.86,3.22-2.49.77-2.87-.99-5.13-3.97-5.12-1.73,0-2,.26-2.01,1.96,0,.66,0,1.32,0,1.98Z"/>
      <path class="cls-2" d="m207.19,83.07c-2.24,0-4.48,0-6.73,0-.42,0-.91.14-.92-.59,0-.63.37-.67.84-.74,2.07-.3,2.22-.46,2.22-2.47.01-4.44.01-8.88,0-13.32,0-1.86-.13-2-1.91-2.33-.5-.09-.82-.18-.79-.79.03-.61.44-.56.83-.56,4.22,0,8.44,0,12.66,0,.49,0,.84.05.86.68.03,1.19.12,2.37.21,3.55.04.48-.1.72-.62.77-.51.05-.64-.16-.79-.62-.93-2.83-1.04-2.89-3.99-2.91q-3.55-.03-3.55,3.56c0,1.06.06,2.11-.02,3.16-.07.91.32,1.14,1.14,1.09.79-.05,1.58-.03,2.37-.02,1.31.03,2.38-.26,2.5-1.84.04-.56.41-.58.83-.58.52,0,.52.36.52.72,0,1.67,0,3.34,0,5.01,0,.38-.02.71-.53.71-.44,0-.78-.05-.82-.6-.14-1.63-1.26-1.88-2.62-1.9-3.37-.05-3.37-.07-3.37,3.32,0,1.14,0,2.29.04,3.43.04,1.03.57,1.59,1.63,1.71,1.5.17,2.98.15,4.47-.06.88-.12,1.56-.59,1.99-1.37.32-.58.64-1.16.87-1.77.21-.55.49-.78,1.08-.62.63.17.36.6.29.95-.23,1.16-.52,2.32-.72,3.48-.13.76-.52.96-1.26.94-2.24-.05-4.48-.02-6.73-.02Z"/>
      <path class="cls-2" d="m128.4,69.72c-.06-1.36-.15-2.72-.18-4.08-.03-1.23-.62-1.83-1.83-1.98-.47-.06-1.29.22-1.23-.75.06-1.09.92-.58,1.41-.6,1.84-.06,3.69-.03,5.54-.02.38,0,.81-.09.86.53.04.58-.23.78-.76.8-1.49.06-2.05.91-2.06,2.33,0,2.55-.07,5.1-.11,7.65-.02,1.37-.17,2.72-.52,4.04-1.01,3.9-4.2,6.16-8.25,5.87-4.34-.31-6.96-2.73-7.27-7.04-.22-3.02-.11-6.06-.14-9.09,0-.53-.02-1.06,0-1.58.03-1.28-.41-2.13-1.86-2.16-.47,0-.99,0-.95-.75.04-.82.64-.58,1.06-.58,2.15-.02,4.31-.01,6.46,0,.42,0,.9-.11.91.61.02.65-.38.65-.84.72-1.71.26-1.88.44-1.89,2.2-.03,2.86-.01,5.72,0,8.57,0,1.01.15,2.02.45,2.99.81,2.67,2.62,4.06,5.31,4.08,2.61.02,4.36-1.3,5.2-4,.78-2.52.65-5.13.69-7.72Z"/>
      <path class="cls-2" d="m133.03,13.37c1.43-1.5,2.85-2.95,4.62-3.94,1.09-.61,2.28-1.65,3.5-.75,1.14.84.61,2.3.38,3.47-.45,2.28-1.04,4.54-1.56,6.81-.11.46-.18.93-.29,1.51.79-.08,1.18-.57,1.67-.89.24-.16.45-.7.83-.19.2.27.44.6.13.95-1.14,1.24-2.39,2.37-4.06,2.81-1.04.27-1.36-.49-1.29-1.32.09-1,.32-1.99.53-2.98.5-2.27,1.04-4.54,1.53-6.81.1-.45.36-1.03-.13-1.33-.45-.27-.94.13-1.31.4-2.93,2.18-5.63,4.54-6.03,8.53-.06.61-.24,1.21-.36,1.81-.18.9-1.5,1.9-2.36,1.71-.76-.17-.39-.77-.31-1.19.79-3.74,1.62-7.47,2.41-11.21.49-2.32.94-4.65,1.44-6.97.23-1.03.05-1.63-1.18-1.48-.29.03-.77.19-.8-.38-.03-.52.22-.75.76-.85.99-.19,1.97-.44,2.93-.74,1.42-.44,1.59-.32,1.28,1.1-.76,3.57-1.52,7.13-2.28,10.69-.08.37-.25.74-.06,1.25Z"/>
      <path class="cls-2" d="m185.75,78.22c2.04-4.34,3.79-8.64,5.24-13.05.39-1.19-.38-1.33-1.21-1.49-.52-.1-1.26.01-1.11-.9.13-.85.83-.48,1.27-.49,1.76-.04,3.52-.03,5.27-.01.4,0,.92-.18.98.54.05.59-.26.77-.77.8-1.72.09-2.32,1.4-2.87,2.72-2.2,5.27-4.35,10.56-6.33,15.91-.13.36-.24.88-.51,1.02-.82.43-1.2-.03-1.5-.84-2.03-5.43-4.11-10.84-6.16-16.26-.5-1.32-1.08-2.54-2.77-2.59-.46-.01-.57-.3-.57-.71,0-.46.24-.6.66-.6,2.2,0,4.39,0,6.59,0,.42,0,.68.11.68.58,0,.39-.1.61-.54.75-1.7.52-1.71.55-1.07,2.23,1.57,4.13,3.15,8.26,4.73,12.39Z"/>
      <path class="cls-2" d="m176.26,42.14c0,2.37-.02,4.74,0,7.12.02,1.81.34,2.14,2.1,2.36.51.06,1.27-.18,1.16.79-.1.88-.81.5-1.24.51-2.28.04-4.57.03-6.85,0-.44,0-1.12.32-1.13-.62,0-.8.56-.62,1-.67,1.81-.23,2.11-.5,2.12-2.33.03-4.92,0-9.84.03-14.76,0-.79-.29-1-1-.93-.39.04-.79,0-1.19,0-2.99.03-3.06.07-3.97,2.9-.16.5-.28.91-.94.83-.85-.1-.47-.71-.45-1.11.06-1.4.19-2.8.26-4.21.04-.84.54-.95,1-.49.66.67,1.42.59,2.2.6,3.69,0,7.38,0,11.07,0,.75,0,1.44.01,2.08-.57.47-.43,1.05-.48,1.08.49.05,1.4.16,2.81.23,4.21.02.45.21.98-.58,1.06-.75.07-.71-.45-.84-.9-.71-2.45-3.38-3.72-5.79-2.8-.55.21-.35.65-.35.99-.02,2.5,0,5.01,0,7.51Z"/>
      <path class="cls-2" d="m281.33,72.35c0,2.33-.02,4.66,0,6.99.02,1.93.29,2.21,2.15,2.42.47.05,1.14-.16,1.1.72-.04.93-.75.56-1.18.57-2.33.03-4.66.03-6.99,0-.4,0-1.03.3-1.08-.54-.05-.86.58-.7,1.07-.76,1.71-.2,2.02-.5,2.03-2.26.03-4.92,0-9.85.02-14.77,0-.72-.17-1.08-.95-.99-.39.05-.79,0-1.19.01-3,.02-3.06.05-3.99,2.89-.19.58-.39.98-1.07.83-.7-.15-.36-.7-.35-1.07.05-1.32.19-2.63.25-3.95.04-.9.32-1.35,1.16-.63.45.38.93.46,1.46.46,4.04,0,8.09,0,12.13,0,.59,0,1.09-.13,1.57-.53.53-.43,1.07-.49,1.12.47.07,1.45.16,2.9.24,4.34.02.38.14.81-.48.88-.52.06-.83-.05-.91-.64-.05-.39-.23-.76-.33-1.14-.34-1.28-1.17-1.83-2.49-1.9-3.33-.19-3.33-.22-3.33,3.05,0,1.85,0,3.69,0,5.54Z"/>
      <path class="cls-2" d="m303.33,72.21c1.36-2.6,2.55-4.89,3.75-7.18.41-.78.22-1.25-.7-1.35-.26-.03-.52-.09-.78-.11-.52-.05-.46-.43-.47-.78,0-.39.19-.53.57-.53,2.02.01,4.05.01,6.07,0,.42,0,.67.12.67.59,0,.4-.08.71-.55.72-1.82.03-2.65,1.33-3.45,2.69-.53.91-1.01,1.87-1.65,2.7-2.41,3.14-3.06,6.7-2.71,10.55.16,1.72.35,2.02,2.08,2.23.48.06,1.14-.15,1.11.73-.04.93-.74.57-1.17.58-2.33.03-4.66.02-6.99,0-.39,0-.92.2-.98-.52-.06-.73.41-.73.92-.79,2.01-.25,2.06-.45,2.22-2.49.27-3.4-.3-6.5-2.38-9.32-1.09-1.48-1.91-3.15-2.85-4.74-.52-.88-1.2-1.53-2.27-1.59-.56-.03-.76-.28-.72-.83.05-.64.51-.49.88-.5,2.02-.01,4.04,0,6.07,0,.41,0,.8-.04.81.57,0,.48-.17.66-.65.79-1.47.39-1.48.43-.72,1.78,1.23,2.18,2.48,4.34,3.89,6.81Z"/>
      <path class="cls-2" d="m206.33,53.44c-4.04-.06-5.71-1.79-5.58-5.78.01-.45.19-.62.58-.72.49-.13.69.05.85.52.24.7.54,1.39.9,2.04.44.82,1.07,1.49,1.93,1.93,1.78.91,4.01.49,4.99-.95,1.09-1.59.77-3.72-.79-5.1-1.3-1.14-2.92-1.78-4.37-2.67-1.62-.99-2.96-2.2-3.35-4.18-.5-2.49.58-4.78,2.82-5.97,2.34-1.24,4.74-1.03,7.16-.27.4.12.56.35.61.74.13,1.13.29,2.27.45,3.4.06.4.02.67-.47.75-.43.07-.76.09-.92-.43-.16-.55-.35-1.09-.59-1.6-.64-1.37-1.72-2.06-3.25-2.02-1.28.03-2.34.49-2.89,1.7-.63,1.39-.49,2.75.47,3.96.7.88,1.68,1.4,2.64,1.94.96.53,1.95,1.01,2.88,1.59,2.2,1.37,3.42,3.31,2.96,5.97-.47,2.68-2.29,4.16-4.8,4.85-.71.19-1.47.22-2.21.32Z"/>
      <path class="cls-2" d="m249.36,61.83c-.21,0-.12,0-.03,0,3.31.16,4.51,1.58,4.16,4.89-.04.39-.19.53-.54.59-.37.06-.69.11-.84-.37-.19-.58-.39-1.17-.65-1.72-.65-1.38-1.78-2.03-3.29-1.97-1.27.06-2.34.53-2.85,1.77-.58,1.41-.43,2.76.56,3.96.68.83,1.61,1.35,2.55,1.84,1.21.63,2.44,1.22,3.53,2.04,3.64,2.78,3.08,7.99-1.1,9.89-2.56,1.16-5.13.93-7.68-.11-.33-.14-.65-.32-.72-.7-.25-1.38-.48-2.77-.73-4.15-.11-.58.32-.62.69-.74.5-.17.61.17.71.52.38,1.23.9,2.39,1.85,3.29,1.39,1.31,3.64,1.56,5.12.57,1.31-.87,1.85-2.78,1.22-4.36-.37-.94-1.07-1.61-1.91-2.12-1.2-.73-2.44-1.4-3.64-2.13-2.94-1.79-4.07-4.21-3.26-6.91.76-2.54,3.36-4.17,6.84-4.1Z"/>
      <path class="cls-2" d="m117,22.84c-1.19,0-2.37,0-3.56,0-.28,0-.71.11-.68-.37.02-.36,0-.9.58-.86,2.34.17,2.63-1.46,2.95-3.19.83-4.53,1.68-9.06,2.6-13.58.23-1.15-.06-1.53-1.19-1.37-.43.06-.88.07-1.31.04-1.55-.08-2.59.6-3.19,2.03-.2.48-.45.95-.71,1.41-.25.43-.7.37-1.06.26-.45-.14-.17-.52-.11-.78.38-1.49.81-2.96,1.18-4.45.2-.81.67-.94,1.2-.41.52.52,1.09.49,1.7.49,3.56,0,7.11,0,10.67,0,.75,0,1.5.04,2.1-.54.24-.23.57-.3.86-.18.45.2.21.61.18.92-.16,1.4-.39,2.78-.52,4.18-.06.59-.35.72-.84.77-.67.07-.52-.42-.56-.78-.04-.39-.08-.79-.11-1.18-.08-1.1-.66-1.59-1.77-1.7-3.47-.35-3.45-.38-4.08,2.99-.77,4.14-1.58,8.28-2.33,12.42-.4,2.18-.29,2.3,1.84,2.62.33.05.77-.05.71.51-.06.49-.28.78-.85.76-1.23-.03-2.46-.01-3.69-.01Z"/>
      <path class="cls-2" d="m123.46,96.49c0,3.07,0,6.15,0,9.22,0,.35.1.7.07,1.05-.05.7.75,1.69.35,1.89-.71.35-1.7.13-2.58.15-.39,0-.61-.11-.39-.54.64-1.28.47-2.66.52-4.01.09-2.9.12-5.8-.05-8.7-.05-.85-.28-1.62-.6-2.53,1.1,0,2.1.04,3.1-.01.73-.04.86.51,1.09.94,1.81,3.42,3.59,6.84,5.41,10.26.19.36.27.83.72,1.04.48-1.93.18-10.23-.45-12.16h3.16c-.89,2.87-.49,5.81-.57,8.71-.05,2.02-.04,4.04,0,6.06.01.74-.21.89-.95.98-1.58.18-2.4-.38-3.1-1.83-1.72-3.59-3.67-7.07-5.52-10.59-.07.02-.13.05-.2.07Z"/>
      <path class="cls-2" d="m174.02,96.9c-1.61-2.39-3.65-2.59-5.9-2.11-.3.06-.59.17-.88.29-2.34,1-3.42,3.9-2.88,7.69.38,2.65,1.82,4.08,4.47,4.38.61.07,1.23.02,1.84.04.68.03.91-.28.88-.95-.07-1.61.07-3.24-.7-4.84h3.74c-.82,1.96-.57,4.02-.6,6.05-.01.65-.23.95-.85,1.09-2.22.51-4.45.61-6.65-.04-3.54-1.05-5.38-4.47-4.79-8.77.6-4.33,3.15-6.63,7.63-6.86.39-.02.79-.02,1.19,0q3.51.13,3.49,4.03Z"/>
      <path class="cls-2" d="m156.3,95.78c-1.66-1.36-3.5-1.05-5.28-1.1-.6-.02-.74.27-.74.8.02,1.27.02,2.55,0,3.82,0,.46.1.76.65.75,1.61-.04,3.27.24,4.78-.97v3.62c-1.33-1.16-2.93-.92-4.48-.99-.77-.03-.99.25-.96.98.05,1.18,0,2.37.02,3.56,0,.38-.1.86.51.85,1.36-.01,2.73.14,4.07-.22.81-.21,1.22-.93,1.75-1.53.09.15.16.22.16.28q-.29,3.17-3.46,3.17c-2.02,0-4.04,0-5.94,0,.65-5.27.73-10.46-.03-15.79,2.71,0,5.55,0,8.4,0,.5,0,.57.28.56.68-.01.61,0,1.23,0,2.09Z"/>
      <path class="cls-2" d="m192.06,32.16c1.19,0,2.37,0,3.56,0,.4,0,.68.06.7.55.02.47-.12.67-.64.76-2.15.38-2.19.44-2.19,2.61,0,4.35-.01,8.69,0,13.04,0,2.08.07,2.17,2.13,2.53.46.08.71.19.71.71,0,.58-.34.6-.78.6-2.37,0-4.74,0-7.11,0-.39,0-.69-.03-.69-.54,0-.47.13-.67.64-.77,2.18-.42,2.21-.47,2.22-2.73.01-4.21.01-8.43,0-12.64,0-2.31-.01-2.33-2.29-2.81-.46-.1-.57-.28-.57-.68,0-.45.19-.62.63-.62,1.23.01,2.46,0,3.69,0Z"/>
      <path class="cls-2" d="m262.43,83.07c-1.1,0-2.2,0-3.3,0-.43,0-.9.08-.89-.62,0-.55.31-.61.75-.69,2.02-.34,2.13-.47,2.14-2.53.01-4.35.01-8.7,0-13.06,0-2.08-.12-2.23-2.11-2.57-.52-.09-.8-.2-.77-.79.04-.62.47-.53.85-.53,2.33,0,4.66,0,6.99,0,.43,0,.79.03.79.61,0,.52-.25.7-.72.71-1.9.02-2.13.68-2.13,2.55,0,4.4,0,8.79,0,13.19,0,1.98.11,2.1,2.08,2.43.43.07.75.13.76.68.01.69-.44.63-.89.63-1.19,0-2.37,0-3.56,0Z"/>
      <path class="cls-2" d="m165.33,72.62c0-2.24.02-4.48,0-6.71-.02-1.78-.23-2.02-1.98-2.29-.51-.08-.96-.09-.89-.81.07-.71.59-.52.98-.53,2.24-.01,4.48,0,6.71,0,.45,0,.88-.05.89.63,0,.66-.4.63-.85.71-1.8.29-1.94.43-1.95,2.29-.01,4.56-.02,9.13,0,13.69,0,1.74.19,1.92,1.92,2.16.45.06.87.04.87.69,0,.69-.43.63-.88.63-2.28,0-4.56,0-6.85,0-.37,0-.82.12-.86-.51-.04-.58.24-.72.76-.8,1.97-.31,2.09-.46,2.11-2.41.01-2.24,0-4.48,0-6.71Z"/>
      <path class="cls-2" d="m156.12,42.67c0-2.29.01-4.57,0-6.86-.02-1.84-.23-2.09-2.08-2.35-.5-.07-.84-.13-.8-.75.04-.6.44-.56.84-.56,2.33,0,4.66,0,6.99,0,.43,0,.79.03.8.6.01.52-.24.63-.71.71-2.06.34-2.13.43-2.14,2.52,0,4.44-.01,8.88,0,13.32,0,1.91.12,2.04,2.04,2.33.5.08.84.15.81.76-.03.61-.44.55-.84.55-2.33,0-4.66,0-6.99,0-.41,0-.8.01-.8-.58,0-.51.24-.64.7-.73,2.1-.39,2.17-.49,2.18-2.64,0-2.11,0-4.22,0-6.33Z"/>
      <path class="cls-2" d="m198.62,108.76h-3.59c.68-5.21.64-10.38.03-15.75,2.17.15,4.52-.32,6.83.32,1.93.54,2.98,1.92,3.08,3.95.11,2.38-.82,4.03-2.72,4.79-1.12.45-2.3.57-3.49.49-.62-.04-.87.14-.85.79.06,1.79-.08,3.59.71,5.4Zm-.71-11.02c0,.84.01,1.67,0,2.51,0,.46.1.74.65.75,1.26,0,2.56.03,3.28-1.21.73-1.25.73-2.62.07-3.92-.5-.98-2.34-1.67-3.51-1.23-1.02.38-.3,1.37-.48,2.06-.08.33-.01.7-.01,1.05Z"/>
      <path class="cls-2" d="m144.37,18.06c.17-3.59,1.69-6.82,5.31-8.84.73-.41,1.51-.71,2.35-.82,1.4-.19,2.59.35,3.13,1.45.59,1.21.3,2.31-.54,3.29-.82.95-1.87,1.6-3.01,2.08-.97.41-1.96.76-2.96,1.1-1.62.54-1.85.99-1.38,2.79.39,1.49,1.39,2.11,2.86,1.78,1.29-.29,2.32-1.01,3.3-1.84.24-.2.45-.64.84-.19.32.37.47.7.03,1.13-1.08,1.05-2.22,2.01-3.61,2.61-3.75,1.62-6.28-.03-6.31-4.54Zm6.83-8.03c-1.74.34-2.66,1.72-3.3,3.37-.21.56-.72,1.3-.35,1.69.4.44,1.12-.11,1.66-.33.76-.31,1.51-.68,2.23-1.09.65-.38,1.17-.91,1.39-1.68.3-1.08-.35-1.98-1.62-1.97Z"/>
      <path class="cls-2" d="m187.22,93.07h3.83c-1.99,2.63-3.62,5.47-4.84,8.41-.83,2-.45,4.4.15,6.59.06.2.14.39.23.67h-3.88c.42-.88.57-1.72.67-2.59.29-2.53-.15-4.83-1.58-7-1.27-1.93-2.05-4.16-3.68-6.04h4.4c-.73,2.67,1.55,4.31,2.38,6.54.92-2.15,3.04-3.83,2.33-6.58Z"/>
      <path class="cls-2" d="m216.41,108.74h-3.76c.93-2.78.56-5.59.65-8.37.04-1.49-.07-2.99.03-4.47.08-1.12-.38-1.34-1.35-1.26-1.11.09-2.17.27-3.09,1.08-.08-.19-.17-.29-.16-.39q.03-2.3,2.39-2.3c2.55,0,5.09.05,7.64-.02,1.14-.03,1.75.19,1.51,1.47-.06.34,0,.7,0,1.23-1.15-.74-2.31-1.09-3.59-1.06-.62.01-.97.1-.95.85.07,3.73-.09,7.46.12,11.19.04.71.33,1.34.57,2.07Z"/>
      <path class="cls-2" d="m114.77,108.73h-3.53c.89-2.1.67-4.27.62-6.39-.06-2.96.46-5.97-.53-8.88-.18-.53.26-.43.53-.44,1-.01,2.01,0,2.94,0-.69,5.26-.68,10.45-.03,15.71Z"/>
      <g>
        <path class="cls-1" d="m10.99,59.6c-3.43,0-6.49-.04-9.56.02-1.04.02-1.45-.18-1.43-1.34.07-4.13.05-8.26.01-12.4,0-.85.21-1.14,1.11-1.13,3.16.05,6.32.02,9.5.02.06-.66-.47-.87-.78-1.18-2.97-3-5.94-5.99-8.95-8.95-.61-.6-.91-1.19-.88-2.07.07-2.02.02-4.04.02-6.5,5.02,5.02,9.8,9.79,14.61,14.6.44-.51.26-1.01.26-1.46.01-9.63.03-19.25-.02-28.88,0-1.07.37-1.49,1.31-1.9,3.58-1.57,6.99-3.5,10.65-4.9,2.92-1.12,2.91-1.16,2.91,1.91,0,11.25,0,22.51,0,33.76,0,.46-.13.94.16,1.49,4.8-4.82,9.55-9.6,14.3-14.38.11.05.23.09.34.14,0,2.38.02,4.77-.01,7.15,0,.47-.49.71-.79,1.01-3.29,3.29-6.59,6.57-10.2,10.16h2.77c2.37,0,4.75.03,7.12-.02.82-.02,1.16.17,1.15,1.08-.05,4.22-.04,8.44,0,12.66,0,.85-.23,1.13-1.1,1.12-3.16-.05-6.32-.02-9.49-.02-.15.56.32.72.56.97,2.97,3,5.93,6,8.97,8.94.8.78,1.11,1.56,1.07,2.65-.08,1.91-.02,3.83-.02,6.05-4.97-5-9.72-9.77-14.46-14.54-.12.06-.24.11-.37.17,0,.46,0,.91,0,1.37,0,11.78-.02,23.56.03,35.34,0,1.29-.36,1.32-1.38.92-4.41-1.72-8.52-3.94-12.26-6.87-.87-.68-1.26-1.37-1.25-2.52.05-8.92.03-17.85.03-26.77,0-.47,0-.94,0-1.58-4.03,4.07-7.92,8-12.01,12.12-.98-2.13-1.41-3.94-1.84-5.75-.14-.6.36-.85.69-1.18,2.7-2.71,5.41-5.41,8.11-8.12.3-.3.59-.63,1.13-1.2Z"/>
        <path class="cls-1" d="m49.99,18.15c0-5.5.06-10.99-.04-16.49C49.92.23,50.47,0,51.68,0c5.27,0,10.26,1.29,15.13,3.19,3.2,1.25,6.28,2.73,9.36,4.24,5.43,2.66,11.11,4.4,17.25,4.07.79-.04,1.07.11,1.07.96-.03,9.8-.03,19.61,0,29.41,0,.94-.41,1.07-1.18,1.09-5.73.16-11.31-.75-16.78-2.34-6.8-1.98-13.61-3.87-20.72-4.37-1.58-.11-3.16-.16-4.74-.11-.89.03-1.1-.26-1.1-1.11.03-5.63.02-11.26.02-16.88Z"/>
        <path class="cls-2" d="m49.98,87.93c0-6.46.02-12.92-.02-19.38,0-1.07.25-1.41,1.37-1.4,6.98.03,13.82,1.1,20.6,2.67,6.54,1.51,13.19,2.07,19.9,1.76,1.5-.07,1.19.55.92,1.41-4.29,13.65-12.99,23.19-26.39,28.37-5.17,2-10.2,4.29-15.09,6.9-1.28.68-1.28.69-1.28-.81,0-6.5,0-13.01,0-19.51Z"/>
        <path class="cls-3" d="m34.57,74.85c3.37,3.38,6.52,6.56,9.68,9.72.37.37.31.8.31,1.23,0,7.29-.01,14.57.02,21.86,0,1.07-.24,1.17-1.16.69-2.65-1.37-5.34-2.67-8.02-3.96-.59-.28-1-.53-.99-1.32.03-9.13.02-18.26.03-27.39,0-.16.05-.32.14-.82Z"/>
        <path class="cls-3" d="m34.63,29.3c-.3-.5-.2-.9-.2-1.28,0-8.56.02-17.13-.03-25.69,0-1.07.36-1.43,1.35-1.61C38.18.29,40.61.03,43.08,0c1.05,0,1.53.22,1.52,1.46-.07,5.66-.03,11.33-.03,17,0,.58-.02,1.08-.5,1.55-3.01,2.96-5.98,5.95-8.96,8.92-.12.12-.27.2-.48.36Z"/>
        <path class="cls-3" d="m10.21,29.23c-.55-.04-.72-.33-.93-.54-2.86-2.85-5.71-5.71-8.57-8.55-.42-.42-.7-.83-.69-1.48.04-2.06.03-4.12,0-6.19,0-.68.08-1.06.92-.98,2.82.24,5.6-.1,8.35-.76.51-.12.92-.28.92.54-.02,5.96-.01,11.91-.01,17.96Z"/>
        <path class="cls-3" d="m10.09,88.57c-2.16-2.57-3.77-5.16-5.18-7.87-.18-.35-.07-.57.17-.81,1.6-1.61,3.19-3.22,5.02-5.06v13.74Z"/>
      </g>
    </g>
  </g>
</svg>