<svg width="31" height="30" viewBox="0 0 31 30" fill="none" xmlns="http://www.w3.org/2000/svg">
<path opacity="0.7" d="M2.56506 12.882C5.19006 11.689 9.96509 10.892 15.4181 10.892C23.7031 10.892 30.4181 12.732 30.4181 15.002C30.4181 17.272 23.7031 19.112 15.4181 19.112C7.13309 19.112 0.418091 17.272 0.418091 15.002C0.418091 14.226 1.20206 13.502 2.56506 12.882Z" fill="#EFF2FB"/>
<path opacity="0.8" d="M26.0239 25.609C24.4239 27.209 18.371 23.766 12.513 17.909C6.65496 12.052 3.20601 6.00201 4.81301 4.39601C5.36101 3.84801 6.42788 3.89001 7.82888 4.41501C10.5289 5.42801 14.4689 8.24101 18.3289 12.096C24.1819 17.953 27.6299 24.004 26.0239 25.609Z" fill="#EFF2FB"/>
<path opacity="0.9" d="M17.538 2.14901C18.731 4.77401 19.528 9.54901 19.528 15.002C19.528 23.286 17.6881 30.002 15.4181 30.002C13.1481 30.002 11.308 23.286 11.308 15.002C11.308 6.71801 13.1481 0.00201416 15.4181 0.00201416C16.1941 0.00201416 16.918 0.78601 17.538 2.14901Z" fill="#EFF2FB"/>
<path d="M4.83094 22.592C5.84394 19.892 8.65609 15.952 12.5121 12.092C18.3701 6.234 24.42 2.786 26.025 4.392C27.63 5.998 24.1821 12.047 18.3251 17.905C12.4681 23.763 6.41714 27.211 4.81214 25.605C4.26314 25.056 4.30494 23.989 4.83094 22.588" fill="#EFF2FB"/>
</svg>
