<?xml version="1.0" encoding="UTF-8"?>
<svg id="Layer_2" data-name="Layer 2" xmlns="http://www.w3.org/2000/svg" viewBox="0 0 35 33.91">
  <defs>
    <style>
      .cls-1 {
        fill: #f88808;
        stroke-width: 0px;
      }
    </style>
  </defs>
  <g id="Courses">
    <g>
      <path class="cls-1" d="m29.27,17.63c-.04.56-.05,1.06-.12,1.54-.17,1.08-.59,2.05-1.44,2.78-.55.47-1.2.72-1.91.78-.7.06-1.38-.07-2.03-.32-.75-.29-1.53-.41-2.33-.43-1.03-.01-2.07-.03-3.1,0-1.3.04-2.59.13-3.87.37-.42.08-.43.1-.35.53.4,1.98.79,3.97,1.21,5.94.17.79.12,1.55-.15,2.31-.69,1.91-2.46,2.86-4.15,2.75-1.9-.11-3.44-1.49-3.84-3.36-.18-.83-.33-1.67-.5-2.5-.15-.75-.31-1.51-.47-2.26-.08-.37-.12-.43-.51-.41-.92.04-1.81-.1-2.65-.51-1.67-.82-2.67-2.15-2.98-3.97-.32-1.86.28-3.46,1.61-4.76.43-.42.97-.74,1.49-1.04,1.34-.76,2.63-1.6,3.78-2.63.88-.79,1.7-1.65,2.43-2.58,1.18-1.51,2.21-3.11,3.17-4.76.26-.45.41-.97.58-1.46.18-.52.29-1.07.52-1.56.71-1.59,2.5-2.41,4.18-1.99,1.07.27,2,.79,2.88,1.43,1.22.9,2.25,1.99,3.2,3.17,1.17,1.46,2.16,3.03,2.99,4.7,1.04,2.09,1.85,4.26,2.19,6.58.08.57.11,1.14.15,1.65Zm-23.86,5.05c.51.03,1.02-.1,1.49-.36,1.65-.91,3.36-1.65,5.17-2.16,1.55-.44,3.14-.67,4.75-.78.74-.05,1.49-.05,2.24-.08.09,0,.19-.05.28-.08-.04-.08-.07-.17-.12-.23-.93-1.03-1.74-2.14-2.47-3.31-1.28-2.04-2.28-4.19-2.97-6.5-.05-.16-.13-.31-.19-.46-.11.13-.23.24-.33.38-1.32,1.98-2.77,3.86-4.59,5.43-.93.81-1.92,1.54-2.96,2.19-.66.41-1.35.79-1.99,1.23-.72.5-1.04,1.27-1.02,2.12.04,1.64,1.35,2.67,2.71,2.61Zm21.17-5.05c-.06-.52-.11-1.15-.22-1.77-.33-1.9-1.03-3.67-1.89-5.38-.74-1.47-1.62-2.85-2.66-4.14-.87-1.09-1.85-2.08-3-2.88-.5-.35-1.04-.63-1.65-.76-.53-.11-.93.09-1.15.59-.09.2-.13.41-.17.63-.17.96-.05,1.9.12,2.84.39,2.13,1.18,4.12,2.21,6.03,1.18,2.18,2.56,4.2,4.47,5.81.53.45,1.12.83,1.71,1.21.32.21.69.32,1.08.3.3-.01.55-.12.68-.39.13-.25.27-.51.33-.79.08-.39.08-.8.13-1.31Zm-13.84,12.1c-.02-.12-.05-.29-.08-.46-.33-1.64-.66-3.29-.99-4.93-.05-.25-.1-.5-.15-.74-.09-.4-.11-.42-.47-.27-.66.27-1.31.57-1.95.87-.42.2-.42.21-.33.66.34,1.68.68,3.36,1.02,5.03.03.12.05.25.1.37.24.65.94,1.07,1.58.95.81-.15,1.2-.68,1.27-1.47Z"/>
      <path class="cls-1" d="m26.53,3.87c.05-.21.12-.5.2-.79.09-.31.17-.62.31-.91.29-.6.97-.86,1.57-.65.69.25,1.07.9.9,1.57-.11.43-.23.87-.39,1.28-.31.82-1.15,1.11-1.92.7-.45-.24-.63-.64-.67-1.21Z"/>
      <path class="cls-1" d="m33.47,14.06c-.48-.04-1.08-.24-1.63-.51-.53-.26-.77-.91-.61-1.48.16-.59.65-.98,1.27-.97.64,0,1.23.25,1.82.48.08.03.15.1.22.17.46.42.58.95.37,1.5-.2.5-.7.82-1.43.81Z"/>
      <path class="cls-1" d="m32.4,7.73c.05.52-.27.87-.68,1.13-.35.23-.73.43-1.12.6-.85.36-1.68-.09-1.87-.99-.11-.51.15-1.08.65-1.37.36-.22.75-.4,1.12-.61.86-.48,1.98.27,1.9,1.23Z"/>
    </g>
  </g>
</svg>