<?xml version="1.0" encoding="UTF-8"?>
<svg id="Layer_2" data-name="Layer 2" xmlns="http://www.w3.org/2000/svg" viewBox="0 0 12.81 12.82">
  <defs>
    <style>
      .cls-1 {
        fill: #2828f8;
        stroke-width: 0px;
      }
    </style>
  </defs>
  <g id="Grades">
    <path class="cls-1" d="m1.07,6.95v-.53c0-.88.72-1.6,1.6-1.6h3.2v-1.17c-.64-.23-1.06-.83-1.07-1.5,0-.78.97-1.63,1.26-1.87l.34-.27.34.27c.3.24,1.26,1.09,1.26,1.87,0,.68-.43,1.28-1.07,1.5v1.17h3.2c.88,0,1.6.72,1.6,1.6v.53c0,.18-.36.53-.93.53s-.93-.37-.93-.53h-1.07c0,.18-.36.53-.93.53s-.93-.37-.93-.53h-1.07c0,.18-.36.53-.93.53s-.93-.37-.93-.53h-1.07c0,.18-.36.53-.93.53s-.93-.37-.93-.53Zm-1.07,4.8v1.07h12.81v-1.07H0Zm11.74-3.4c-.29.13-.61.2-.93.2-.54,0-1.06-.19-1.47-.53-.85.71-2.08.71-2.94,0-.85.7-2.09.7-2.94,0-.41.35-.93.54-1.47.53-.32,0-.64-.07-.93-.2v2.33h10.67v-2.33Z"/>
  </g>
</svg>