<?xml version="1.0" encoding="UTF-8"?>
<svg id="Layer_2" data-name="Layer 2" xmlns="http://www.w3.org/2000/svg" viewBox="0 0 12.49 12.49">
  <defs>
    <style>
      .cls-1 {
        fill: #2828f8;
        stroke-width: 0px;
      }
    </style>
  </defs>
  <g id="ExamTime">
    <g>
      <path class="cls-1" d="m6.24,5.63c1.99,0,3.99,0,5.98,0q.27,0,.27.27c0,1.55,0,3.11,0,4.66,0,.49-.15.94-.48,1.3-.36.4-.81.6-1.35.63-.04,0-.09,0-.13,0-2.86,0-5.72,0-8.57,0-.49,0-.93-.13-1.3-.45-.34-.29-.55-.65-.62-1.08-.02-.13-.04-.26-.04-.39C0,9,0,7.44,0,5.88q0-.26.26-.26c1.99,0,3.99,0,5.98,0Z"/>
      <path class="cls-1" d="m6.24,4.36c-1.98,0-3.96,0-5.94,0-.32,0-.3.01-.3-.31,0-.25,0-.5.06-.74.18-.74.76-1.29,1.5-1.4.22-.03.44-.03.66-.04.05,0,.1,0,.15,0,.08,0,.13-.04.13-.13,0-.14,0-.27,0-.41,0-.27.01-.54.03-.8C2.54.24,2.86-.02,3.16,0c.32.03.56.28.56.62,0,.35,0,.69,0,1.04,0,.2.02.21.21.21,1.54,0,3.09,0,4.63,0,.19,0,.2-.02.2-.21,0-.35,0-.7,0-1.06,0-.3.2-.53.49-.59.3-.06.63.15.69.45.03.12.04.24.04.36,0,.29,0,.58,0,.86,0,.16.02.18.19.19.29,0,.58-.02.86.06.76.2,1.24.69,1.4,1.46.06.27.03.56.05.85,0,.08-.04.13-.12.13-.05,0-.11,0-.16,0-1.99,0-3.98,0-5.97,0Z"/>
    </g>
  </g>
</svg>