<?xml version="1.0" encoding="UTF-8"?>
<svg id="Layer_2" data-name="Layer 2" xmlns="http://www.w3.org/2000/svg" viewBox="0 0 11.23 14.99">
  <defs>
    <style>
      .cls-1 {
        fill: #2828f8;
        stroke-width: 0px;
      }
    </style>
  </defs>
  <g id="ExamTime">
    <path class="cls-1" d="m5.64,0c.06,0,.11.03.17.03.71,0,1.37.18,2.02.45.57.24,1.07.58,1.53.99,1.05.96,1.66,2.14,1.82,3.54.11.96-.02,1.89-.31,2.8-.3.94-.74,1.82-1.26,2.65-.5.81-1.07,1.58-1.68,2.31-.58.69-1.21,1.33-1.85,1.96-.06.05-.12.1-.18.15-.19.13-.38.13-.57,0-.04-.03-.07-.05-.1-.08-.39-.39-.77-.77-1.15-1.17-.26-.27-.5-.55-.74-.83-.35-.43-.7-.86-1.03-1.31-.54-.74-1.02-1.53-1.42-2.36C.44,8.21.11,7.25.02,6.23c-.09-1.04.07-2.04.52-2.98.22-.45.48-.86.8-1.24.41-.48.89-.89,1.44-1.21C3.45.39,4.17.15,4.95.06c.14-.02.29-.02.44-.03.07,0,.13-.02.2-.03.02,0,.04,0,.06,0Zm-.03,2.49c-1.72,0-3.12,1.4-3.14,3.1-.02,1.76,1.41,3.17,3.12,3.18,1.75.01,3.16-1.41,3.17-3.13,0-1.72-1.41-3.17-3.15-3.15Z"/>
  </g>
</svg>